{
.appVersion = "1342";
DisplayStrings = (
dfhkl,
abcdefghijklmnopqrstuvwxyz,
fgjpqy,
"ABCDEFGHIJKLMN\012OPQRSTUVWXYZ",
"/Germandbls ß",
"/nbspace"
);
copyright = "Copyright 2020 The Carattere Project Authors (https://github.com/googlefonts/carattere)";
customParameters = (
{
name = licenseURL;
value = "https://scripts.sil.org/OFL";
},
{
name = license;
value = "This Font Software is licensed under the SIL Open Font License, Version 1.1. This license is available with a FAQ at: https://scripts.sil.org/OFL";
},
{
name = vendorID;
value = GOOG;
},
{
name = fsType;
value = (
);
},
{
name = glyphOrder;
value = (
.notdef,
CR,
NULL,
space,
nbspace
);
},
{
name = "Use Typo Metrics";
value = 1;
},
{
name = Axes;
value = (
{
Name = Weight;
Tag = wght;
}
);
}
);
date = "2021-07-01 21:24:40 +0000";
designer = "Robert E. Leuschke";
designerURL = www.typesetit.com;
disablesNiceNames = 1;
familyName = Carattere;
featurePrefixes = (
{
automatic = 1;
code = "languagesystem DFLT dflt;\012\012languagesystem latn dflt;\012languagesystem latn AZE;\012languagesystem latn CRT;\012languagesystem latn KAZ;\012languagesystem latn TAT;\012languagesystem latn TRK;\012languagesystem latn ROM;\012languagesystem latn MOL;\012languagesystem latn CAT;\012";
name = Languagesystems;
}
);
features = (
{
automatic = 1;
code = "feature sups;\012feature frac;\012feature ordn;\012feature locl;\012";
name = aalt;
},
{
automatic = 1;

glyphs = (
{
glyphname = .notdef;
lastChange = "2021-07-01 20:46:56 +0000";
layers = (
{
background = {
paths = (
{
closed = 1;
nodes = (
"50 0 LINE",
"462 0 LINE",
"471 10 LINE",
"471 611 LINE",
"462 621 LINE",
"50 621 LINE",
"40 611 LINE",
"40 10 LINE"
);
},
{
closed = 1;
nodes = (
"57 604 LINE",
"456 604 LINE",
"456 17 LINE",
"57 17 LINE"
);
},
{
closed = 1;
nodes = (
"90 48 LINE",
"421 48 LINE",
"421 568 LINE",
"90 568 LINE"
);
},
{
closed = 1;
nodes = (
"143 148 LINE",
"231 312 LINE",
"143 472 LINE",
"161 507 LINE",
"249 345 LINE",
"339 507 LINE",
"360 472 LINE",
"269 309 LINE",
"360 148 LINE",
"339 114 LINE",
"249 274 LINE",
"161 114 LINE"
);
}
);
};
layerId = "3191725B-F824-48C7-90A0-BAE99CBF9356";
paths = (
{
closed = 1;
nodes = (
"50 0 LINE",
"462 0 LINE",
"471 10 LINE",
"471 611 LINE",
"462 621 LINE",
"50 621 LINE",
"40 611 LINE",
"40 10 LINE"
);
},
{
closed = 1;
nodes = (
"57 604 LINE",
"456 604 LINE",
"456 17 LINE",
"57 17 LINE"
);
},
{
closed = 1;
nodes = (
"90 48 LINE",
"421 48 LINE",
"421 568 LINE",
"90 568 LINE"
);
},
{
closed = 1;
nodes = (
"143 148 LINE",
"231 312 LINE",
"143 472 LINE",
"161 507 LINE",
"249 345 LINE",
"339 507 LINE",
"360 472 LINE",
"269 309 LINE",
"360 148 LINE",
"339 114 LINE",
"249 274 LINE",
"161 114 LINE"
);
}
);
width = 511;
}
);
note = .notdef;
},
{
glyphname = A;
lastChange = "2021-07-01 20:46:56 +0000";
layers = (
{
background = {
paths = (
{
closed = 1;
nodes = (
"734 678 OFFCURVE",
"735 681 OFFCURVE",
"735 684 CURVE SMOOTH",
"735 694 OFFCURVE",
"723 699 OFFCURVE",
"700 699 CURVE SMOOTH",
"642 699 OFFCURVE",
"568 668 OFFCURVE",
"479 606 CURVE SMOOTH",
"411 559 OFFCURVE",
"346 503 OFFCURVE",
"283 438 CURVE",
"226 510 OFFCURVE",
"172 546 OFFCURVE",
"120 546 CURVE SMOOTH",
"92 546 OFFCURVE",
"69 534 OFFCURVE",
"51 511 CURVE SMOOTH",
"34 488 OFFCURVE",
"25 458 OFFCURVE",
"25 419 CURVE SMOOTH",
"25 353 OFFCURVE",
"49 283 OFFCURVE",
"98 208 CURVE",
"69 165 OFFCURVE",
"41 123 OFFCURVE",
"12 81 CURVE SMOOTH",
"-32 17 OFFCURVE",
"-73 -31 OFFCURVE",
"-109 -66 CURVE SMOOTH",
"-157 -113 OFFCURVE",
"-199 -137 OFFCURVE",
"-235 -137 CURVE SMOOTH",
"-258 -137 OFFCURVE",
"-272 -130 OFFCURVE",
"-276 -115 CURVE",
"-267 -124 OFFCURVE",
"-256 -129 OFFCURVE",
"-243 -129 CURVE SMOOTH",
"-230 -129 OFFCURVE",
"-218 -124 OFFCURVE",
"-207 -114 CURVE SMOOTH",
"-195 -104 OFFCURVE",
"-188 -89 OFFCURVE",
"-188 -73 CURVE SMOOTH",
"-188 -63 OFFCURVE",
"-193 -53 OFFCURVE",
"-200 -45 CURVE SMOOTH",
"-209 -36 OFFCURVE",
"-220 -31 OFFCURVE",
"-233 -31 CURVE SMOOTH",
"-251 -31 OFFCURVE",
"-266 -39 OFFCURVE",
"-279 -54 CURVE SMOOTH",
"-291 -69 OFFCURVE",
"-297 -85 OFFCURVE",
"-297 -104 CURVE SMOOTH",
"-297 -125 OFFCURVE",
"-288 -141 OFFCURVE",
"-270 -151 CURVE SMOOTH",
"-257 -159 OFFCURVE",
"-240 -163 OFFCURVE",
"-221 -163 CURVE SMOOTH",
"-208 -163 OFFCURVE",
"-195 -161 OFFCURVE",
"-182 -157 CURVE SMOOTH",
"-143 -147 OFFCURVE",
"-96 -108 OFFCURVE",
"-41 -40 CURVE SMOOTH",
"-26 -21 OFFCURVE",
"26 52 OFFCURVE",
"117 180 CURVE",
"153 131 OFFCURVE",
"195 83 OFFCURVE",
"244 38 CURVE SMOOTH",
"288 -3 OFFCURVE",
"328 -35 OFFCURVE",
"365 -57 CURVE SMOOTH",
"369 -59 OFFCURVE",
"372 -60 OFFCURVE",
"374 -60 CURVE SMOOTH",
"378 -60 OFFCURVE",
"380 -58 OFFCURVE",
"380 -52 CURVE SMOOTH",
"380 -49 OFFCURVE",
"378 -45 OFFCURVE",
"373 -42 CURVE SMOOTH",
"276 25 OFFCURVE",
"196 107 OFFCURVE",
"135 205 CURVE",
"188 279 OFFCURVE",
"235 339 OFFCURVE",
"278 385 CURVE",
"339 308 OFFCURVE",
"379 214 OFFCURVE",
"397 105 CURVE",
"400 64 OFFCURVE",
"414 33 OFFCURVE",
"440 10 CURVE SMOOTH",
"460 -7 OFFCURVE",
"482 -16 OFFCURVE",
"505 -16 CURVE SMOOTH",
"541 -16 OFFCURVE",
"579 11 OFFCURVE",
"616 70 CURVE SMOOTH",
"624 82 OFFCURVE",
"645 126 OFFCURVE",
"683 201 CURVE SMOOTH",
"686 207 OFFCURVE",
"688 212 OFFCURVE",
"688 217 CURVE SMOOTH",
"688 221 OFFCURVE",
"686 224 OFFCURVE",
"684 224 CURVE SMOOTH",
"684 224 OFFCURVE",
"683 224 OFFCURVE",
"683 224 CURVE SMOOTH",
"679 223 OFFCURVE",
"675 219 OFFCURVE",
"672 212 CURVE SMOOTH",
"609 81 OFFCURVE",
"560 16 OFFCURVE",
"526 16 CURVE SMOOTH",
"492 16 OFFCURVE",
"475 37 OFFCURVE",
"475 79 CURVE SMOOTH",
"475 92 OFFCURVE",
"477 108 OFFCURVE",
"480 127 CURVE SMOOTH",
"498 222 OFFCURVE",
"582 405 OFFCURVE",
"732 674 CURVE SMOOTH"
);
},
{
closed = 1;
nodes = (
"565 484 OFFCURVE",
"507 390 OFFCURVE",
"450 289 CURVE SMOOTH",
"427 249 OFFCURVE",
"412 211 OFFCURVE",
"404 176 CURVE",
"382 266 OFFCURVE",
"348 344 OFFCURVE",
"303 411 CURVE",
"344 452 OFFCURVE",
"392 493 OFFCURVE",
"449 533 CURVE SMOOTH",
"521 583 OFFCURVE",
"576 607 OFFCURVE",
"614 607 CURVE SMOOTH",
"627 607 OFFCURVE",
"633 603 OFFCURVE",
"633 594 CURVE SMOOTH",
"633 587 OFFCURVE",
"630 579 OFFCURVE",
"623 569 CURVE SMOOTH"
);
},
{
closed = 1;
nodes = (
"215 365 OFFCURVE",
"169 306 OFFCURVE",
"117 235 CURVE",
"92 284 OFFCURVE",
"79 332 OFFCURVE",
"79 378 CURVE SMOOTH",
"79 407 OFFCURVE",
"85 431 OFFCURVE",
"97 450 CURVE SMOOTH",
"108 468 OFFCURVE",
"124 477 OFFCURVE",
"144 477 CURVE SMOOTH",
"177 477 OFFCURVE",
"214 455 OFFCURVE",
"256 410 CURVE"
);
}
);
};
hints = (
{
horizontal = 1;
place = "{-164, 26}";
type = Stem;
},
{
horizontal = 1;
place = "{-130, 98}";
type = Stem;
},
{
horizontal = 1;
place = "{478, 70}";
type = Stem;
},
{
horizontal = 1;
place = "{700, -20}";
target = down;
type = TopGhost;
},
{
place = "{26, 54}";
type = Stem;
},
{
place = "{256, 48}";
type = Stem;
}
);
layerId = "3191725B-F824-48C7-90A0-BAE99CBF9356";
paths = (
{
closed = 1;
nodes = (
"734 678 OFFCURVE",
"735 681 OFFCURVE",
"735 684 CURVE SMOOTH",
"735 694 OFFCURVE",
"723 699 OFFCURVE",
"700 699 CURVE SMOOTH",
"642 699 OFFCURVE",
"568 668 OFFCURVE",
"479 606 CURVE SMOOTH",
"411 559 OFFCURVE",
"346 503 OFFCURVE",
"283 438 CURVE",
"226 510 OFFCURVE",
"172 546 OFFCURVE",
"120 546 CURVE SMOOTH",
"92 546 OFFCURVE",
"69 534 OFFCURVE",
"51 511 CURVE SMOOTH",
"34 488 OFFCURVE",
"25 458 OFFCURVE",
"25 419 CURVE SMOOTH",
"25 353 OFFCURVE",
"49 283 OFFCURVE",
"98 208 CURVE",
"69 165 OFFCURVE",
"41 123 OFFCURVE",
"12 81 CURVE SMOOTH",
"-32 17 OFFCURVE",
"-73 -31 OFFCURVE",
"-109 -66 CURVE SMOOTH",
"-157 -113 OFFCURVE",
"-199 -137 OFFCURVE",
"-235 -137 CURVE SMOOTH",
"-258 -137 OFFCURVE",
"-272 -130 OFFCURVE",
"-276 -115 CURVE",
"-267 -124 OFFCURVE",
"-256 -129 OFFCURVE",
"-243 -129 CURVE SMOOTH",
"-230 -129 OFFCURVE",
"-218 -124 OFFCURVE",
"-207 -114 CURVE SMOOTH",
"-195 -104 OFFCURVE",
"-188 -89 OFFCURVE",
"-188 -73 CURVE SMOOTH",
"-188 -63 OFFCURVE",
"-193 -53 OFFCURVE",
"-200 -45 CURVE SMOOTH",
"-209 -36 OFFCURVE",
"-220 -31 OFFCURVE",
"-233 -31 CURVE SMOOTH",
"-251 -31 OFFCURVE",
"-266 -39 OFFCURVE",
"-279 -54 CURVE SMOOTH",
"-291 -69 OFFCURVE",
"-297 -85 OFFCURVE",
"-297 -104 CURVE SMOOTH",
"-297 -125 OFFCURVE",
"-288 -141 OFFCURVE",
"-270 -151 CURVE SMOOTH",
"-257 -159 OFFCURVE",
"-240 -163 OFFCURVE",
"-221 -163 CURVE SMOOTH",
"-208 -163 OFFCURVE",
"-195 -161 OFFCURVE",
"-182 -157 CURVE SMOOTH",
"-143 -147 OFFCURVE",
"-96 -108 OFFCURVE",
"-41 -40 CURVE SMOOTH",
"-26 -21 OFFCURVE",
"26 52 OFFCURVE",
"117 180 CURVE",
"153 131 OFFCURVE",
"195 83 OFFCURVE",
"244 38 CURVE SMOOTH",
"288 -3 OFFCURVE",
"328 -35 OFFCURVE",
"365 -57 CURVE SMOOTH",
"369 -59 OFFCURVE",
"372 -60 OFFCURVE",
"374 -60 CURVE SMOOTH",
"378 -60 OFFCURVE",
"380 -58 OFFCURVE",
"380 -52 CURVE SMOOTH",
"380 -49 OFFCURVE",
"378 -45 OFFCURVE",
"373 -42 CURVE SMOOTH",
"276 25 OFFCURVE",
"196 107 OFFCURVE",
"135 205 CURVE",
"188 279 OFFCURVE",
"235 339 OFFCURVE",
"278 385 CURVE",
"339 308 OFFCURVE",
"379 214 OFFCURVE",
"397 105 CURVE",
"400 64 OFFCURVE",
"414 33 OFFCURVE",
"440 10 CURVE SMOOTH",
"460 -7 OFFCURVE",
"482 -16 OFFCURVE",
"505 -16 CURVE SMOOTH",
"541 -16 OFFCURVE",
"579 11 OFFCURVE",
"616 70 CURVE SMOOTH",
"624 82 OFFCURVE",
"645 126 OFFCURVE",
"683 201 CURVE SMOOTH",
"686 207 OFFCURVE",
"688 212 OFFCURVE",
"688 217 CURVE SMOOTH",
"688 221 OFFCURVE",
"686 224 OFFCURVE",
"684 224 CURVE SMOOTH",
"684 224 OFFCURVE",
"683 224 OFFCURVE",
"683 224 CURVE SMOOTH",
"679 223 OFFCURVE",
"675 219 OFFCURVE",
"672 212 CURVE SMOOTH",
"609 81 OFFCURVE",
"560 16 OFFCURVE",
"526 16 CURVE SMOOTH",
"492 16 OFFCURVE",
"475 37 OFFCURVE",
"475 79 CURVE SMOOTH",
"475 92 OFFCURVE",
"477 108 OFFCURVE",
"480 127 CURVE SMOOTH",
"498 222 OFFCURVE",
"582 405 OFFCURVE",
"732 674 CURVE SMOOTH"
);
},
{
closed = 1;
nodes = (
"565 484 OFFCURVE",
"507 390 OFFCURVE",
"450 289 CURVE SMOOTH",
"427 249 OFFCURVE",
"412 211 OFFCURVE",
"404 176 CURVE",
"382 266 OFFCURVE",
"348 344 OFFCURVE",
"303 411 CURVE",
"344 452 OFFCURVE",
"392 493 OFFCURVE",
"449 533 CURVE SMOOTH",
"521 583 OFFCURVE",
"576 607 OFFCURVE",
"614 607 CURVE SMOOTH",
"627 607 OFFCURVE",
"633 603 OFFCURVE",
"633 594 CURVE SMOOTH",
"633 587 OFFCURVE",
"630 579 OFFCURVE",
"623 569 CURVE SMOOTH"
);
},
{
closed = 1;
nodes = (
"215 365 OFFCURVE",
"169 306 OFFCURVE",
"117 235 CURVE",
"92 284 OFFCURVE",
"79 332 OFFCURVE",
"79 378 CURVE SMOOTH",
"79 407 OFFCURVE",
"85 431 OFFCURVE",
"97 450 CURVE SMOOTH",
"108 468 OFFCURVE",
"124 477 OFFCURVE",
"144 477 CURVE SMOOTH",
"177 477 OFFCURVE",
"214 455 OFFCURVE",
"256 410 CURVE"
);
}
);
width = 606;
}
);
note = A;
unicode = 0041;
},
{
glyphname = Aacute;
lastChange = "2021-07-01 20:46:56 +0000";
layers = (
{
background = {
paths = (
{
closed = 1;
nodes = (
"734 678 OFFCURVE",
"735 681 OFFCURVE",
"735 684 CURVE SMOOTH",
"735 694 OFFCURVE",
"723 699 OFFCURVE",
"700 699 CURVE SMOOTH",
"642 699 OFFCURVE",
"568 668 OFFCURVE",
"479 606 CURVE SMOOTH",
"411 559 OFFCURVE",
"346 503 OFFCURVE",
"283 438 CURVE",
"226 510 OFFCURVE",
"172 546 OFFCURVE",
"120 546 CURVE SMOOTH",
"92 546 OFFCURVE",
"69 534 OFFCURVE",
"51 511 CURVE SMOOTH",
"34 488 OFFCURVE",
"25 458 OFFCURVE",
"25 419 CURVE SMOOTH",
"25 353 OFFCURVE",
"49 283 OFFCURVE",
"98 208 CURVE",
"69 165 OFFCURVE",
"41 123 OFFCURVE",
"12 81 CURVE SMOOTH",
"-32 17 OFFCURVE",
"-73 -31 OFFCURVE",
"-109 -66 CURVE SMOOTH",
"-157 -113 OFFCURVE",
"-199 -137 OFFCURVE",
"-235 -137 CURVE SMOOTH",
"-258 -137 OFFCURVE",
"-272 -130 OFFCURVE",
"-276 -115 CURVE",
"-267 -124 OFFCURVE",
"-256 -129 OFFCURVE",
"-243 -129 CURVE SMOOTH",
"-230 -129 OFFCURVE",
"-218 -124 OFFCURVE",
"-207 -114 CURVE SMOOTH",
"-195 -104 OFFCURVE",
"-188 -89 OFFCURVE",
"-188 -73 CURVE SMOOTH",
"-188 -63 OFFCURVE",
"-193 -53 OFFCURVE",
"-200 -45 CURVE SMOOTH",
"-209 -36 OFFCURVE",
"-220 -31 OFFCURVE",
"-233 -31 CURVE SMOOTH",
"-251 -31 OFFCURVE",
"-266 -39 OFFCURVE",
"-279 -54 CURVE SMOOTH",
"-291 -69 OFFCURVE",
"-297 -85 OFFCURVE",
"-297 -104 CURVE SMOOTH",
"-297 -125 OFFCURVE",
"-288 -141 OFFCURVE",
"-270 -151 CURVE SMOOTH",
"-257 -159 OFFCURVE",
"-240 -163 OFFCURVE",
"-221 -163 CURVE SMOOTH",
"-208 -163 OFFCURVE",
"-195 -161 OFFCURVE",
"-182 -157 CURVE SMOOTH",
"-143 -147 OFFCURVE",
"-96 -108 OFFCURVE",
"-41 -40 CURVE SMOOTH",
"-26 -21 OFFCURVE",
"26 52 OFFCURVE",
"117 180 CURVE",
"153 131 OFFCURVE",
"195 83 OFFCURVE",
"244 38 CURVE SMOOTH",
"288 -3 OFFCURVE",
"328 -35 OFFCURVE",
"365 -57 CURVE SMOOTH",
"369 -59 OFFCURVE",
"372 -60 OFFCURVE",
"374 -60 CURVE SMOOTH",
"378 -60 OFFCURVE",
"380 -58 OFFCURVE",
"380 -52 CURVE SMOOTH",
"380 -49 OFFCURVE",
"378 -45 OFFCURVE",
"373 -42 CURVE SMOOTH",
"276 25 OFFCURVE",
"196 107 OFFCURVE",
"135 205 CURVE",
"188 279 OFFCURVE",
"235 339 OFFCURVE",
"278 385 CURVE",
"339 308 OFFCURVE",
"379 214 OFFCURVE",
"397 105 CURVE",
"400 64 OFFCURVE",
"414 33 OFFCURVE",
"440 10 CURVE SMOOTH",
"460 -7 OFFCURVE",
"482 -16 OFFCURVE",
"505 -16 CURVE SMOOTH",
"541 -16 OFFCURVE",
"579 11 OFFCURVE",
"616 70 CURVE SMOOTH",
"624 82 OFFCURVE",
"645 126 OFFCURVE",
"683 201 CURVE SMOOTH",
"686 207 OFFCURVE",
"688 212 OFFCURVE",
"688 217 CURVE SMOOTH",
"688 221 OFFCURVE",
"686 224 OFFCURVE",
"684 224 CURVE SMOOTH",
"684 224 OFFCURVE",
"683 224 OFFCURVE",
"683 224 CURVE SMOOTH",
"679 223 OFFCURVE",
"675 219 OFFCURVE",
"672 212 CURVE SMOOTH",
"609 81 OFFCURVE",
"560 16 OFFCURVE",
"526 16 CURVE SMOOTH",
"492 16 OFFCURVE",
"475 37 OFFCURVE",
"475 79 CURVE SMOOTH",
"475 92 OFFCURVE",
"477 108 OFFCURVE",
"480 127 CURVE SMOOTH",
"498 222 OFFCURVE",
"582 405 OFFCURVE",
"732 674 CURVE SMOOTH"
);
},
{
closed = 1;
nodes = (
"565 484 OFFCURVE",
"507 390 OFFCURVE",
"450 289 CURVE SMOOTH",
"427 249 OFFCURVE",
"412 211 OFFCURVE",
"404 176 CURVE",
"382 266 OFFCURVE",
"348 344 OFFCURVE",
"303 411 CURVE",
"344 452 OFFCURVE",
"392 493 OFFCURVE",
"449 533 CURVE SMOOTH",
"521 583 OFFCURVE",
"576 607 OFFCURVE",
"614 607 CURVE SMOOTH",
"627 607 OFFCURVE",
"633 603 OFFCURVE",
"633 594 CURVE SMOOTH",
"633 587 OFFCURVE",
"630 579 OFFCURVE",
"623 569 CURVE SMOOTH"
);
},
{
closed = 1;
nodes = (
"215 365 OFFCURVE",
"169 306 OFFCURVE",
"117 235 CURVE",
"92 284 OFFCURVE",
"79 332 OFFCURVE",
"79 378 CURVE SMOOTH",
"79 407 OFFCURVE",
"85 431 OFFCURVE",
"97 450 CURVE SMOOTH",
"108 468 OFFCURVE",
"124 477 OFFCURVE",
"144 477 CURVE SMOOTH",
"177 477 OFFCURVE",
"214 455 OFFCURVE",
"256 410 CURVE"
);
},
{
closed = 1;
nodes = (
"863 831 OFFCURVE",
"864 835 OFFCURVE",
"864 838 CURVE SMOOTH",
"864 845 OFFCURVE",
"860 850 OFFCURVE",
"852 854 CURVE SMOOTH",
"847 857 OFFCURVE",
"841 858 OFFCURVE",
"835 858 CURVE SMOOTH",
"822 858 OFFCURVE",
"809 853 OFFCURVE",
"794 842 CURVE SMOOTH",
"671 751 LINE",
"668 745 OFFCURVE",
"669 741 OFFCURVE",
"674 738 CURVE SMOOTH",
"678 736 OFFCURVE",
"709 749 OFFCURVE",
"768 776 CURVE SMOOTH",
"826 803 OFFCURVE",
"857 820 OFFCURVE",
"861 827 CURVE SMOOTH"
);
}
);
};
hints = (
{
horizontal = 1;
place = "{-164, 26}";
type = Stem;
},
{
horizontal = 1;
place = "{-130, 98}";
type = Stem;
},
{
horizontal = 1;
place = "{478, 70}";
type = Stem;
},
{
horizontal = 1;
place = "{700, -20}";
target = down;
type = TopGhost;
},
{
place = "{26, 54}";
type = Stem;
},
{
place = "{256, 48}";
type = Stem;
}
);
layerId = "3191725B-F824-48C7-90A0-BAE99CBF9356";
paths = (
{
closed = 1;
nodes = (
"734 678 OFFCURVE",
"735 681 OFFCURVE",
"735 684 CURVE SMOOTH",
"735 694 OFFCURVE",
"723 699 OFFCURVE",
"700 699 CURVE SMOOTH",
"642 699 OFFCURVE",
"568 668 OFFCURVE",
"479 606 CURVE SMOOTH",
"411 559 OFFCURVE",
"346 503 OFFCURVE",
"283 438 CURVE",
"226 510 OFFCURVE",
"172 546 OFFCURVE",
"120 546 CURVE SMOOTH",
"92 546 OFFCURVE",
"69 534 OFFCURVE",
"51 511 CURVE SMOOTH",
"34 488 OFFCURVE",
"25 458 OFFCURVE",
"25 419 CURVE SMOOTH",
"25 353 OFFCURVE",
"49 283 OFFCURVE",
"98 208 CURVE",
"69 165 OFFCURVE",
"41 123 OFFCURVE",
"12 81 CURVE SMOOTH",
"-32 17 OFFCURVE",
"-73 -31 OFFCURVE",
"-109 -66 CURVE SMOOTH",
"-157 -113 OFFCURVE",
"-199 -137 OFFCURVE",
"-235 -137 CURVE SMOOTH",
"-258 -137 OFFCURVE",
"-272 -130 OFFCURVE",
"-276 -115 CURVE",
"-267 -124 OFFCURVE",
"-256 -129 OFFCURVE",
"-243 -129 CURVE SMOOTH",
"-230 -129 OFFCURVE",
"-218 -124 OFFCURVE",
"-207 -114 CURVE SMOOTH",
"-195 -104 OFFCURVE",
"-188 -89 OFFCURVE",
"-188 -73 CURVE SMOOTH",
"-188 -63 OFFCURVE",
"-193 -53 OFFCURVE",
"-200 -45 CURVE SMOOTH",
"-209 -36 OFFCURVE",
"-220 -31 OFFCURVE",
"-233 -31 CURVE SMOOTH",
"-251 -31 OFFCURVE",
"-266 -39 OFFCURVE",
"-279 -54 CURVE SMOOTH",
"-291 -69 OFFCURVE",
"-297 -85 OFFCURVE",
"-297 -104 CURVE SMOOTH",
"-297 -125 OFFCURVE",
"-288 -141 OFFCURVE",
"-270 -151 CURVE SMOOTH",
"-257 -159 OFFCURVE",
"-240 -163 OFFCURVE",
"-221 -163 CURVE SMOOTH",
"-208 -163 OFFCURVE",
"-195 -161 OFFCURVE",
"-182 -157 CURVE SMOOTH",
"-143 -147 OFFCURVE",
"-96 -108 OFFCURVE",
"-41 -40 CURVE SMOOTH",
"-26 -21 OFFCURVE",
"26 52 OFFCURVE",
"117 180 CURVE",
"153 131 OFFCURVE",
"195 83 OFFCURVE",
"244 38 CURVE SMOOTH",
"288 -3 OFFCURVE",
"328 -35 OFFCURVE",
"365 -57 CURVE SMOOTH",
"369 -59 OFFCURVE",
"372 -60 OFFCURVE",
"374 -60 CURVE SMOOTH",
"378 -60 OFFCURVE",
"380 -58 OFFCURVE",
"380 -52 CURVE SMOOTH",
"380 -49 OFFCURVE",
"378 -45 OFFCURVE",
"373 -42 CURVE SMOOTH",
"276 25 OFFCURVE",
"196 107 OFFCURVE",
"135 205 CURVE",
"188 279 OFFCURVE",
"235 339 OFFCURVE",
"278 385 CURVE",
"339 308 OFFCURVE",
"379 214 OFFCURVE",
"397 105 CURVE",
"400 64 OFFCURVE",
"414 33 OFFCURVE",
"440 10 CURVE SMOOTH",
"460 -7 OFFCURVE",
"482 -16 OFFCURVE",
"505 -16 CURVE SMOOTH",
"541 -16 OFFCURVE",
"579 11 OFFCURVE",
"616 70 CURVE SMOOTH",
"624 82 OFFCURVE",
"645 126 OFFCURVE",
"683 201 CURVE SMOOTH",
"686 207 OFFCURVE",
"688 212 OFFCURVE",
"688 217 CURVE SMOOTH",
"688 221 OFFCURVE",
"686 224 OFFCURVE",
"684 224 CURVE SMOOTH",
"684 224 OFFCURVE",
"683 224 OFFCURVE",
"683 224 CURVE SMOOTH",
"679 223 OFFCURVE",
"675 219 OFFCURVE",
"672 212 CURVE SMOOTH",
"609 81 OFFCURVE",
"560 16 OFFCURVE",
"526 16 CURVE SMOOTH",
"492 16 OFFCURVE",
"475 37 OFFCURVE",
"475 79 CURVE SMOOTH",
"475 92 OFFCURVE",
"477 108 OFFCURVE",
"480 127 CURVE SMOOTH",
"498 222 OFFCURVE",
"582 405 OFFCURVE",
"732 674 CURVE SMOOTH"
);
},
{
closed = 1;
nodes = (
"565 484 OFFCURVE",
"507 390 OFFCURVE",
"450 289 CURVE SMOOTH",
"427 249 OFFCURVE",
"412 211 OFFCURVE",
"404 176 CURVE",
"382 266 OFFCURVE",
"348 344 OFFCURVE",
"303 411 CURVE",
"344 452 OFFCURVE",
"392 493 OFFCURVE",
"449 533 CURVE SMOOTH",
"521 583 OFFCURVE",
"576 607 OFFCURVE",
"614 607 CURVE SMOOTH",
"627 607 OFFCURVE",
"633 603 OFFCURVE",
"633 594 CURVE SMOOTH",
"633 587 OFFCURVE",
"630 579 OFFCURVE",
"623 569 CURVE SMOOTH"
);
},
{
closed = 1;
nodes = (
"215 365 OFFCURVE",
"169 306 OFFCURVE",
"117 235 CURVE",
"92 284 OFFCURVE",
"79 332 OFFCURVE",
"79 378 CURVE SMOOTH",
"79 407 OFFCURVE",
"85 431 OFFCURVE",
"97 450 CURVE SMOOTH",
"108 468 OFFCURVE",
"124 477 OFFCURVE",
"144 477 CURVE SMOOTH",
"177 477 OFFCURVE",
"214 455 OFFCURVE",
"256 410 CURVE"
);
},
{
closed = 1;
nodes = (
"863 831 OFFCURVE",
"864 835 OFFCURVE",
"864 838 CURVE SMOOTH",
"864 845 OFFCURVE",
"860 850 OFFCURVE",
"852 854 CURVE SMOOTH",
"847 857 OFFCURVE",
"841 858 OFFCURVE",
"835 858 CURVE SMOOTH",
"822 858 OFFCURVE",
"809 853 OFFCURVE",
"794 842 CURVE SMOOTH",
"671 751 LINE",
"668 745 OFFCURVE",
"669 741 OFFCURVE",
"674 738 CURVE SMOOTH",
"678 736 OFFCURVE",
"709 749 OFFCURVE",
"768 776 CURVE SMOOTH",
"826 803 OFFCURVE",
"857 820 OFFCURVE",
"861 827 CURVE SMOOTH"
);
}
);
width = 606;
}
);
note = Aacute;
unicode = 00C1;
},
{
glyphname = Acircumflex;
lastChange = "2021-07-01 20:46:56 +0000";
layers = (
{
background = {
paths = (
{
closed = 1;
nodes = (
"734 678 OFFCURVE",
"735 681 OFFCURVE",
"735 684 CURVE SMOOTH",
"735 694 OFFCURVE",
"723 699 OFFCURVE",
"700 699 CURVE SMOOTH",
"642 699 OFFCURVE",
"568 668 OFFCURVE",
"479 606 CURVE SMOOTH",
"411 559 OFFCURVE",
"346 503 OFFCURVE",
"283 438 CURVE",
"226 510 OFFCURVE",
"172 546 OFFCURVE",
"120 546 CURVE SMOOTH",
"92 546 OFFCURVE",
"69 534 OFFCURVE",
"51 511 CURVE SMOOTH",
"34 488 OFFCURVE",
"25 458 OFFCURVE",
"25 419 CURVE SMOOTH",
"25 353 OFFCURVE",
"49 283 OFFCURVE",
"98 208 CURVE",
"69 165 OFFCURVE",
"41 123 OFFCURVE",
"12 81 CURVE SMOOTH",
"-32 17 OFFCURVE",
"-73 -31 OFFCURVE",
"-109 -66 CURVE SMOOTH",
"-157 -113 OFFCURVE",
"-199 -137 OFFCURVE",
"-235 -137 CURVE SMOOTH",
"-258 -137 OFFCURVE",
"-272 -130 OFFCURVE",
"-276 -115 CURVE",
"-267 -124 OFFCURVE",
"-256 -129 OFFCURVE",
"-243 -129 CURVE SMOOTH",
"-230 -129 OFFCURVE",
"-218 -124 OFFCURVE",
"-207 -114 CURVE SMOOTH",
"-195 -104 OFFCURVE",
"-188 -89 OFFCURVE",
"-188 -73 CURVE SMOOTH",
"-188 -63 OFFCURVE",
"-193 -53 OFFCURVE",
"-200 -45 CURVE SMOOTH",
"-209 -36 OFFCURVE",
"-220 -31 OFFCURVE",
"-233 -31 CURVE SMOOTH",
"-251 -31 OFFCURVE",
"-266 -39 OFFCURVE",
"-279 -54 CURVE SMOOTH",
"-291 -69 OFFCURVE",
"-297 -85 OFFCURVE",
"-297 -104 CURVE SMOOTH",
"-297 -125 OFFCURVE",
"-288 -141 OFFCURVE",
"-270 -151 CURVE SMOOTH",
"-257 -159 OFFCURVE",
"-240 -163 OFFCURVE",
"-221 -163 CURVE SMOOTH",
"-208 -163 OFFCURVE",
"-195 -161 OFFCURVE",
"-182 -157 CURVE SMOOTH",
"-143 -147 OFFCURVE",
"-96 -108 OFFCURVE",
"-41 -40 CURVE SMOOTH",
"-26 -21 OFFCURVE",
"26 52 OFFCURVE",
"117 180 CURVE",
"153 131 OFFCURVE",
"195 83 OFFCURVE",
"244 38 CURVE SMOOTH",
"288 -3 OFFCURVE",
"328 -35 OFFCURVE",
"365 -57 CURVE SMOOTH",
"369 -59 OFFCURVE",
"372 -60 OFFCURVE",
"374 -60 CURVE SMOOTH",
"378 -60 OFFCURVE",
"380 -58 OFFCURVE",
"380 -52 CURVE SMOOTH",
"380 -49 OFFCURVE",
"378 -45 OFFCURVE",
"373 -42 CURVE SMOOTH",
"276 25 OFFCURVE",
"196 107 OFFCURVE",
"135 205 CURVE",
"188 279 OFFCURVE",
"235 339 OFFCURVE",
"278 385 CURVE",
"339 308 OFFCURVE",
"379 214 OFFCURVE",
"397 105 CURVE",
"400 64 OFFCURVE",
"414 33 OFFCURVE",
"440 10 CURVE SMOOTH",
"460 -7 OFFCURVE",
"482 -16 OFFCURVE",
"505 -16 CURVE SMOOTH",
"541 -16 OFFCURVE",
"579 11 OFFCURVE",
"616 70 CURVE SMOOTH",
"624 82 OFFCURVE",
"645 126 OFFCURVE",
"683 201 CURVE SMOOTH",
"686 207 OFFCURVE",
"688 212 OFFCURVE",
"688 217 CURVE SMOOTH",
"688 221 OFFCURVE",
"686 224 OFFCURVE",
"684 224 CURVE SMOOTH",
"684 224 OFFCURVE",
"683 224 OFFCURVE",
"683 224 CURVE SMOOTH",
"679 223 OFFCURVE",
"675 219 OFFCURVE",
"672 212 CURVE SMOOTH",
"609 81 OFFCURVE",
"560 16 OFFCURVE",
"526 16 CURVE SMOOTH",
"492 16 OFFCURVE",
"475 37 OFFCURVE",
"475 79 CURVE SMOOTH",
"475 92 OFFCURVE",
"477 108 OFFCURVE",
"480 127 CURVE SMOOTH",
"498 222 OFFCURVE",
"582 405 OFFCURVE",
"732 674 CURVE SMOOTH"
);
},
{
closed = 1;
nodes = (
"565 484 OFFCURVE",
"507 390 OFFCURVE",
"450 289 CURVE SMOOTH",
"427 249 OFFCURVE",
"412 211 OFFCURVE",
"404 176 CURVE",
"382 266 OFFCURVE",
"348 344 OFFCURVE",
"303 411 CURVE",
"344 452 OFFCURVE",
"392 493 OFFCURVE",
"449 533 CURVE SMOOTH",
"521 583 OFFCURVE",
"576 607 OFFCURVE",
"614 607 CURVE SMOOTH",
"627 607 OFFCURVE",
"633 603 OFFCURVE",
"633 594 CURVE SMOOTH",
"633 587 OFFCURVE",
"630 579 OFFCURVE",
"623 569 CURVE SMOOTH"
);
},
{
closed = 1;
nodes = (
"215 365 OFFCURVE",
"169 306 OFFCURVE",
"117 235 CURVE",
"92 284 OFFCURVE",
"79 332 OFFCURVE",
"79 378 CURVE SMOOTH",
"79 407 OFFCURVE",
"85 431 OFFCURVE",
"97 450 CURVE SMOOTH",
"108 468 OFFCURVE",
"124 477 OFFCURVE",
"144 477 CURVE SMOOTH",
"177 477 OFFCURVE",
"214 455 OFFCURVE",
"256 410 CURVE"
);
},
{
closed = 1;
nodes = (
"799 868 LINE SMOOTH",
"799 870 OFFCURVE",
"794 871 OFFCURVE",
"786 871 CURVE SMOOTH",
"779 871 OFFCURVE",
"767 870 OFFCURVE",
"752 868 CURVE",
"569 738 LINE SMOOTH",
"568 737 OFFCURVE",
"568 736 OFFCURVE",
"568 735 CURVE SMOOTH",
"568 732 OFFCURVE",
"572 732 OFFCURVE",
"580 732 CURVE SMOOTH",
"589 732 OFFCURVE",
"595 734 OFFCURVE",
"600 738 CURVE",
"762 825 LINE",
"818 738 LINE SMOOTH",
"820 735 OFFCURVE",
"823 733 OFFCURVE",
"828 732 CURVE SMOOTH",
"832 731 OFFCURVE",
"835 731 OFFCURVE",
"837 731 CURVE SMOOTH",
"838 731 OFFCURVE",
"839 731 OFFCURVE",
"840 731 CURVE SMOOTH",
"843 732 OFFCURVE",
"844 735 OFFCURVE",
"843 738 CURVE SMOOTH"
);
}
);
};
hints = (
{
horizontal = 1;
place = "{-164, 26}";
type = Stem;
},
{
horizontal = 1;
place = "{-130, 98}";
type = Stem;
},
{
horizontal = 1;
place = "{478, 70}";
type = Stem;
},
{
horizontal = 1;
place = "{700, -20}";
target = down;
type = TopGhost;
},
{
place = "{26, 54}";
type = Stem;
},
{
place = "{256, 48}";
type = Stem;
},
{
horizontal = 1;
place = "{732, 20}";
type = Stem;
}
);
layerId = "3191725B-F824-48C7-90A0-BAE99CBF9356";
paths = (
{
closed = 1;
nodes = (
"734 678 OFFCURVE",
"735 681 OFFCURVE",
"735 684 CURVE SMOOTH",
"735 694 OFFCURVE",
"723 699 OFFCURVE",
"700 699 CURVE SMOOTH",
"642 699 OFFCURVE",
"568 668 OFFCURVE",
"479 606 CURVE SMOOTH",
"411 559 OFFCURVE",
"346 503 OFFCURVE",
"283 438 CURVE",
"226 510 OFFCURVE",
"172 546 OFFCURVE",
"120 546 CURVE SMOOTH",
"92 546 OFFCURVE",
"69 534 OFFCURVE",
"51 511 CURVE SMOOTH",
"34 488 OFFCURVE",
"25 458 OFFCURVE",
"25 419 CURVE SMOOTH",
"25 353 OFFCURVE",
"49 283 OFFCURVE",
"98 208 CURVE",
"69 165 OFFCURVE",
"41 123 OFFCURVE",
"12 81 CURVE SMOOTH",
"-32 17 OFFCURVE",
"-73 -31 OFFCURVE",
"-109 -66 CURVE SMOOTH",
"-157 -113 OFFCURVE",
"-199 -137 OFFCURVE",
"-235 -137 CURVE SMOOTH",
"-258 -137 OFFCURVE",
"-272 -130 OFFCURVE",
"-276 -115 CURVE",
"-267 -124 OFFCURVE",
"-256 -129 OFFCURVE",
"-243 -129 CURVE SMOOTH",
"-230 -129 OFFCURVE",
"-218 -124 OFFCURVE",
"-207 -114 CURVE SMOOTH",
"-195 -104 OFFCURVE",
"-188 -89 OFFCURVE",
"-188 -73 CURVE SMOOTH",
"-188 -63 OFFCURVE",
"-193 -53 OFFCURVE",
"-200 -45 CURVE SMOOTH",
"-209 -36 OFFCURVE",
"-220 -31 OFFCURVE",
"-233 -31 CURVE SMOOTH",
"-251 -31 OFFCURVE",
"-266 -39 OFFCURVE",
"-279 -54 CURVE SMOOTH",
"-291 -69 OFFCURVE",
"-297 -85 OFFCURVE",
"-297 -104 CURVE SMOOTH",
"-297 -125 OFFCURVE",
"-288 -141 OFFCURVE",
"-270 -151 CURVE SMOOTH",
"-257 -159 OFFCURVE",
"-240 -163 OFFCURVE",
"-221 -163 CURVE SMOOTH",
"-208 -163 OFFCURVE",
"-195 -161 OFFCURVE",
"-182 -157 CURVE SMOOTH",
"-143 -147 OFFCURVE",
"-96 -108 OFFCURVE",
"-41 -40 CURVE SMOOTH",
"-26 -21 OFFCURVE",
"26 52 OFFCURVE",
"117 180 CURVE",
"153 131 OFFCURVE",
"195 83 OFFCURVE",
"244 38 CURVE SMOOTH",
"288 -3 OFFCURVE",
"328 -35 OFFCURVE",
"365 -57 CURVE SMOOTH",
"369 -59 OFFCURVE",
"372 -60 OFFCURVE",
"374 -60 CURVE SMOOTH",
"378 -60 OFFCURVE",
"380 -58 OFFCURVE",
"380 -52 CURVE SMOOTH",
"380 -49 OFFCURVE",
"378 -45 OFFCURVE",
"373 -42 CURVE SMOOTH",
"276 25 OFFCURVE",
"196 107 OFFCURVE",
"135 205 CURVE",
"188 279 OFFCURVE",
"235 339 OFFCURVE",
"278 385 CURVE",
"339 308 OFFCURVE",
"379 214 OFFCURVE",
"397 105 CURVE",
"400 64 OFFCURVE",
"414 33 OFFCURVE",
"440 10 CURVE SMOOTH",
"460 -7 OFFCURVE",
"482 -16 OFFCURVE",
"505 -16 CURVE SMOOTH",
"541 -16 OFFCURVE",
"579 11 OFFCURVE",
"616 70 CURVE SMOOTH",
"624 82 OFFCURVE",
"645 126 OFFCURVE",
"683 201 CURVE SMOOTH",
"686 207 OFFCURVE",
"688 212 OFFCURVE",
"688 217 CURVE SMOOTH",
"688 221 OFFCURVE",
"686 224 OFFCURVE",
"684 224 CURVE SMOOTH",
"684 224 OFFCURVE",
"683 224 OFFCURVE",
"683 224 CURVE SMOOTH",
"679 223 OFFCURVE",
"675 219 OFFCURVE",
"672 212 CURVE SMOOTH",
"609 81 OFFCURVE",
"560 16 OFFCURVE",
"526 16 CURVE SMOOTH",
"492 16 OFFCURVE",
"475 37 OFFCURVE",
"475 79 CURVE SMOOTH",
"475 92 OFFCURVE",
"477 108 OFFCURVE",
"480 127 CURVE SMOOTH",
"498 222 OFFCURVE",
"582 405 OFFCURVE",
"732 674 CURVE SMOOTH"
);
},
{
closed = 1;
nodes = (
"565 484 OFFCURVE",
"507 390 OFFCURVE",
"450 289 CURVE SMOOTH",
"427 249 OFFCURVE",
"412 211 OFFCURVE",
"404 176 CURVE",
"382 266 OFFCURVE",
"348 344 OFFCURVE",
"303 411 CURVE",
"344 452 OFFCURVE",
"392 493 OFFCURVE",
"449 533 CURVE SMOOTH",
"521 583 OFFCURVE",
"576 607 OFFCURVE",
"614 607 CURVE SMOOTH",
"627 607 OFFCURVE",
"633 603 OFFCURVE",
"633 594 CURVE SMOOTH",
"633 587 OFFCURVE",
"630 579 OFFCURVE",
"623 569 CURVE SMOOTH"
);
},
{
closed = 1;
nodes = (
"215 365 OFFCURVE",
"169 306 OFFCURVE",
"117 235 CURVE",
"92 284 OFFCURVE",
"79 332 OFFCURVE",
"79 378 CURVE SMOOTH",
"79 407 OFFCURVE",
"85 431 OFFCURVE",
"97 450 CURVE SMOOTH",
"108 468 OFFCURVE",
"124 477 OFFCURVE",
"144 477 CURVE SMOOTH",
"177 477 OFFCURVE",
"214 455 OFFCURVE",
"256 410 CURVE"
);
},
{
closed = 1;
nodes = (
"799 868 LINE SMOOTH",
"799 870 OFFCURVE",
"794 871 OFFCURVE",
"786 871 CURVE SMOOTH",
"779 871 OFFCURVE",
"767 870 OFFCURVE",
"752 868 CURVE",
"569 738 LINE SMOOTH",
"568 737 OFFCURVE",
"568 736 OFFCURVE",
"568 735 CURVE SMOOTH",
"568 732 OFFCURVE",
"572 732 OFFCURVE",
"580 732 CURVE SMOOTH",
"589 732 OFFCURVE",
"595 734 OFFCURVE",
"600 738 CURVE",
"762 825 LINE",
"818 738 LINE SMOOTH",
"820 735 OFFCURVE",
"823 733 OFFCURVE",
"828 732 CURVE SMOOTH",
"832 731 OFFCURVE",
"835 731 OFFCURVE",
"837 731 CURVE SMOOTH",
"838 731 OFFCURVE",
"839 731 OFFCURVE",
"840 731 CURVE SMOOTH",
"843 732 OFFCURVE",
"844 735 OFFCURVE",
"843 738 CURVE SMOOTH"
);
}
);
width = 606;
}
);
note = Acircumflex;
unicode = 00C2;
},
{
glyphname = Adieresis;
lastChange = "2021-07-01 20:46:56 +0000";
layers = (
{
background = {
paths = (
{
closed = 1;
nodes = (
"734 678 OFFCURVE",
"735 681 OFFCURVE",
"735 684 CURVE SMOOTH",
"735 694 OFFCURVE",
"723 699 OFFCURVE",
"700 699 CURVE SMOOTH",
"642 699 OFFCURVE",
"568 668 OFFCURVE",
"479 606 CURVE SMOOTH",
"411 559 OFFCURVE",
"346 503 OFFCURVE",
"283 438 CURVE",
"226 510 OFFCURVE",
"172 546 OFFCURVE",
"120 546 CURVE SMOOTH",
"92 546 OFFCURVE",
"69 534 OFFCURVE",
"51 511 CURVE SMOOTH",
"34 488 OFFCURVE",
"25 458 OFFCURVE",
"25 419 CURVE SMOOTH",
"25 353 OFFCURVE",
"49 283 OFFCURVE",
"98 208 CURVE",
"69 165 OFFCURVE",
"41 123 OFFCURVE",
"12 81 CURVE SMOOTH",
"-32 17 OFFCURVE",
"-73 -31 OFFCURVE",
"-109 -66 CURVE SMOOTH",
"-157 -113 OFFCURVE",
"-199 -137 OFFCURVE",
"-235 -137 CURVE SMOOTH",
"-258 -137 OFFCURVE",
"-272 -130 OFFCURVE",
"-276 -115 CURVE",
"-267 -124 OFFCURVE",
"-256 -129 OFFCURVE",
"-243 -129 CURVE SMOOTH",
"-230 -129 OFFCURVE",
"-218 -124 OFFCURVE",
"-207 -114 CURVE SMOOTH",
"-195 -104 OFFCURVE",
"-188 -89 OFFCURVE",
"-188 -73 CURVE SMOOTH",
"-188 -63 OFFCURVE",
"-193 -53 OFFCURVE",
"-200 -45 CURVE SMOOTH",
"-209 -36 OFFCURVE",
"-220 -31 OFFCURVE",
"-233 -31 CURVE SMOOTH",
"-251 -31 OFFCURVE",
"-266 -39 OFFCURVE",
"-279 -54 CURVE SMOOTH",
"-291 -69 OFFCURVE",
"-297 -85 OFFCURVE",
"-297 -104 CURVE SMOOTH",
"-297 -125 OFFCURVE",
"-288 -141 OFFCURVE",
"-270 -151 CURVE SMOOTH",
"-257 -159 OFFCURVE",
"-240 -163 OFFCURVE",
"-221 -163 CURVE SMOOTH",
"-208 -163 OFFCURVE",
"-195 -161 OFFCURVE",
"-182 -157 CURVE SMOOTH",
"-143 -147 OFFCURVE",
"-96 -108 OFFCURVE",
"-41 -40 CURVE SMOOTH",
"-26 -21 OFFCURVE",
"26 52 OFFCURVE",
"117 180 CURVE",
"153 131 OFFCURVE",
"195 83 OFFCURVE",
"244 38 CURVE SMOOTH",
"288 -3 OFFCURVE",
"328 -35 OFFCURVE",
"365 -57 CURVE SMOOTH",
"369 -59 OFFCURVE",
"372 -60 OFFCURVE",
"374 -60 CURVE SMOOTH",
"378 -60 OFFCURVE",
"380 -58 OFFCURVE",
"380 -52 CURVE SMOOTH",
"380 -49 OFFCURVE",
"378 -45 OFFCURVE",
"373 -42 CURVE SMOOTH",
"276 25 OFFCURVE",
"196 107 OFFCURVE",
"135 205 CURVE",
"188 279 OFFCURVE",
"235 339 OFFCURVE",
"278 385 CURVE",
"339 308 OFFCURVE",
"379 214 OFFCURVE",
"397 105 CURVE",
"400 64 OFFCURVE",
"414 33 OFFCURVE",
"440 10 CURVE SMOOTH",
"460 -7 OFFCURVE",
"482 -16 OFFCURVE",
"505 -16 CURVE SMOOTH",
"541 -16 OFFCURVE",
"579 11 OFFCURVE",
"616 70 CURVE SMOOTH",
"624 82 OFFCURVE",
"645 126 OFFCURVE",
"683 201 CURVE SMOOTH",
"686 207 OFFCURVE",
"688 212 OFFCURVE",
"688 217 CURVE SMOOTH",
"688 221 OFFCURVE",
"686 224 OFFCURVE",
"684 224 CURVE SMOOTH",
"684 224 OFFCURVE",
"683 224 OFFCURVE",
"683 224 CURVE SMOOTH",
"679 223 OFFCURVE",
"675 219 OFFCURVE",
"672 212 CURVE SMOOTH",
"609 81 OFFCURVE",
"560 16 OFFCURVE",
"526 16 CURVE SMOOTH",
"492 16 OFFCURVE",
"475 37 OFFCURVE",
"475 79 CURVE SMOOTH",
"475 92 OFFCURVE",
"477 108 OFFCURVE",
"480 127 CURVE SMOOTH",
"498 222 OFFCURVE",
"582 405 OFFCURVE",
"732 674 CURVE SMOOTH"
);
},
{
closed = 1;
nodes = (
"565 484 OFFCURVE",
"507 390 OFFCURVE",
"450 289 CURVE SMOOTH",
"427 249 OFFCURVE",
"412 211 OFFCURVE",
"404 176 CURVE",
"382 266 OFFCURVE",
"348 344 OFFCURVE",
"303 411 CURVE",
"344 452 OFFCURVE",
"392 493 OFFCURVE",
"449 533 CURVE SMOOTH",
"521 583 OFFCURVE",
"576 607 OFFCURVE",
"614 607 CURVE SMOOTH",
"627 607 OFFCURVE",
"633 603 OFFCURVE",
"633 594 CURVE SMOOTH",
"633 587 OFFCURVE",
"630 579 OFFCURVE",
"623 569 CURVE SMOOTH"
);
},
{
closed = 1;
nodes = (
"215 365 OFFCURVE",
"169 306 OFFCURVE",
"117 235 CURVE",
"92 284 OFFCURVE",
"79 332 OFFCURVE",
"79 378 CURVE SMOOTH",
"79 407 OFFCURVE",
"85 431 OFFCURVE",
"97 450 CURVE SMOOTH",
"108 468 OFFCURVE",
"124 477 OFFCURVE",
"144 477 CURVE SMOOTH",
"177 477 OFFCURVE",
"214 455 OFFCURVE",
"256 410 CURVE"
);
},
{
closed = 1;
nodes = (
"801 812 OFFCURVE",
"790 823 OFFCURVE",
"767 823 CURVE SMOOTH",
"746 823 OFFCURVE",
"735 812 OFFCURVE",
"735 790 CURVE SMOOTH",
"735 768 OFFCURVE",
"746 757 OFFCURVE",
"769 757 CURVE SMOOTH",
"790 757 OFFCURVE",
"801 768 OFFCURVE",
"801 790 CURVE SMOOTH"
);
},
{
closed = 1;
nodes = (
"672 812 OFFCURVE",
"661 823 OFFCURVE",
"638 823 CURVE SMOOTH",
"617 823 OFFCURVE",
"606 812 OFFCURVE",
"606 790 CURVE SMOOTH",
"606 768 OFFCURVE",
"617 757 OFFCURVE",
"640 757 CURVE SMOOTH",
"661 757 OFFCURVE",
"672 768 OFFCURVE",
"672 790 CURVE SMOOTH"
);
}
);
};
hints = (
{
horizontal = 1;
place = "{-164, 26}";
type = Stem;
},
{
horizontal = 1;
place = "{-130, 98}";
type = Stem;
},
{
horizontal = 1;
place = "{478, 70}";
type = Stem;
},
{
horizontal = 1;
place = "{700, -20}";
target = down;
type = TopGhost;
},
{
place = "{26, 54}";
type = Stem;
},
{
place = "{256, 48}";
type = Stem;
},
{
horizontal = 1;
place = "{758, 66}";
type = Stem;
},
{
place = "{606, 66}";
type = Stem;
},
{
place = "{736, 66}";
type = Stem;
}
);
layerId = "3191725B-F824-48C7-90A0-BAE99CBF9356";
paths = (
{
closed = 1;
nodes = (
"734 678 OFFCURVE",
"735 681 OFFCURVE",
"735 684 CURVE SMOOTH",
"735 694 OFFCURVE",
"723 699 OFFCURVE",
"700 699 CURVE SMOOTH",
"642 699 OFFCURVE",
"568 668 OFFCURVE",
"479 606 CURVE SMOOTH",
"411 559 OFFCURVE",
"346 503 OFFCURVE",
"283 438 CURVE",
"226 510 OFFCURVE",
"172 546 OFFCURVE",
"120 546 CURVE SMOOTH",
"92 546 OFFCURVE",
"69 534 OFFCURVE",
"51 511 CURVE SMOOTH",
"34 488 OFFCURVE",
"25 458 OFFCURVE",
"25 419 CURVE SMOOTH",
"25 353 OFFCURVE",
"49 283 OFFCURVE",
"98 208 CURVE",
"69 165 OFFCURVE",
"41 123 OFFCURVE",
"12 81 CURVE SMOOTH",
"-32 17 OFFCURVE",
"-73 -31 OFFCURVE",
"-109 -66 CURVE SMOOTH",
"-157 -113 OFFCURVE",
"-199 -137 OFFCURVE",
"-235 -137 CURVE SMOOTH",
"-258 -137 OFFCURVE",
"-272 -130 OFFCURVE",
"-276 -115 CURVE",
"-267 -124 OFFCURVE",
"-256 -129 OFFCURVE",
"-243 -129 CURVE SMOOTH",
"-230 -129 OFFCURVE",
"-218 -124 OFFCURVE",
"-207 -114 CURVE SMOOTH",
"-195 -104 OFFCURVE",
"-188 -89 OFFCURVE",
"-188 -73 CURVE SMOOTH",
"-188 -63 OFFCURVE",
"-193 -53 OFFCURVE",
"-200 -45 CURVE SMOOTH",
"-209 -36 OFFCURVE",
"-220 -31 OFFCURVE",
"-233 -31 CURVE SMOOTH",
"-251 -31 OFFCURVE",
"-266 -39 OFFCURVE",
"-279 -54 CURVE SMOOTH",
"-291 -69 OFFCURVE",
"-297 -85 OFFCURVE",
"-297 -104 CURVE SMOOTH",
"-297 -125 OFFCURVE",
"-288 -141 OFFCURVE",
"-270 -151 CURVE SMOOTH",
"-257 -159 OFFCURVE",
"-240 -163 OFFCURVE",
"-221 -163 CURVE SMOOTH",
"-208 -163 OFFCURVE",
"-195 -161 OFFCURVE",
"-182 -157 CURVE SMOOTH",
"-143 -147 OFFCURVE",
"-96 -108 OFFCURVE",
"-41 -40 CURVE SMOOTH",
"-26 -21 OFFCURVE",
"26 52 OFFCURVE",
"117 180 CURVE",
"153 131 OFFCURVE",
"195 83 OFFCURVE",
"244 38 CURVE SMOOTH",
"288 -3 OFFCURVE",
"328 -35 OFFCURVE",
"365 -57 CURVE SMOOTH",
"369 -59 OFFCURVE",
"372 -60 OFFCURVE",
"374 -60 CURVE SMOOTH",
"378 -60 OFFCURVE",
"380 -58 OFFCURVE",
"380 -52 CURVE SMOOTH",
"380 -49 OFFCURVE",
"378 -45 OFFCURVE",
"373 -42 CURVE SMOOTH",
"276 25 OFFCURVE",
"196 107 OFFCURVE",
"135 205 CURVE",
"188 279 OFFCURVE",
"235 339 OFFCURVE",
"278 385 CURVE",
"339 308 OFFCURVE",
"379 214 OFFCURVE",
"397 105 CURVE",
"400 64 OFFCURVE",
"414 33 OFFCURVE",
"440 10 CURVE SMOOTH",
"460 -7 OFFCURVE",
"482 -16 OFFCURVE",
"505 -16 CURVE SMOOTH",
"541 -16 OFFCURVE",
"579 11 OFFCURVE",
"616 70 CURVE SMOOTH",
"624 82 OFFCURVE",
"645 126 OFFCURVE",
"683 201 CURVE SMOOTH",
"686 207 OFFCURVE",
"688 212 OFFCURVE",
"688 217 CURVE SMOOTH",
"688 221 OFFCURVE",
"686 224 OFFCURVE",
"684 224 CURVE SMOOTH",
"684 224 OFFCURVE",
"683 224 OFFCURVE",
"683 224 CURVE SMOOTH",
"679 223 OFFCURVE",
"675 219 OFFCURVE",
"672 212 CURVE SMOOTH",
"609 81 OFFCURVE",
"560 16 OFFCURVE",
"526 16 CURVE SMOOTH",
"492 16 OFFCURVE",
"475 37 OFFCURVE",
"475 79 CURVE SMOOTH",
"475 92 OFFCURVE",
"477 108 OFFCURVE",
"480 127 CURVE SMOOTH",
"498 222 OFFCURVE",
"582 405 OFFCURVE",
"732 674 CURVE SMOOTH"
);
},
{
closed = 1;
nodes = (
"565 484 OFFCURVE",
"507 390 OFFCURVE",
"450 289 CURVE SMOOTH",
"427 249 OFFCURVE",
"412 211 OFFCURVE",
"404 176 CURVE",
"382 266 OFFCURVE",
"348 344 OFFCURVE",
"303 411 CURVE",
"344 452 OFFCURVE",
"392 493 OFFCURVE",
"449 533 CURVE SMOOTH",
"521 583 OFFCURVE",
"576 607 OFFCURVE",
"614 607 CURVE SMOOTH",
"627 607 OFFCURVE",
"633 603 OFFCURVE",
"633 594 CURVE SMOOTH",
"633 587 OFFCURVE",
"630 579 OFFCURVE",
"623 569 CURVE SMOOTH"
);
},
{
closed = 1;
nodes = (
"215 365 OFFCURVE",
"169 306 OFFCURVE",
"117 235 CURVE",
"92 284 OFFCURVE",
"79 332 OFFCURVE",
"79 378 CURVE SMOOTH",
"79 407 OFFCURVE",
"85 431 OFFCURVE",
"97 450 CURVE SMOOTH",
"108 468 OFFCURVE",
"124 477 OFFCURVE",
"144 477 CURVE SMOOTH",
"177 477 OFFCURVE",
"214 455 OFFCURVE",
"256 410 CURVE"
);
},
{
closed = 1;
nodes = (
"801 812 OFFCURVE",
"790 823 OFFCURVE",
"767 823 CURVE SMOOTH",
"746 823 OFFCURVE",
"735 812 OFFCURVE",
"735 790 CURVE SMOOTH",
"735 768 OFFCURVE",
"746 757 OFFCURVE",
"769 757 CURVE SMOOTH",
"790 757 OFFCURVE",
"801 768 OFFCURVE",
"801 790 CURVE SMOOTH"
);
},
{
closed = 1;
nodes = (
"672 812 OFFCURVE",
"661 823 OFFCURVE",
"638 823 CURVE SMOOTH",
"617 823 OFFCURVE",
"606 812 OFFCURVE",
"606 790 CURVE SMOOTH",
"606 768 OFFCURVE",
"617 757 OFFCURVE",
"640 757 CURVE SMOOTH",
"661 757 OFFCURVE",
"672 768 OFFCURVE",
"672 790 CURVE SMOOTH"
);
}
);
width = 606;
}
);
note = Adieresis;
unicode = 00C4;
},
{
glyphname = Agrave;
lastChange = "2021-07-01 20:46:56 +0000";
layers = (
{
background = {
paths = (
{
closed = 1;
nodes = (
"734 678 OFFCURVE",
"735 681 OFFCURVE",
"735 684 CURVE SMOOTH",
"735 694 OFFCURVE",
"723 699 OFFCURVE",
"700 699 CURVE SMOOTH",
"642 699 OFFCURVE",
"568 668 OFFCURVE",
"479 606 CURVE SMOOTH",
"411 559 OFFCURVE",
"346 503 OFFCURVE",
"283 438 CURVE",
"226 510 OFFCURVE",
"172 546 OFFCURVE",
"120 546 CURVE SMOOTH",
"92 546 OFFCURVE",
"69 534 OFFCURVE",
"51 511 CURVE SMOOTH",
"34 488 OFFCURVE",
"25 458 OFFCURVE",
"25 419 CURVE SMOOTH",
"25 353 OFFCURVE",
"49 283 OFFCURVE",
"98 208 CURVE",
"69 165 OFFCURVE",
"41 123 OFFCURVE",
"12 81 CURVE SMOOTH",
"-32 17 OFFCURVE",
"-73 -31 OFFCURVE",
"-109 -66 CURVE SMOOTH",
"-157 -113 OFFCURVE",
"-199 -137 OFFCURVE",
"-235 -137 CURVE SMOOTH",
"-258 -137 OFFCURVE",
"-272 -130 OFFCURVE",
"-276 -115 CURVE",
"-267 -124 OFFCURVE",
"-256 -129 OFFCURVE",
"-243 -129 CURVE SMOOTH",
"-230 -129 OFFCURVE",
"-218 -124 OFFCURVE",
"-207 -114 CURVE SMOOTH",
"-195 -104 OFFCURVE",
"-188 -89 OFFCURVE",
"-188 -73 CURVE SMOOTH",
"-188 -63 OFFCURVE",
"-193 -53 OFFCURVE",
"-200 -45 CURVE SMOOTH",
"-209 -36 OFFCURVE",
"-220 -31 OFFCURVE",
"-233 -31 CURVE SMOOTH",
"-251 -31 OFFCURVE",
"-266 -39 OFFCURVE",
"-279 -54 CURVE SMOOTH",
"-291 -69 OFFCURVE",
"-297 -85 OFFCURVE",
"-297 -104 CURVE SMOOTH",
"-297 -125 OFFCURVE",
"-288 -141 OFFCURVE",
"-270 -151 CURVE SMOOTH",
"-257 -159 OFFCURVE",
"-240 -163 OFFCURVE",
"-221 -163 CURVE SMOOTH",
"-208 -163 OFFCURVE",
"-195 -161 OFFCURVE",
"-182 -157 CURVE SMOOTH",
"-143 -147 OFFCURVE",
"-96 -108 OFFCURVE",
"-41 -40 CURVE SMOOTH",
"-26 -21 OFFCURVE",
"26 52 OFFCURVE",
"117 180 CURVE",
"153 131 OFFCURVE",
"195 83 OFFCURVE",
"244 38 CURVE SMOOTH",
"288 -3 OFFCURVE",
"328 -35 OFFCURVE",
"365 -57 CURVE SMOOTH",
"369 -59 OFFCURVE",
"372 -60 OFFCURVE",
"374 -60 CURVE SMOOTH",
"378 -60 OFFCURVE",
"380 -58 OFFCURVE",
"380 -52 CURVE SMOOTH",
"380 -49 OFFCURVE",
"378 -45 OFFCURVE",
"373 -42 CURVE SMOOTH",
"276 25 OFFCURVE",
"196 107 OFFCURVE",
"135 205 CURVE",
"188 279 OFFCURVE",
"235 339 OFFCURVE",
"278 385 CURVE",
"339 308 OFFCURVE",
"379 214 OFFCURVE",
"397 105 CURVE",
"400 64 OFFCURVE",
"414 33 OFFCURVE",
"440 10 CURVE SMOOTH",
"460 -7 OFFCURVE",
"482 -16 OFFCURVE",
"505 -16 CURVE SMOOTH",
"541 -16 OFFCURVE",
"579 11 OFFCURVE",
"616 70 CURVE SMOOTH",
"624 82 OFFCURVE",
"645 126 OFFCURVE",
"683 201 CURVE SMOOTH",
"686 207 OFFCURVE",
"688 212 OFFCURVE",
"688 217 CURVE SMOOTH",
"688 221 OFFCURVE",
"686 224 OFFCURVE",
"684 224 CURVE SMOOTH",
"684 224 OFFCURVE",
"683 224 OFFCURVE",
"683 224 CURVE SMOOTH",
"679 223 OFFCURVE",
"675 219 OFFCURVE",
"672 212 CURVE SMOOTH",
"609 81 OFFCURVE",
"560 16 OFFCURVE",
"526 16 CURVE SMOOTH",
"492 16 OFFCURVE",
"475 37 OFFCURVE",
"475 79 CURVE SMOOTH",
"475 92 OFFCURVE",
"477 108 OFFCURVE",
"480 127 CURVE SMOOTH",
"498 222 OFFCURVE",
"582 405 OFFCURVE",
"732 674 CURVE SMOOTH"
);
},
{
closed = 1;
nodes = (
"565 484 OFFCURVE",
"507 390 OFFCURVE",
"450 289 CURVE SMOOTH",
"427 249 OFFCURVE",
"412 211 OFFCURVE",
"404 176 CURVE",
"382 266 OFFCURVE",
"348 344 OFFCURVE",
"303 411 CURVE",
"344 452 OFFCURVE",
"392 493 OFFCURVE",
"449 533 CURVE SMOOTH",
"521 583 OFFCURVE",
"576 607 OFFCURVE",
"614 607 CURVE SMOOTH",
"627 607 OFFCURVE",
"633 603 OFFCURVE",
"633 594 CURVE SMOOTH",
"633 587 OFFCURVE",
"630 579 OFFCURVE",
"623 569 CURVE SMOOTH"
);
},
{
closed = 1;
nodes = (
"215 365 OFFCURVE",
"169 306 OFFCURVE",
"117 235 CURVE",
"92 284 OFFCURVE",
"79 332 OFFCURVE",
"79 378 CURVE SMOOTH",
"79 407 OFFCURVE",
"85 431 OFFCURVE",
"97 450 CURVE SMOOTH",
"108 468 OFFCURVE",
"124 477 OFFCURVE",
"144 477 CURVE SMOOTH",
"177 477 OFFCURVE",
"214 455 OFFCURVE",
"256 410 CURVE"
);
},
{
closed = 1;
nodes = (
"773 750 OFFCURVE",
"748 772 OFFCURVE",
"697 812 CURVE SMOOTH",
"646 852 OFFCURVE",
"617 872 OFFCURVE",
"608 872 CURVE SMOOTH",
"595 872 OFFCURVE",
"589 865 OFFCURVE",
"589 851 CURVE SMOOTH",
"589 833 OFFCURVE",
"601 818 OFFCURVE",
"626 805 CURVE SMOOTH",
"650 793 OFFCURVE",
"674 781 OFFCURVE",
"698 768 CURVE SMOOTH",
"737 747 OFFCURVE",
"759 737 OFFCURVE",
"763 737 CURVE SMOOTH",
"770 737 OFFCURVE",
"773 740 OFFCURVE",
"773 746 CURVE SMOOTH"
);
}
);
};
hints = (
{
horizontal = 1;
place = "{-164, 26}";
type = Stem;
},
{
horizontal = 1;
place = "{-130, 98}";
type = Stem;
},
{
horizontal = 1;
place = "{478, 70}";
type = Stem;
},
{
horizontal = 1;
place = "{700, -20}";
target = down;
type = TopGhost;
},
{
place = "{26, 54}";
type = Stem;
},
{
place = "{256, 48}";
type = Stem;
}
);
layerId = "3191725B-F824-48C7-90A0-BAE99CBF9356";
paths = (
{
closed = 1;
nodes = (
"734 678 OFFCURVE",
"735 681 OFFCURVE",
"735 684 CURVE SMOOTH",
"735 694 OFFCURVE",
"723 699 OFFCURVE",
"700 699 CURVE SMOOTH",
"642 699 OFFCURVE",
"568 668 OFFCURVE",
"479 606 CURVE SMOOTH",
"411 559 OFFCURVE",
"346 503 OFFCURVE",
"283 438 CURVE",
"226 510 OFFCURVE",
"172 546 OFFCURVE",
"120 546 CURVE SMOOTH",
"92 546 OFFCURVE",
"69 534 OFFCURVE",
"51 511 CURVE SMOOTH",
"34 488 OFFCURVE",
"25 458 OFFCURVE",
"25 419 CURVE SMOOTH",
"25 353 OFFCURVE",
"49 283 OFFCURVE",
"98 208 CURVE",
"69 165 OFFCURVE",
"41 123 OFFCURVE",
"12 81 CURVE SMOOTH",
"-32 17 OFFCURVE",
"-73 -31 OFFCURVE",
"-109 -66 CURVE SMOOTH",
"-157 -113 OFFCURVE",
"-199 -137 OFFCURVE",
"-235 -137 CURVE SMOOTH",
"-258 -137 OFFCURVE",
"-272 -130 OFFCURVE",
"-276 -115 CURVE",
"-267 -124 OFFCURVE",
"-256 -129 OFFCURVE",
"-243 -129 CURVE SMOOTH",
"-230 -129 OFFCURVE",
"-218 -124 OFFCURVE",
"-207 -114 CURVE SMOOTH",
"-195 -104 OFFCURVE",
"-188 -89 OFFCURVE",
"-188 -73 CURVE SMOOTH",
"-188 -63 OFFCURVE",
"-193 -53 OFFCURVE",
"-200 -45 CURVE SMOOTH",
"-209 -36 OFFCURVE",
"-220 -31 OFFCURVE",
"-233 -31 CURVE SMOOTH",
"-251 -31 OFFCURVE",
"-266 -39 OFFCURVE",
"-279 -54 CURVE SMOOTH",
"-291 -69 OFFCURVE",
"-297 -85 OFFCURVE",
"-297 -104 CURVE SMOOTH",
"-297 -125 OFFCURVE",
"-288 -141 OFFCURVE",
"-270 -151 CURVE SMOOTH",
"-257 -159 OFFCURVE",
"-240 -163 OFFCURVE",
"-221 -163 CURVE SMOOTH",
"-208 -163 OFFCURVE",
"-195 -161 OFFCURVE",
"-182 -157 CURVE SMOOTH",
"-143 -147 OFFCURVE",
"-96 -108 OFFCURVE",
"-41 -40 CURVE SMOOTH",
"-26 -21 OFFCURVE",
"26 52 OFFCURVE",
"117 180 CURVE",
"153 131 OFFCURVE",
"195 83 OFFCURVE",
"244 38 CURVE SMOOTH",
"288 -3 OFFCURVE",
"328 -35 OFFCURVE",
"365 -57 CURVE SMOOTH",
"369 -59 OFFCURVE",
"372 -60 OFFCURVE",
"374 -60 CURVE SMOOTH",
"378 -60 OFFCURVE",
"380 -58 OFFCURVE",
"380 -52 CURVE SMOOTH",
"380 -49 OFFCURVE",
"378 -45 OFFCURVE",
"373 -42 CURVE SMOOTH",
"276 25 OFFCURVE",
"196 107 OFFCURVE",
"135 205 CURVE",
"188 279 OFFCURVE",
"235 339 OFFCURVE",
"278 385 CURVE",
"339 308 OFFCURVE",
"379 214 OFFCURVE",
"397 105 CURVE",
"400 64 OFFCURVE",
"414 33 OFFCURVE",
"440 10 CURVE SMOOTH",
"460 -7 OFFCURVE",
"482 -16 OFFCURVE",
"505 -16 CURVE SMOOTH",
"541 -16 OFFCURVE",
"579 11 OFFCURVE",
"616 70 CURVE SMOOTH",
"624 82 OFFCURVE",
"645 126 OFFCURVE",
"683 201 CURVE SMOOTH",
"686 207 OFFCURVE",
"688 212 OFFCURVE",
"688 217 CURVE SMOOTH",
"688 221 OFFCURVE",
"686 224 OFFCURVE",
"684 224 CURVE SMOOTH",
"684 224 OFFCURVE",
"683 224 OFFCURVE",
"683 224 CURVE SMOOTH",
"679 223 OFFCURVE",
"675 219 OFFCURVE",
"672 212 CURVE SMOOTH",
"609 81 OFFCURVE",
"560 16 OFFCURVE",
"526 16 CURVE SMOOTH",
"492 16 OFFCURVE",
"475 37 OFFCURVE",
"475 79 CURVE SMOOTH",
"475 92 OFFCURVE",
"477 108 OFFCURVE",
"480 127 CURVE SMOOTH",
"498 222 OFFCURVE",
"582 405 OFFCURVE",
"732 674 CURVE SMOOTH"
);
},
{
closed = 1;
nodes = (
"565 484 OFFCURVE",
"507 390 OFFCURVE",
"450 289 CURVE SMOOTH",
"427 249 OFFCURVE",
"412 211 OFFCURVE",
"404 176 CURVE",
"382 266 OFFCURVE",
"348 344 OFFCURVE",
"303 411 CURVE",
"344 452 OFFCURVE",
"392 493 OFFCURVE",
"449 533 CURVE SMOOTH",
"521 583 OFFCURVE",
"576 607 OFFCURVE",
"614 607 CURVE SMOOTH",
"627 607 OFFCURVE",
"633 603 OFFCURVE",
"633 594 CURVE SMOOTH",
"633 587 OFFCURVE",
"630 579 OFFCURVE",
"623 569 CURVE SMOOTH"
);
},
{
closed = 1;
nodes = (
"215 365 OFFCURVE",
"169 306 OFFCURVE",
"117 235 CURVE",
"92 284 OFFCURVE",
"79 332 OFFCURVE",
"79 378 CURVE SMOOTH",
"79 407 OFFCURVE",
"85 431 OFFCURVE",
"97 450 CURVE SMOOTH",
"108 468 OFFCURVE",
"124 477 OFFCURVE",
"144 477 CURVE SMOOTH",
"177 477 OFFCURVE",
"214 455 OFFCURVE",
"256 410 CURVE"
);
},
{
closed = 1;
nodes = (
"773 750 OFFCURVE",
"748 772 OFFCURVE",
"697 812 CURVE SMOOTH",
"646 852 OFFCURVE",
"617 872 OFFCURVE",
"608 872 CURVE SMOOTH",
"595 872 OFFCURVE",
"589 865 OFFCURVE",
"589 851 CURVE SMOOTH",
"589 833 OFFCURVE",
"601 818 OFFCURVE",
"626 805 CURVE SMOOTH",
"650 793 OFFCURVE",
"674 781 OFFCURVE",
"698 768 CURVE SMOOTH",
"737 747 OFFCURVE",
"759 737 OFFCURVE",
"763 737 CURVE SMOOTH",
"770 737 OFFCURVE",
"773 740 OFFCURVE",
"773 746 CURVE SMOOTH"
);
}
);
width = 606;
}
);
note = Agrave;
unicode = 00C0;
},
{
glyphname = Atilde;
lastChange = "2021-07-01 20:46:56 +0000";
layers = (
{
background = {
paths = (
{
closed = 1;
nodes = (
"734 678 OFFCURVE",
"735 681 OFFCURVE",
"735 684 CURVE SMOOTH",
"735 694 OFFCURVE",
"723 699 OFFCURVE",
"700 699 CURVE SMOOTH",
"642 699 OFFCURVE",
"568 668 OFFCURVE",
"479 606 CURVE SMOOTH",
"411 559 OFFCURVE",
"346 503 OFFCURVE",
"283 438 CURVE",
"226 510 OFFCURVE",
"172 546 OFFCURVE",
"120 546 CURVE SMOOTH",
"92 546 OFFCURVE",
"69 534 OFFCURVE",
"51 511 CURVE SMOOTH",
"34 488 OFFCURVE",
"25 458 OFFCURVE",
"25 419 CURVE SMOOTH",
"25 353 OFFCURVE",
"49 283 OFFCURVE",
"98 208 CURVE",
"69 165 OFFCURVE",
"41 123 OFFCURVE",
"12 81 CURVE SMOOTH",
"-32 17 OFFCURVE",
"-73 -31 OFFCURVE",
"-109 -66 CURVE SMOOTH",
"-157 -113 OFFCURVE",
"-199 -137 OFFCURVE",
"-235 -137 CURVE SMOOTH",
"-258 -137 OFFCURVE",
"-272 -130 OFFCURVE",
"-276 -115 CURVE",
"-267 -124 OFFCURVE",
"-256 -129 OFFCURVE",
"-243 -129 CURVE SMOOTH",
"-230 -129 OFFCURVE",
"-218 -124 OFFCURVE",
"-207 -114 CURVE SMOOTH",
"-195 -104 OFFCURVE",
"-188 -89 OFFCURVE",
"-188 -73 CURVE SMOOTH",
"-188 -63 OFFCURVE",
"-193 -53 OFFCURVE",
"-200 -45 CURVE SMOOTH",
"-209 -36 OFFCURVE",
"-220 -31 OFFCURVE",
"-233 -31 CURVE SMOOTH",
"-251 -31 OFFCURVE",
"-266 -39 OFFCURVE",
"-279 -54 CURVE SMOOTH",
"-291 -69 OFFCURVE",
"-297 -85 OFFCURVE",
"-297 -104 CURVE SMOOTH",
"-297 -125 OFFCURVE",
"-288 -141 OFFCURVE",
"-270 -151 CURVE SMOOTH",
"-257 -159 OFFCURVE",
"-240 -163 OFFCURVE",
"-221 -163 CURVE SMOOTH",
"-208 -163 OFFCURVE",
"-195 -161 OFFCURVE",
"-182 -157 CURVE SMOOTH",
"-143 -147 OFFCURVE",
"-96 -108 OFFCURVE",
"-41 -40 CURVE SMOOTH",
"-26 -21 OFFCURVE",
"26 52 OFFCURVE",
"117 180 CURVE",
"153 131 OFFCURVE",
"195 83 OFFCURVE",
"244 38 CURVE SMOOTH",
"288 -3 OFFCURVE",
"328 -35 OFFCURVE",
"365 -57 CURVE SMOOTH",
"369 -59 OFFCURVE",
"372 -60 OFFCURVE",
"374 -60 CURVE SMOOTH",
"378 -60 OFFCURVE",
"380 -58 OFFCURVE",
"380 -52 CURVE SMOOTH",
"380 -49 OFFCURVE",
"378 -45 OFFCURVE",
"373 -42 CURVE SMOOTH",
"276 25 OFFCURVE",
"196 107 OFFCURVE",
"135 205 CURVE",
"188 279 OFFCURVE",
"235 339 OFFCURVE",
"278 385 CURVE",
"339 308 OFFCURVE",
"379 214 OFFCURVE",
"397 105 CURVE",
"400 64 OFFCURVE",
"414 33 OFFCURVE",
"440 10 CURVE SMOOTH",
"460 -7 OFFCURVE",
"482 -16 OFFCURVE",
"505 -16 CURVE SMOOTH",
"541 -16 OFFCURVE",
"579 11 OFFCURVE",
"616 70 CURVE SMOOTH",
"624 82 OFFCURVE",
"645 126 OFFCURVE",
"683 201 CURVE SMOOTH",
"686 207 OFFCURVE",
"688 212 OFFCURVE",
"688 217 CURVE SMOOTH",
"688 221 OFFCURVE",
"686 224 OFFCURVE",
"684 224 CURVE SMOOTH",
"684 224 OFFCURVE",
"683 224 OFFCURVE",
"683 224 CURVE SMOOTH",
"679 223 OFFCURVE",
"675 219 OFFCURVE",
"672 212 CURVE SMOOTH",
"609 81 OFFCURVE",
"560 16 OFFCURVE",
"526 16 CURVE SMOOTH",
"492 16 OFFCURVE",
"475 37 OFFCURVE",
"475 79 CURVE SMOOTH",
"475 92 OFFCURVE",
"477 108 OFFCURVE",
"480 127 CURVE SMOOTH",
"498 222 OFFCURVE",
"582 405 OFFCURVE",
"732 674 CURVE SMOOTH"
);
},
{
closed = 1;
nodes = (
"565 484 OFFCURVE",
"507 390 OFFCURVE",
"450 289 CURVE SMOOTH",
"427 249 OFFCURVE",
"412 211 OFFCURVE",
"404 176 CURVE",
"382 266 OFFCURVE",
"348 344 OFFCURVE",
"303 411 CURVE",
"344 452 OFFCURVE",
"392 493 OFFCURVE",
"449 533 CURVE SMOOTH",
"521 583 OFFCURVE",
"576 607 OFFCURVE",
"614 607 CURVE SMOOTH",
"627 607 OFFCURVE",
"633 603 OFFCURVE",
"633 594 CURVE SMOOTH",
"633 587 OFFCURVE",
"630 579 OFFCURVE",
"623 569 CURVE SMOOTH"
);
},
{
closed = 1;
nodes = (
"215 365 OFFCURVE",
"169 306 OFFCURVE",
"117 235 CURVE",
"92 284 OFFCURVE",
"79 332 OFFCURVE",
"79 378 CURVE SMOOTH",
"79 407 OFFCURVE",
"85 431 OFFCURVE",
"97 450 CURVE SMOOTH",
"108 468 OFFCURVE",
"124 477 OFFCURVE",
"144 477 CURVE SMOOTH",
"177 477 OFFCURVE",
"214 455 OFFCURVE",
"256 410 CURVE"
);
},
{
closed = 1;
nodes = (
"874 849 OFFCURVE",
"869 851 OFFCURVE",
"858 851 CURVE SMOOTH",
"854 851 OFFCURVE",
"853 850 OFFCURVE",
"852 848 CURVE SMOOTH",
"841 825 OFFCURVE",
"825 813 OFFCURVE",
"802 813 CURVE SMOOTH",
"790 813 OFFCURVE",
"768 818 OFFCURVE",
"737 831 CURVE SMOOTH",
"708 843 OFFCURVE",
"686 849 OFFCURVE",
"670 849 CURVE SMOOTH",
"637 849 OFFCURVE",
"606 824 OFFCURVE",
"578 774 CURVE",
"577 770 OFFCURVE",
"581 769 OFFCURVE",
"593 769 CURVE SMOOTH",
"598 769 OFFCURVE",
"600 770 OFFCURVE",
"601 772 CURVE",
"613 794 OFFCURVE",
"629 805 OFFCURVE",
"648 805 CURVE SMOOTH",
"661 805 OFFCURVE",
"682 800 OFFCURVE",
"713 786 CURVE SMOOTH",
"744 772 OFFCURVE",
"766 766 OFFCURVE",
"780 766 CURVE SMOOTH",
"815 766 OFFCURVE",
"846 792 OFFCURVE",
"873 846 CURVE SMOOTH"
);
}
);
};
hints = (
{
horizontal = 1;
place = "{-164, 26}";
type = Stem;
},
{
horizontal = 1;
place = "{-130, 98}";
type = Stem;
},
{
horizontal = 1;
place = "{478, 70}";
type = Stem;
},
{
horizontal = 1;
place = "{700, -20}";
target = down;
type = TopGhost;
},
{
place = "{26, 54}";
type = Stem;
},
{
place = "{256, 48}";
type = Stem;
},
{
horizontal = 1;
place = "{806, 44}";
type = Stem;
}
);
layerId = "3191725B-F824-48C7-90A0-BAE99CBF9356";
paths = (
{
closed = 1;
nodes = (
"734 678 OFFCURVE",
"735 681 OFFCURVE",
"735 684 CURVE SMOOTH",
"735 694 OFFCURVE",
"723 699 OFFCURVE",
"700 699 CURVE SMOOTH",
"642 699 OFFCURVE",
"568 668 OFFCURVE",
"479 606 CURVE SMOOTH",
"411 559 OFFCURVE",
"346 503 OFFCURVE",
"283 438 CURVE",
"226 510 OFFCURVE",
"172 546 OFFCURVE",
"120 546 CURVE SMOOTH",
"92 546 OFFCURVE",
"69 534 OFFCURVE",
"51 511 CURVE SMOOTH",
"34 488 OFFCURVE",
"25 458 OFFCURVE",
"25 419 CURVE SMOOTH",
"25 353 OFFCURVE",
"49 283 OFFCURVE",
"98 208 CURVE",
"69 165 OFFCURVE",
"41 123 OFFCURVE",
"12 81 CURVE SMOOTH",
"-32 17 OFFCURVE",
"-73 -31 OFFCURVE",
"-109 -66 CURVE SMOOTH",
"-157 -113 OFFCURVE",
"-199 -137 OFFCURVE",
"-235 -137 CURVE SMOOTH",
"-258 -137 OFFCURVE",
"-272 -130 OFFCURVE",
"-276 -115 CURVE",
"-267 -124 OFFCURVE",
"-256 -129 OFFCURVE",
"-243 -129 CURVE SMOOTH",
"-230 -129 OFFCURVE",
"-218 -124 OFFCURVE",
"-207 -114 CURVE SMOOTH",
"-195 -104 OFFCURVE",
"-188 -89 OFFCURVE",
"-188 -73 CURVE SMOOTH",
"-188 -63 OFFCURVE",
"-193 -53 OFFCURVE",
"-200 -45 CURVE SMOOTH",
"-209 -36 OFFCURVE",
"-220 -31 OFFCURVE",
"-233 -31 CURVE SMOOTH",
"-251 -31 OFFCURVE",
"-266 -39 OFFCURVE",
"-279 -54 CURVE SMOOTH",
"-291 -69 OFFCURVE",
"-297 -85 OFFCURVE",
"-297 -104 CURVE SMOOTH",
"-297 -125 OFFCURVE",
"-288 -141 OFFCURVE",
"-270 -151 CURVE SMOOTH",
"-257 -159 OFFCURVE",
"-240 -163 OFFCURVE",
"-221 -163 CURVE SMOOTH",
"-208 -163 OFFCURVE",
"-195 -161 OFFCURVE",
"-182 -157 CURVE SMOOTH",
"-143 -147 OFFCURVE",
"-96 -108 OFFCURVE",
"-41 -40 CURVE SMOOTH",
"-26 -21 OFFCURVE",
"26 52 OFFCURVE",
"117 180 CURVE",
"153 131 OFFCURVE",
"195 83 OFFCURVE",
"244 38 CURVE SMOOTH",
"288 -3 OFFCURVE",
"328 -35 OFFCURVE",
"365 -57 CURVE SMOOTH",
"369 -59 OFFCURVE",
"372 -60 OFFCURVE",
"374 -60 CURVE SMOOTH",
"378 -60 OFFCURVE",
"380 -58 OFFCURVE",
"380 -52 CURVE SMOOTH",
"380 -49 OFFCURVE",
"378 -45 OFFCURVE",
"373 -42 CURVE SMOOTH",
"276 25 OFFCURVE",
"196 107 OFFCURVE",
"135 205 CURVE",
"188 279 OFFCURVE",
"235 339 OFFCURVE",
"278 385 CURVE",
"339 308 OFFCURVE",
"379 214 OFFCURVE",
"397 105 CURVE",
"400 64 OFFCURVE",
"414 33 OFFCURVE",
"440 10 CURVE SMOOTH",
"460 -7 OFFCURVE",
"482 -16 OFFCURVE",
"505 -16 CURVE SMOOTH",
"541 -16 OFFCURVE",
"579 11 OFFCURVE",
"616 70 CURVE SMOOTH",
"624 82 OFFCURVE",
"645 126 OFFCURVE",
"683 201 CURVE SMOOTH",
"686 207 OFFCURVE",
"688 212 OFFCURVE",
"688 217 CURVE SMOOTH",
"688 221 OFFCURVE",
"686 224 OFFCURVE",
"684 224 CURVE SMOOTH",
"684 224 OFFCURVE",
"683 224 OFFCURVE",
"683 224 CURVE SMOOTH",
"679 223 OFFCURVE",
"675 219 OFFCURVE",
"672 212 CURVE SMOOTH",
"609 81 OFFCURVE",
"560 16 OFFCURVE",
"526 16 CURVE SMOOTH",
"492 16 OFFCURVE",
"475 37 OFFCURVE",
"475 79 CURVE SMOOTH",
"475 92 OFFCURVE",
"477 108 OFFCURVE",
"480 127 CURVE SMOOTH",
"498 222 OFFCURVE",
"582 405 OFFCURVE",
"732 674 CURVE SMOOTH"
);
},
{
closed = 1;
nodes = (
"565 484 OFFCURVE",
"507 390 OFFCURVE",
"450 289 CURVE SMOOTH",
"427 249 OFFCURVE",
"412 211 OFFCURVE",
"404 176 CURVE",
"382 266 OFFCURVE",
"348 344 OFFCURVE",
"303 411 CURVE",
"344 452 OFFCURVE",
"392 493 OFFCURVE",
"449 533 CURVE SMOOTH",
"521 583 OFFCURVE",
"576 607 OFFCURVE",
"614 607 CURVE SMOOTH",
"627 607 OFFCURVE",
"633 603 OFFCURVE",
"633 594 CURVE SMOOTH",
"633 587 OFFCURVE",
"630 579 OFFCURVE",
"623 569 CURVE SMOOTH"
);
},
{
closed = 1;
nodes = (
"215 365 OFFCURVE",
"169 306 OFFCURVE",
"117 235 CURVE",
"92 284 OFFCURVE",
"79 332 OFFCURVE",
"79 378 CURVE SMOOTH",
"79 407 OFFCURVE",
"85 431 OFFCURVE",
"97 450 CURVE SMOOTH",
"108 468 OFFCURVE",
"124 477 OFFCURVE",
"144 477 CURVE SMOOTH",
"177 477 OFFCURVE",
"214 455 OFFCURVE",
"256 410 CURVE"
);
},
{
closed = 1;
nodes = (
"874 849 OFFCURVE",
"869 851 OFFCURVE",
"858 851 CURVE SMOOTH",
"854 851 OFFCURVE",
"853 850 OFFCURVE",
"852 848 CURVE SMOOTH",
"841 825 OFFCURVE",
"825 813 OFFCURVE",
"802 813 CURVE SMOOTH",
"790 813 OFFCURVE",
"768 818 OFFCURVE",
"737 831 CURVE SMOOTH",
"708 843 OFFCURVE",
"686 849 OFFCURVE",
"670 849 CURVE SMOOTH",
"637 849 OFFCURVE",
"606 824 OFFCURVE",
"578 774 CURVE",
"577 770 OFFCURVE",
"581 769 OFFCURVE",
"593 769 CURVE SMOOTH",
"598 769 OFFCURVE",
"600 770 OFFCURVE",
"601 772 CURVE",
"613 794 OFFCURVE",
"629 805 OFFCURVE",
"648 805 CURVE SMOOTH",
"661 805 OFFCURVE",
"682 800 OFFCURVE",
"713 786 CURVE SMOOTH",
"744 772 OFFCURVE",
"766 766 OFFCURVE",
"780 766 CURVE SMOOTH",
"815 766 OFFCURVE",
"846 792 OFFCURVE",
"873 846 CURVE SMOOTH"
);
}
);
width = 606;
}
);
note = Atilde;
unicode = 00C3;
},
{
glyphname = AE;
lastChange = "2021-07-01 20:46:56 +0000";
layers = (
{
background = {
paths = (
{
closed = 1;
nodes = (
"1027 526 OFFCURVE",
"1054 564 OFFCURVE",
"1054 603 CURVE SMOOTH",
"1054 627 OFFCURVE",
"1043 647 OFFCURVE",
"1020 662 CURVE SMOOTH",
"998 677 OFFCURVE",
"969 685 OFFCURVE",
"932 685 CURVE SMOOTH",
"916 685 OFFCURVE",
"899 684 OFFCURVE",
"882 681 CURVE SMOOTH",
"795 666 OFFCURVE",
"730 635 OFFCURVE",
"685 588 CURVE",
"701 618 OFFCURVE",
"717 647 OFFCURVE",
"732 674 CURVE SMOOTH",
"734 678 OFFCURVE",
"735 681 OFFCURVE",
"735 684 CURVE SMOOTH",
"735 694 OFFCURVE",
"723 699 OFFCURVE",
"700 699 CURVE SMOOTH",
"642 699 OFFCURVE",
"568 668 OFFCURVE",
"479 606 CURVE SMOOTH",
"411 559 OFFCURVE",
"345 503 OFFCURVE",
"282 438 CURVE",
"226 510 OFFCURVE",
"172 546 OFFCURVE",
"120 546 CURVE SMOOTH",
"91 546 OFFCURVE",
"68 534 OFFCURVE",
"51 511 CURVE SMOOTH",
"34 488 OFFCURVE",
"25 458 OFFCURVE",
"25 419 CURVE SMOOTH",
"25 353 OFFCURVE",
"49 283 OFFCURVE",
"98 208 CURVE",
"69 165 OFFCURVE",
"41 123 OFFCURVE",
"12 81 CURVE SMOOTH",
"-33 17 OFFCURVE",
"-74 -31 OFFCURVE",
"-109 -66 CURVE SMOOTH",
"-157 -113 OFFCURVE",
"-199 -137 OFFCURVE",
"-235 -137 CURVE SMOOTH",
"-258 -137 OFFCURVE",
"-272 -130 OFFCURVE",
"-276 -115 CURVE",
"-267 -124 OFFCURVE",
"-256 -129 OFFCURVE",
"-243 -129 CURVE SMOOTH",
"-230 -129 OFFCURVE",
"-218 -124 OFFCURVE",
"-207 -114 CURVE SMOOTH",
"-196 -104 OFFCURVE",
"-190 -90 OFFCURVE",
"-190 -75 CURVE SMOOTH",
"-190 -64 OFFCURVE",
"-193 -54 OFFCURVE",
"-201 -45 CURVE SMOOTH",
"-209 -36 OFFCURVE",
"-220 -31 OFFCURVE",
"-233 -31 CURVE SMOOTH",
"-251 -31 OFFCURVE",
"-266 -39 OFFCURVE",
"-279 -54 CURVE SMOOTH",
"-291 -69 OFFCURVE",
"-297 -85 OFFCURVE",
"-297 -104 CURVE SMOOTH",
"-297 -125 OFFCURVE",
"-288 -141 OFFCURVE",
"-270 -151 CURVE SMOOTH",
"-257 -159 OFFCURVE",
"-240 -163 OFFCURVE",
"-221 -163 CURVE SMOOTH",
"-208 -163 OFFCURVE",
"-195 -161 OFFCURVE",
"-182 -157 CURVE SMOOTH",
"-143 -147 OFFCURVE",
"-96 -108 OFFCURVE",
"-41 -40 CURVE SMOOTH",
"-26 -21 OFFCURVE",
"26 52 OFFCURVE",
"117 180 CURVE",
"153 131 OFFCURVE",
"195 83 OFFCURVE",
"244 38 CURVE SMOOTH",
"288 -3 OFFCURVE",
"328 -35 OFFCURVE",
"365 -57 CURVE SMOOTH",
"369 -59 OFFCURVE",
"372 -60 OFFCURVE",
"374 -60 CURVE SMOOTH",
"378 -60 OFFCURVE",
"380 -58 OFFCURVE",
"380 -52 CURVE SMOOTH",
"380 -49 OFFCURVE",
"378 -45 OFFCURVE",
"373 -42 CURVE SMOOTH",
"276 25 OFFCURVE",
"196 107 OFFCURVE",
"135 205 CURVE",
"188 279 OFFCURVE",
"235 339 OFFCURVE",
"277 385 CURVE",
"339 308 OFFCURVE",
"379 214 OFFCURVE",
"397 105 CURVE",
"401 50 OFFCURVE",
"426 8 OFFCURVE",
"473 -23 CURVE SMOOTH",
"514 -50 OFFCURVE",
"563 -63 OFFCURVE",
"620 -63 CURVE SMOOTH",
"704 -63 OFFCURVE",
"779 -36 OFFCURVE",
"846 17 CURVE SMOOTH",
"907 66 OFFCURVE",
"938 115 OFFCURVE",
"938 165 CURVE SMOOTH",
"938 218 OFFCURVE",
"899 244 OFFCURVE",
"822 244 CURVE SMOOTH",
"811 244 OFFCURVE",
"798 243 OFFCURVE",
"785 242 CURVE SMOOTH",
"731 237 OFFCURVE",
"677 213 OFFCURVE",
"622 172 CURVE SMOOTH",
"577 139 OFFCURVE",
"549 110 OFFCURVE",
"538 85 CURVE",
"537 81 OFFCURVE",
"538 78 OFFCURVE",
"542 76 CURVE SMOOTH",
"546 74 OFFCURVE",
"549 75 OFFCURVE",
"550 79 CURVE",
"559 99 OFFCURVE",
"589 127 OFFCURVE",
"638 161 CURVE SMOOTH",
"694 200 OFFCURVE",
"740 219 OFFCURVE",
"775 219 CURVE SMOOTH",
"849 219 OFFCURVE",
"886 195 OFFCURVE",
"886 147 CURVE SMOOTH",
"886 104 OFFCURVE",
"859 62 OFFCURVE",
"806 19 CURVE SMOOTH",
"749 -27 OFFCURVE",
"687 -50 OFFCURVE",
"620 -50 CURVE SMOOTH",
"575 -50 OFFCURVE",
"540 -34 OFFCURVE",
"515 -3 CURVE SMOOTH",
"492 26 OFFCURVE",
"481 63 OFFCURVE",
"481 108 CURVE SMOOTH",
"481 120 OFFCURVE",
"482 132 OFFCURVE",
"484 145 CURVE SMOOTH",
"491 174 OFFCURVE",
"504 210 OFFCURVE",
"522 255 CURVE",
"559 318 OFFCURVE",
"609 354 OFFCURVE",
"672 364 CURVE",
"695 341 OFFCURVE",
"724 329 OFFCURVE",
"758 329 CURVE SMOOTH",
"784 329 OFFCURVE",
"797 337 OFFCURVE",
"797 352 CURVE SMOOTH",
"797 368 OFFCURVE",
"785 377 OFFCURVE",
"761 379 CURVE SMOOTH",
"738 380 OFFCURVE",
"715 381 OFFCURVE",
"693 380 CURVE",
"689 389 OFFCURVE",
"686 399 OFFCURVE",
"685 411 CURVE",
"809 415 OFFCURVE",
"905 441 OFFCURVE",
"973 488 CURVE SMOOTH"
);
},
{
closed = 1;
nodes = (
"876 460 OFFCURVE",
"789 433 OFFCURVE",
"685 428 CURVE",
"689 481 OFFCURVE",
"716 531 OFFCURVE",
"767 576 CURVE SMOOTH",
"829 631 OFFCURVE",
"893 658 OFFCURVE",
"958 658 CURVE SMOOTH",
"1007 658 OFFCURVE",
"1031 643 OFFCURVE",
"1031 613 CURVE SMOOTH",
"1031 584 OFFCURVE",
"1003 549 OFFCURVE",
"946 509 CURVE SMOOTH"
);
},
{
closed = 1;
nodes = (
"624 428 OFFCURVE",
"613 428 OFFCURVE",
"602 428 CURVE",
"613 449 OFFCURVE",
"624 470 OFFCURVE",
"635 492 CURVE",
"633 482 OFFCURVE",
"632 472 OFFCURVE",
"632 462 CURVE SMOOTH",
"632 450 OFFCURVE",
"633 439 OFFCURVE",
"636 427 CURVE"
);
},
{
closed = 1;
nodes = (
"627 374 OFFCURVE",
"595 366 OFFCURVE",
"566 354 CURVE",
"575 373 OFFCURVE",
"584 392 OFFCURVE",
"595 413 CURVE",
"609 412 OFFCURVE",
"624 412 OFFCURVE",
"641 411 CURVE",
"646 399 OFFCURVE",
"652 388 OFFCURVE",
"660 377 CURVE"
);
},
{
closed = 1;
nodes = (
"588 518 OFFCURVE",
"561 477 OFFCURVE",
"543 448 CURVE",
"520 457 OFFCURVE",
"507 470 OFFCURVE",
"506 487 CURVE SMOOTH",
"505 494 OFFCURVE",
"502 497 OFFCURVE",
"497 497 CURVE SMOOTH",
"493 497 OFFCURVE",
"491 495 OFFCURVE",
"491 490 CURVE SMOOTH",
"491 489 OFFCURVE",
"491 488 OFFCURVE",
"491 487 CURVE SMOOTH",
"493 461 OFFCURVE",
"505 442 OFFCURVE",
"528 433 CURVE SMOOTH",
"533 431 LINE",
"512 398 OFFCURVE",
"485 351 OFFCURVE",
"450 289 CURVE SMOOTH",
"427 249 OFFCURVE",
"412 211 OFFCURVE",
"404 176 CURVE",
"382 266 OFFCURVE",
"348 344 OFFCURVE",
"302 411 CURVE",
"343 452 OFFCURVE",
"392 493 OFFCURVE",
"449 533 CURVE SMOOTH",
"521 583 OFFCURVE",
"576 607 OFFCURVE",
"614 607 CURVE SMOOTH",
"627 607 OFFCURVE",
"633 603 OFFCURVE",
"633 594 CURVE SMOOTH",
"633 587 OFFCURVE",
"630 579 OFFCURVE",
"623 569 CURVE SMOOTH"
);
},
{
closed = 1;
nodes = (
"215 365 OFFCURVE",
"168 306 OFFCURVE",
"117 235 CURVE",
"91 284 OFFCURVE",
"78 332 OFFCURVE",
"78 378 CURVE SMOOTH",
"78 407 OFFCURVE",
"84 431 OFFCURVE",
"96 450 CURVE SMOOTH",
"107 468 OFFCURVE",
"123 477 OFFCURVE",
"144 477 CURVE SMOOTH",
"177 477 OFFCURVE",
"214 455 OFFCURVE",
"256 410 CURVE"
);
}
);
};
hints = (
{
horizontal = 1;
place = "{-164, 26}";
type = Stem;
},
{
horizontal = 1;
place = "{-64, 14}";
type = Stem;
},
{
horizontal = 1;
place = "{220, 26}";
type = Stem;
},
{
horizontal = 1;
place = "{330, 50}";
type = Stem;
},
{
horizontal = 1;
place = "{412, 16}";
type = Stem;
},
{
horizontal = 1;
place = "{478, 70}";
type = Stem;
},
{
horizontal = 1;
place = "{658, 28}";
type = Stem;
},
{
place = "{-298, 108}";
type = Stem;
},
{
place = "{26, 54}";
type = Stem;
},
{
place = "{256, 46}";
type = Stem;
},
{
place = "{492, 16}";
type = Stem;
},
{
place = "{886, 52}";
type = Stem;
},
{
place = "{1032, 24}";
type = Stem;
}
);
layerId = "3191725B-F824-48C7-90A0-BAE99CBF9356";
paths = (
{
closed = 1;
nodes = (
"1027 526 OFFCURVE",
"1054 564 OFFCURVE",
"1054 603 CURVE SMOOTH",
"1054 627 OFFCURVE",
"1043 647 OFFCURVE",
"1020 662 CURVE SMOOTH",
"998 677 OFFCURVE",
"969 685 OFFCURVE",
"932 685 CURVE SMOOTH",
"916 685 OFFCURVE",
"899 684 OFFCURVE",
"882 681 CURVE SMOOTH",
"795 666 OFFCURVE",
"730 635 OFFCURVE",
"685 588 CURVE",
"701 618 OFFCURVE",
"717 647 OFFCURVE",
"732 674 CURVE SMOOTH",
"734 678 OFFCURVE",
"735 681 OFFCURVE",
"735 684 CURVE SMOOTH",
"735 694 OFFCURVE",
"723 699 OFFCURVE",
"700 699 CURVE SMOOTH",
"642 699 OFFCURVE",
"568 668 OFFCURVE",
"479 606 CURVE SMOOTH",
"411 559 OFFCURVE",
"345 503 OFFCURVE",
"282 438 CURVE",
"226 510 OFFCURVE",
"172 546 OFFCURVE",
"120 546 CURVE SMOOTH",
"91 546 OFFCURVE",
"68 534 OFFCURVE",
"51 511 CURVE SMOOTH",
"34 488 OFFCURVE",
"25 458 OFFCURVE",
"25 419 CURVE SMOOTH",
"25 353 OFFCURVE",
"49 283 OFFCURVE",
"98 208 CURVE",
"69 165 OFFCURVE",
"41 123 OFFCURVE",
"12 81 CURVE SMOOTH",
"-33 17 OFFCURVE",
"-74 -31 OFFCURVE",
"-109 -66 CURVE SMOOTH",
"-157 -113 OFFCURVE",
"-199 -137 OFFCURVE",
"-235 -137 CURVE SMOOTH",
"-258 -137 OFFCURVE",
"-272 -130 OFFCURVE",
"-276 -115 CURVE",
"-267 -124 OFFCURVE",
"-256 -129 OFFCURVE",
"-243 -129 CURVE SMOOTH",
"-230 -129 OFFCURVE",
"-218 -124 OFFCURVE",
"-207 -114 CURVE SMOOTH",
"-196 -104 OFFCURVE",
"-190 -90 OFFCURVE",
"-190 -75 CURVE SMOOTH",
"-190 -64 OFFCURVE",
"-193 -54 OFFCURVE",
"-201 -45 CURVE SMOOTH",
"-209 -36 OFFCURVE",
"-220 -31 OFFCURVE",
"-233 -31 CURVE SMOOTH",
"-251 -31 OFFCURVE",
"-266 -39 OFFCURVE",
"-279 -54 CURVE SMOOTH",
"-291 -69 OFFCURVE",
"-297 -85 OFFCURVE",
"-297 -104 CURVE SMOOTH",
"-297 -125 OFFCURVE",
"-288 -141 OFFCURVE",
"-270 -151 CURVE SMOOTH",
"-257 -159 OFFCURVE",
"-240 -163 OFFCURVE",
"-221 -163 CURVE SMOOTH",
"-208 -163 OFFCURVE",
"-195 -161 OFFCURVE",
"-182 -157 CURVE SMOOTH",
"-143 -147 OFFCURVE",
"-96 -108 OFFCURVE",
"-41 -40 CURVE SMOOTH",
"-26 -21 OFFCURVE",
"26 52 OFFCURVE",
"117 180 CURVE",
"153 131 OFFCURVE",
"195 83 OFFCURVE",
"244 38 CURVE SMOOTH",
"288 -3 OFFCURVE",
"328 -35 OFFCURVE",
"365 -57 CURVE SMOOTH",
"369 -59 OFFCURVE",
"372 -60 OFFCURVE",
"374 -60 CURVE SMOOTH",
"378 -60 OFFCURVE",
"380 -58 OFFCURVE",
"380 -52 CURVE SMOOTH",
"380 -49 OFFCURVE",
"378 -45 OFFCURVE",
"373 -42 CURVE SMOOTH",
"276 25 OFFCURVE",
"196 107 OFFCURVE",
"135 205 CURVE",
"188 279 OFFCURVE",
"235 339 OFFCURVE",
"277 385 CURVE",
"339 308 OFFCURVE",
"379 214 OFFCURVE",
"397 105 CURVE",
"401 50 OFFCURVE",
"426 8 OFFCURVE",
"473 -23 CURVE SMOOTH",
"514 -50 OFFCURVE",
"563 -63 OFFCURVE",
"620 -63 CURVE SMOOTH",
"704 -63 OFFCURVE",
"779 -36 OFFCURVE",
"846 17 CURVE SMOOTH",
"907 66 OFFCURVE",
"938 115 OFFCURVE",
"938 165 CURVE SMOOTH",
"938 218 OFFCURVE",
"899 244 OFFCURVE",
"822 244 CURVE SMOOTH",
"811 244 OFFCURVE",
"798 243 OFFCURVE",
"785 242 CURVE SMOOTH",
"731 237 OFFCURVE",
"677 213 OFFCURVE",
"622 172 CURVE SMOOTH",
"577 139 OFFCURVE",
"549 110 OFFCURVE",
"538 85 CURVE",
"537 81 OFFCURVE",
"538 78 OFFCURVE",
"542 76 CURVE SMOOTH",
"546 74 OFFCURVE",
"549 75 OFFCURVE",
"550 79 CURVE",
"559 99 OFFCURVE",
"589 127 OFFCURVE",
"638 161 CURVE SMOOTH",
"694 200 OFFCURVE",
"740 219 OFFCURVE",
"775 219 CURVE SMOOTH",
"849 219 OFFCURVE",
"886 195 OFFCURVE",
"886 147 CURVE SMOOTH",
"886 104 OFFCURVE",
"859 62 OFFCURVE",
"806 19 CURVE SMOOTH",
"749 -27 OFFCURVE",
"687 -50 OFFCURVE",
"620 -50 CURVE SMOOTH",
"575 -50 OFFCURVE",
"540 -34 OFFCURVE",
"515 -3 CURVE SMOOTH",
"492 26 OFFCURVE",
"481 63 OFFCURVE",
"481 108 CURVE SMOOTH",
"481 120 OFFCURVE",
"482 132 OFFCURVE",
"484 145 CURVE SMOOTH",
"491 174 OFFCURVE",
"504 210 OFFCURVE",
"522 255 CURVE",
"559 318 OFFCURVE",
"609 354 OFFCURVE",
"672 364 CURVE",
"695 341 OFFCURVE",
"724 329 OFFCURVE",
"758 329 CURVE SMOOTH",
"784 329 OFFCURVE",
"797 337 OFFCURVE",
"797 352 CURVE SMOOTH",
"797 368 OFFCURVE",
"785 377 OFFCURVE",
"761 379 CURVE SMOOTH",
"738 380 OFFCURVE",
"715 381 OFFCURVE",
"693 380 CURVE",
"689 389 OFFCURVE",
"686 399 OFFCURVE",
"685 411 CURVE",
"809 415 OFFCURVE",
"905 441 OFFCURVE",
"973 488 CURVE SMOOTH"
);
},
{
closed = 1;
nodes = (
"876 460 OFFCURVE",
"789 433 OFFCURVE",
"685 428 CURVE",
"689 481 OFFCURVE",
"716 531 OFFCURVE",
"767 576 CURVE SMOOTH",
"829 631 OFFCURVE",
"893 658 OFFCURVE",
"958 658 CURVE SMOOTH",
"1007 658 OFFCURVE",
"1031 643 OFFCURVE",
"1031 613 CURVE SMOOTH",
"1031 584 OFFCURVE",
"1003 549 OFFCURVE",
"946 509 CURVE SMOOTH"
);
},
{
closed = 1;
nodes = (
"624 428 OFFCURVE",
"613 428 OFFCURVE",
"602 428 CURVE",
"613 449 OFFCURVE",
"624 470 OFFCURVE",
"635 492 CURVE",
"633 482 OFFCURVE",
"632 472 OFFCURVE",
"632 462 CURVE SMOOTH",
"632 450 OFFCURVE",
"633 439 OFFCURVE",
"636 427 CURVE"
);
},
{
closed = 1;
nodes = (
"627 374 OFFCURVE",
"595 366 OFFCURVE",
"566 354 CURVE",
"575 373 OFFCURVE",
"584 392 OFFCURVE",
"595 413 CURVE",
"609 412 OFFCURVE",
"624 412 OFFCURVE",
"641 411 CURVE",
"646 399 OFFCURVE",
"652 388 OFFCURVE",
"660 377 CURVE"
);
},
{
closed = 1;
nodes = (
"588 518 OFFCURVE",
"561 477 OFFCURVE",
"543 448 CURVE",
"520 457 OFFCURVE",
"507 470 OFFCURVE",
"506 487 CURVE SMOOTH",
"505 494 OFFCURVE",
"502 497 OFFCURVE",
"497 497 CURVE SMOOTH",
"493 497 OFFCURVE",
"491 495 OFFCURVE",
"491 490 CURVE SMOOTH",
"491 489 OFFCURVE",
"491 488 OFFCURVE",
"491 487 CURVE SMOOTH",
"493 461 OFFCURVE",
"505 442 OFFCURVE",
"528 433 CURVE SMOOTH",
"533 431 LINE",
"512 398 OFFCURVE",
"485 351 OFFCURVE",
"450 289 CURVE SMOOTH",
"427 249 OFFCURVE",
"412 211 OFFCURVE",
"404 176 CURVE",
"382 266 OFFCURVE",
"348 344 OFFCURVE",
"302 411 CURVE",
"343 452 OFFCURVE",
"392 493 OFFCURVE",
"449 533 CURVE SMOOTH",
"521 583 OFFCURVE",
"576 607 OFFCURVE",
"614 607 CURVE SMOOTH",
"627 607 OFFCURVE",
"633 603 OFFCURVE",
"633 594 CURVE SMOOTH",
"633 587 OFFCURVE",
"630 579 OFFCURVE",
"623 569 CURVE SMOOTH"
);
},
{
closed = 1;
nodes = (
"215 365 OFFCURVE",
"168 306 OFFCURVE",
"117 235 CURVE",
"91 284 OFFCURVE",
"78 332 OFFCURVE",
"78 378 CURVE SMOOTH",
"78 407 OFFCURVE",
"84 431 OFFCURVE",
"96 450 CURVE SMOOTH",
"107 468 OFFCURVE",
"123 477 OFFCURVE",
"144 477 CURVE SMOOTH",
"177 477 OFFCURVE",
"214 455 OFFCURVE",
"256 410 CURVE"
);
}
);
width = 959;
}
);
note = AE;
unicode = 00C6;
},
{
glyphname = B;
lastChange = "2021-07-01 20:47:58 +0000";
layers = (
{
background = {
paths = (
{
closed = 1;
nodes = (
"794 606 OFFCURVE",
"782 631 OFFCURVE",
"760 653 CURVE SMOOTH",
"732 679 OFFCURVE",
"691 694 OFFCURVE",
"636 699 CURVE",
"665 723 OFFCURVE",
"696 735 OFFCURVE",
"728 735 CURVE SMOOTH",
"743 735 OFFCURVE",
"757 732 OFFCURVE",
"768 726 CURVE SMOOTH",
"773 723 OFFCURVE",
"776 727 OFFCURVE",
"776 736 CURVE SMOOTH",
"776 739 OFFCURVE",
"774 742 OFFCURVE",
"771 743 CURVE SMOOTH",
"755 750 OFFCURVE",
"737 754 OFFCURVE",
"718 754 CURVE SMOOTH",
"673 754 OFFCURVE",
"630 736 OFFCURVE",
"588 700 CURVE",
"506 699 OFFCURVE",
"423 683 OFFCURVE",
"338 652 CURVE SMOOTH",
"239 616 OFFCURVE",
"170 568 OFFCURVE",
"129 510 CURVE SMOOTH",
"112 486 OFFCURVE",
"103 463 OFFCURVE",
"103 440 CURVE SMOOTH",
"103 393 OFFCURVE",
"134 369 OFFCURVE",
"196 369 CURVE SMOOTH",
"226 369 OFFCURVE",
"271 385 OFFCURVE",
"330 417 CURVE SMOOTH",
"394 451 OFFCURVE",
"426 481 OFFCURVE",
"426 507 CURVE SMOOTH",
"426 511 OFFCURVE",
"423 512 OFFCURVE",
"419 512 CURVE SMOOTH",
"417 512 OFFCURVE",
"415 511 OFFCURVE",
"413 509 CURVE SMOOTH",
"388 478 OFFCURVE",
"357 451 OFFCURVE",
"321 430 CURVE SMOOTH",
"282 407 OFFCURVE",
"245 396 OFFCURVE",
"210 396 CURVE SMOOTH",
"180 396 OFFCURVE",
"165 409 OFFCURVE",
"165 435 CURVE SMOOTH",
"165 479 OFFCURVE",
"198 527 OFFCURVE",
"263 578 CURVE SMOOTH",
"297 605 OFFCURVE",
"344 629 OFFCURVE",
"405 650 CURVE SMOOTH",
"465 670 OFFCURVE",
"520 682 OFFCURVE",
"571 684 CURVE",
"548 663 OFFCURVE",
"527 637 OFFCURVE",
"511 606 CURVE SMOOTH",
"362 313 LINE SMOOTH",
"303 197 OFFCURVE",
"255 116 OFFCURVE",
"218 71 CURVE SMOOTH",
"175 20 OFFCURVE",
"125 -13 OFFCURVE",
"68 -28 CURVE SMOOTH",
"61 -30 OFFCURVE",
"53 -31 OFFCURVE",
"46 -31 CURVE SMOOTH",
"15 -31 OFFCURVE",
"-4 -21 OFFCURVE",
"-11 -2 CURVE",
"-3 -10 OFFCURVE",
"7 -14 OFFCURVE",
"19 -14 CURVE SMOOTH",
"32 -14 OFFCURVE",
"45 -9 OFFCURVE",
"56 1 CURVE SMOOTH",
"70 12 OFFCURVE",
"76 28 OFFCURVE",
"76 44 CURVE SMOOTH",
"76 54 OFFCURVE",
"73 62 OFFCURVE",
"67 70 CURVE SMOOTH",
"59 79 OFFCURVE",
"48 84 OFFCURVE",
"34 84 CURVE SMOOTH",
"15 84 OFFCURVE",
"-2 76 OFFCURVE",
"-16 61 CURVE SMOOTH",
"-30 46 OFFCURVE",
"-37 28 OFFCURVE",
"-37 8 CURVE SMOOTH",
"-37 -36 OFFCURVE",
"-8 -58 OFFCURVE",
"47 -58 CURVE SMOOTH",
"107 -58 OFFCURVE",
"172 -31 OFFCURVE",
"240 25 CURVE",
"239 -28 OFFCURVE",
"283 -54 OFFCURVE",
"370 -54 CURVE SMOOTH",
"380 -54 OFFCURVE",
"390 -54 OFFCURVE",
"400 -53 CURVE SMOOTH",
"496 -46 OFFCURVE",
"577 -13 OFFCURVE",
"644 46 CURVE SMOOTH",
"706 101 OFFCURVE",
"737 158 OFFCURVE",
"737 219 CURVE SMOOTH",
"737 291 OFFCURVE",
"692 335 OFFCURVE",
"601 351 CURVE",
"656 370 OFFCURVE",
"701 401 OFFCURVE",
"737 443 CURVE SMOOTH",
"774 486 OFFCURVE",
"794 530 OFFCURVE",
"794 575 CURVE SMOOTH"
);
},
{
closed = 1;
nodes = (
"729 523 OFFCURVE",
"709 477 OFFCURVE",
"671 434 CURVE SMOOTH",
"634 392 OFFCURVE",
"591 366 OFFCURVE",
"540 357 CURVE",
"516 357 OFFCURVE",
"490 355 OFFCURVE",
"463 352 CURVE",
"558 586 LINE SMOOTH",
"574 625 OFFCURVE",
"593 658 OFFCURVE",
"618 683 CURVE",
"657 678 OFFCURVE",
"687 663 OFFCURVE",
"706 639 CURVE SMOOTH",
"721 621 OFFCURVE",
"729 598 OFFCURVE",
"729 572 CURVE SMOOTH"
);
},
{
closed = 1;
nodes = (
"557 206 OFFCURVE",
"567 213 OFFCURVE",
"567 218 CURVE SMOOTH",
"567 221 OFFCURVE",
"563 222 OFFCURVE",
"556 222 CURVE SMOOTH",
"551 222 OFFCURVE",
"544 221 OFFCURVE",
"535 219 CURVE SMOOTH",
"474 206 OFFCURVE",
"417 187 OFFCURVE",
"364 160 CURVE",
"377 179 OFFCURVE",
"388 196 OFFCURVE",
"397 212 CURVE SMOOTH",
"423 260 OFFCURVE",
"441 299 OFFCURVE",
"452 326 CURVE",
"471 328 OFFCURVE",
"489 329 OFFCURVE",
"506 329 CURVE SMOOTH",
"560 329 OFFCURVE",
"601 318 OFFCURVE",
"629 296 CURVE SMOOTH",
"654 276 OFFCURVE",
"667 249 OFFCURVE",
"667 215 CURVE SMOOTH",
"667 171 OFFCURVE",
"647 126 OFFCURVE",
"607 79 CURVE SMOOTH",
"568 32 OFFCURVE",
"519 0 OFFCURVE",
"462 -18 CURVE SMOOTH",
"422 -30 OFFCURVE",
"390 -37 OFFCURVE",
"364 -37 CURVE SMOOTH",
"335 -37 OFFCURVE",
"315 -29 OFFCURVE",
"302 -14 CURVE SMOOTH",
"295 -5 OFFCURVE",
"291 5 OFFCURVE",
"291 17 CURVE SMOOTH",
"291 39 OFFCURVE",
"305 64 OFFCURVE",
"334 94 CURVE SMOOTH",
"381 143 OFFCURVE",
"448 178 OFFCURVE",
"536 201 CURVE SMOOTH"
);
}
);
};
hints = (
{
horizontal = 1;
place = "{-54, 16}";
type = Stem;
},
{
horizontal = 1;
place = "{-14, 98}";
type = Stem;
},
{
horizontal = 1;
place = "{370, 28}";
type = Stem;
},
{
horizontal = 1;
place = "{736, 20}";
type = Stem;
},
{
place = "{104, 62}";
type = Stem;
},
{
place = "{668, 70}";
type = Stem;
}
);
layerId = "3191725B-F824-48C7-90A0-BAE99CBF9356";
paths = (
{
closed = 1;
nodes = (
"794 606 OFFCURVE",
"782 631 OFFCURVE",
"760 653 CURVE SMOOTH",
"732 679 OFFCURVE",
"691 694 OFFCURVE",
"636 699 CURVE",
"665 723 OFFCURVE",
"696 735 OFFCURVE",
"728 735 CURVE SMOOTH",
"743 735 OFFCURVE",
"757 732 OFFCURVE",
"768 726 CURVE SMOOTH",
"773 723 OFFCURVE",
"776 727 OFFCURVE",
"776 736 CURVE SMOOTH",
"776 739 OFFCURVE",
"774 742 OFFCURVE",
"771 743 CURVE SMOOTH",
"755 750 OFFCURVE",
"737 754 OFFCURVE",
"718 754 CURVE SMOOTH",
"673 754 OFFCURVE",
"630 736 OFFCURVE",
"588 700 CURVE",
"506 699 OFFCURVE",
"423 683 OFFCURVE",
"338 652 CURVE SMOOTH",
"239 616 OFFCURVE",
"170 568 OFFCURVE",
"129 510 CURVE SMOOTH",
"112 486 OFFCURVE",
"103 463 OFFCURVE",
"103 440 CURVE SMOOTH",
"103 393 OFFCURVE",
"134 369 OFFCURVE",
"196 369 CURVE SMOOTH",
"226 369 OFFCURVE",
"271 385 OFFCURVE",
"330 417 CURVE SMOOTH",
"394 451 OFFCURVE",
"426 481 OFFCURVE",
"426 507 CURVE SMOOTH",
"426 511 OFFCURVE",
"423 512 OFFCURVE",
"419 512 CURVE SMOOTH",
"417 512 OFFCURVE",
"415 511 OFFCURVE",
"413 509 CURVE SMOOTH",
"388 478 OFFCURVE",
"357 451 OFFCURVE",
"321 430 CURVE SMOOTH",
"282 407 OFFCURVE",
"245 396 OFFCURVE",
"210 396 CURVE SMOOTH",
"180 396 OFFCURVE",
"165 409 OFFCURVE",
"165 435 CURVE SMOOTH",
"165 479 OFFCURVE",
"198 527 OFFCURVE",
"263 578 CURVE SMOOTH",
"297 605 OFFCURVE",
"344 629 OFFCURVE",
"405 650 CURVE SMOOTH",
"465 670 OFFCURVE",
"520 682 OFFCURVE",
"571 684 CURVE",
"548 663 OFFCURVE",
"527 637 OFFCURVE",
"511 606 CURVE SMOOTH",
"362 313 LINE SMOOTH",
"303 197 OFFCURVE",
"255 116 OFFCURVE",
"218 71 CURVE SMOOTH",
"175 20 OFFCURVE",
"125 -13 OFFCURVE",
"68 -28 CURVE SMOOTH",
"61 -30 OFFCURVE",
"53 -31 OFFCURVE",
"46 -31 CURVE SMOOTH",
"15 -31 OFFCURVE",
"-4 -21 OFFCURVE",
"-11 -2 CURVE",
"-3 -10 OFFCURVE",
"7 -14 OFFCURVE",
"19 -14 CURVE SMOOTH",
"32 -14 OFFCURVE",
"45 -9 OFFCURVE",
"56 1 CURVE SMOOTH",
"70 12 OFFCURVE",
"76 28 OFFCURVE",
"76 44 CURVE SMOOTH",
"76 54 OFFCURVE",
"73 62 OFFCURVE",
"67 70 CURVE SMOOTH",
"59 79 OFFCURVE",
"48 84 OFFCURVE",
"34 84 CURVE SMOOTH",
"15 84 OFFCURVE",
"-2 76 OFFCURVE",
"-16 61 CURVE SMOOTH",
"-30 46 OFFCURVE",
"-37 28 OFFCURVE",
"-37 8 CURVE SMOOTH",
"-37 -36 OFFCURVE",
"-8 -58 OFFCURVE",
"47 -58 CURVE SMOOTH",
"107 -58 OFFCURVE",
"172 -31 OFFCURVE",
"240 25 CURVE",
"239 -28 OFFCURVE",
"283 -54 OFFCURVE",
"370 -54 CURVE SMOOTH",
"380 -54 OFFCURVE",
"390 -54 OFFCURVE",
"400 -53 CURVE SMOOTH",
"496 -46 OFFCURVE",
"577 -13 OFFCURVE",
"644 46 CURVE SMOOTH",
"706 101 OFFCURVE",
"737 158 OFFCURVE",
"737 219 CURVE SMOOTH",
"737 291 OFFCURVE",
"692 335 OFFCURVE",
"601 351 CURVE",
"656 370 OFFCURVE",
"701 401 OFFCURVE",
"737 443 CURVE SMOOTH",
"774 486 OFFCURVE",
"794 530 OFFCURVE",
"794 575 CURVE SMOOTH"
);
},
{
closed = 1;
nodes = (
"729 523 OFFCURVE",
"709 477 OFFCURVE",
"671 434 CURVE SMOOTH",
"634 392 OFFCURVE",
"591 366 OFFCURVE",
"540 357 CURVE",
"516 357 OFFCURVE",
"490 355 OFFCURVE",
"463 352 CURVE",
"558 586 LINE SMOOTH",
"574 625 OFFCURVE",
"593 658 OFFCURVE",
"618 683 CURVE",
"657 678 OFFCURVE",
"687 663 OFFCURVE",
"706 639 CURVE SMOOTH",
"721 621 OFFCURVE",
"729 598 OFFCURVE",
"729 572 CURVE SMOOTH"
);
},
{
closed = 1;
nodes = (
"557 206 OFFCURVE",
"567 213 OFFCURVE",
"567 218 CURVE SMOOTH",
"567 221 OFFCURVE",
"563 222 OFFCURVE",
"556 222 CURVE SMOOTH",
"551 222 OFFCURVE",
"544 221 OFFCURVE",
"535 219 CURVE SMOOTH",
"474 206 OFFCURVE",
"417 187 OFFCURVE",
"364 160 CURVE",
"377 179 OFFCURVE",
"388 196 OFFCURVE",
"397 212 CURVE SMOOTH",
"423 260 OFFCURVE",
"441 299 OFFCURVE",
"452 326 CURVE",
"471 328 OFFCURVE",
"489 329 OFFCURVE",
"506 329 CURVE SMOOTH",
"560 329 OFFCURVE",
"601 318 OFFCURVE",
"629 296 CURVE SMOOTH",
"654 276 OFFCURVE",
"667 249 OFFCURVE",
"667 215 CURVE SMOOTH",
"667 171 OFFCURVE",
"647 126 OFFCURVE",
"607 79 CURVE SMOOTH",
"568 32 OFFCURVE",
"519 0 OFFCURVE",
"462 -18 CURVE SMOOTH",
"422 -30 OFFCURVE",
"390 -37 OFFCURVE",
"364 -37 CURVE SMOOTH",
"335 -37 OFFCURVE",
"315 -29 OFFCURVE",
"302 -14 CURVE SMOOTH",
"295 -5 OFFCURVE",
"291 5 OFFCURVE",
"291 17 CURVE SMOOTH",
"291 39 OFFCURVE",
"305 64 OFFCURVE",
"334 94 CURVE SMOOTH",
"381 143 OFFCURVE",
"448 178 OFFCURVE",
"536 201 CURVE SMOOTH"
);
}
);
width = 760;
}
);
note = B;
unicode = 0042;
},
{
glyphname = C;
lastChange = "2021-07-01 20:46:56 +0000";
layers = (
{
background = {
paths = (
{
closed = 1;
nodes = (
"770 513 OFFCURVE",
"807 563 OFFCURVE",
"807 610 CURVE SMOOTH",
"807 658 OFFCURVE",
"762 682 OFFCURVE",
"671 682 CURVE SMOOTH",
"572 682 OFFCURVE",
"473 651 OFFCURVE",
"374 589 CURVE",
"320 636 OFFCURVE",
"256 660 OFFCURVE",
"182 660 CURVE SMOOTH",
"139 660 OFFCURVE",
"103 651 OFFCURVE",
"72 634 CURVE SMOOTH",
"33 612 OFFCURVE",
"13 578 OFFCURVE",
"13 536 CURVE SMOOTH",
"13 499 OFFCURVE",
"27 465 OFFCURVE",
"56 433 CURVE SMOOTH",
"83 404 OFFCURVE",
"116 382 OFFCURVE",
"157 368 CURVE",
"109 285 OFFCURVE",
"83 203 OFFCURVE",
"83 124 CURVE SMOOTH",
"83 66 OFFCURVE",
"97 20 OFFCURVE",
"127 -15 CURVE SMOOTH",
"161 -55 OFFCURVE",
"211 -75 OFFCURVE",
"277 -75 CURVE SMOOTH",
"336 -75 OFFCURVE",
"395 -61 OFFCURVE",
"454 -34 CURVE SMOOTH",
"513 -7 OFFCURVE",
"560 29 OFFCURVE",
"597 76 CURVE SMOOTH",
"635 123 OFFCURVE",
"652 171 OFFCURVE",
"652 217 CURVE SMOOTH",
"652 245 OFFCURVE",
"644 268 OFFCURVE",
"629 287 CURVE SMOOTH",
"612 307 OFFCURVE",
"588 317 OFFCURVE",
"556 317 CURVE SMOOTH",
"509 317 OFFCURVE",
"455 295 OFFCURVE",
"394 249 CURVE SMOOTH",
"336 205 OFFCURVE",
"296 160 OFFCURVE",
"275 113 CURVE",
"274 112 OFFCURVE",
"274 110 OFFCURVE",
"274 108 CURVE SMOOTH",
"274 101 OFFCURVE",
"276 98 OFFCURVE",
"281 98 CURVE SMOOTH",
"284 98 OFFCURVE",
"286 100 OFFCURVE",
"288 103 CURVE SMOOTH",
"314 144 OFFCURVE",
"355 186 OFFCURVE",
"412 228 CURVE SMOOTH",
"475 274 OFFCURVE",
"527 297 OFFCURVE",
"570 297 CURVE SMOOTH",
"608 297 OFFCURVE",
"627 279 OFFCURVE",
"627 242 CURVE SMOOTH",
"627 201 OFFCURVE",
"605 155 OFFCURVE",
"561 102 CURVE SMOOTH",
"474 -2 OFFCURVE",
"387 -54 OFFCURVE",
"298 -54 CURVE SMOOTH",
"249 -54 OFFCURVE",
"213 -37 OFFCURVE",
"189 -2 CURVE SMOOTH",
"171 24 OFFCURVE",
"161 60 OFFCURVE",
"161 103 CURVE SMOOTH",
"161 178 OFFCURVE",
"189 261 OFFCURVE",
"244 349 CURVE",
"263 346 OFFCURVE",
"284 345 OFFCURVE",
"305 345 CURVE SMOOTH",
"462 345 OFFCURVE",
"592 383 OFFCURVE",
"696 459 CURVE SMOOTH"
);
},
{
closed = 1;
nodes = (
"765 581 OFFCURVE",
"737 539 OFFCURVE",
"680 498 CURVE SMOOTH",
"596 437 OFFCURVE",
"506 397 OFFCURVE",
"410 379 CURVE SMOOTH",
"375 373 OFFCURVE",
"341 370 OFFCURVE",
"307 370 CURVE SMOOTH",
"292 370 OFFCURVE",
"276 371 OFFCURVE",
"260 373 CURVE",
"299 430 OFFCURVE",
"346 482 OFFCURVE",
"399 528 CURVE",
"414 510 OFFCURVE",
"424 496 OFFCURVE",
"431 487 CURVE SMOOTH",
"433 483 OFFCURVE",
"437 481 OFFCURVE",
"442 481 CURVE SMOOTH",
"443 481 OFFCURVE",
"444 481 OFFCURVE",
"445 481 CURVE SMOOTH",
"450 482 OFFCURVE",
"452 485 OFFCURVE",
"449 490 CURVE SMOOTH",
"440 509 OFFCURVE",
"429 526 OFFCURVE",
"417 543 CURVE",
"515 622 OFFCURVE",
"608 662 OFFCURVE",
"697 662 CURVE SMOOTH",
"742 662 OFFCURVE",
"765 648 OFFCURVE",
"765 621 CURVE SMOOTH"
);
},
{
closed = 1;
nodes = (
"278 524 OFFCURVE",
"219 464 OFFCURVE",
"173 394 CURVE",
"90 425 OFFCURVE",
"49 473 OFFCURVE",
"49 538 CURVE SMOOTH",
"49 573 OFFCURVE",
"62 600 OFFCURVE",
"89 619 CURVE SMOOTH",
"111 634 OFFCURVE",
"138 642 OFFCURVE",
"170 642 CURVE SMOOTH",
"233 642 OFFCURVE",
"294 619 OFFCURVE",
"351 574 CURVE"
);
}
);
};
hints = (
{
horizontal = 1;
place = "{-76, 22}";
type = Stem;
},
{
horizontal = 1;
place = "{318, -20}";
target = down;
type = TopGhost;
},
{
horizontal = 1;
place = "{346, 26}";
type = Stem;
},
{
horizontal = 1;
place = "{642, 18}";
type = Stem;
},
{
horizontal = 1;
place = "{682, -20}";
target = down;
type = TopGhost;
},
{
place = "{14, 36}";
type = Stem;
},
{
place = "{84, 80}";
type = Stem;
},
{
place = "{628, 26}";
type = Stem;
},
{
place = "{766, 42}";
type = Stem;
}
);
layerId = "3191725B-F824-48C7-90A0-BAE99CBF9356";
paths = (
{
closed = 1;
nodes = (
"770 513 OFFCURVE",
"807 563 OFFCURVE",
"807 610 CURVE SMOOTH",
"807 658 OFFCURVE",
"762 682 OFFCURVE",
"671 682 CURVE SMOOTH",
"572 682 OFFCURVE",
"473 651 OFFCURVE",
"374 589 CURVE",
"320 636 OFFCURVE",
"256 660 OFFCURVE",
"182 660 CURVE SMOOTH",
"139 660 OFFCURVE",
"103 651 OFFCURVE",
"72 634 CURVE SMOOTH",
"33 612 OFFCURVE",
"13 578 OFFCURVE",
"13 536 CURVE SMOOTH",
"13 499 OFFCURVE",
"27 465 OFFCURVE",
"56 433 CURVE SMOOTH",
"83 404 OFFCURVE",
"116 382 OFFCURVE",
"157 368 CURVE",
"109 285 OFFCURVE",
"83 203 OFFCURVE",
"83 124 CURVE SMOOTH",
"83 66 OFFCURVE",
"97 20 OFFCURVE",
"127 -15 CURVE SMOOTH",
"161 -55 OFFCURVE",
"211 -75 OFFCURVE",
"277 -75 CURVE SMOOTH",
"336 -75 OFFCURVE",
"395 -61 OFFCURVE",
"454 -34 CURVE SMOOTH",
"513 -7 OFFCURVE",
"560 29 OFFCURVE",
"597 76 CURVE SMOOTH",
"635 123 OFFCURVE",
"652 171 OFFCURVE",
"652 217 CURVE SMOOTH",
"652 245 OFFCURVE",
"644 268 OFFCURVE",
"629 287 CURVE SMOOTH",
"612 307 OFFCURVE",
"588 317 OFFCURVE",
"556 317 CURVE SMOOTH",
"509 317 OFFCURVE",
"455 295 OFFCURVE",
"394 249 CURVE SMOOTH",
"336 205 OFFCURVE",
"296 160 OFFCURVE",
"275 113 CURVE",
"274 112 OFFCURVE",
"274 110 OFFCURVE",
"274 108 CURVE SMOOTH",
"274 101 OFFCURVE",
"276 98 OFFCURVE",
"281 98 CURVE SMOOTH",
"284 98 OFFCURVE",
"286 100 OFFCURVE",
"288 103 CURVE SMOOTH",
"314 144 OFFCURVE",
"355 186 OFFCURVE",
"412 228 CURVE SMOOTH",
"475 274 OFFCURVE",
"527 297 OFFCURVE",
"570 297 CURVE SMOOTH",
"608 297 OFFCURVE",
"627 279 OFFCURVE",
"627 242 CURVE SMOOTH",
"627 201 OFFCURVE",
"605 155 OFFCURVE",
"561 102 CURVE SMOOTH",
"474 -2 OFFCURVE",
"387 -54 OFFCURVE",
"298 -54 CURVE SMOOTH",
"249 -54 OFFCURVE",
"213 -37 OFFCURVE",
"189 -2 CURVE SMOOTH",
"171 24 OFFCURVE",
"161 60 OFFCURVE",
"161 103 CURVE SMOOTH",
"161 178 OFFCURVE",
"189 261 OFFCURVE",
"244 349 CURVE",
"263 346 OFFCURVE",
"284 345 OFFCURVE",
"305 345 CURVE SMOOTH",
"462 345 OFFCURVE",
"592 383 OFFCURVE",
"696 459 CURVE SMOOTH"
);
},
{
closed = 1;
nodes = (
"765 581 OFFCURVE",
"737 539 OFFCURVE",
"680 498 CURVE SMOOTH",
"596 437 OFFCURVE",
"506 397 OFFCURVE",
"410 379 CURVE SMOOTH",
"375 373 OFFCURVE",
"341 370 OFFCURVE",
"307 370 CURVE SMOOTH",
"292 370 OFFCURVE",
"276 371 OFFCURVE",
"260 373 CURVE",
"299 430 OFFCURVE",
"346 482 OFFCURVE",
"399 528 CURVE",
"414 510 OFFCURVE",
"424 496 OFFCURVE",
"431 487 CURVE SMOOTH",
"433 483 OFFCURVE",
"437 481 OFFCURVE",
"442 481 CURVE SMOOTH",
"443 481 OFFCURVE",
"444 481 OFFCURVE",
"445 481 CURVE SMOOTH",
"450 482 OFFCURVE",
"452 485 OFFCURVE",
"449 490 CURVE SMOOTH",
"440 509 OFFCURVE",
"429 526 OFFCURVE",
"417 543 CURVE",
"515 622 OFFCURVE",
"608 662 OFFCURVE",
"697 662 CURVE SMOOTH",
"742 662 OFFCURVE",
"765 648 OFFCURVE",
"765 621 CURVE SMOOTH"
);
},
{
closed = 1;
nodes = (
"278 524 OFFCURVE",
"219 464 OFFCURVE",
"173 394 CURVE",
"90 425 OFFCURVE",
"49 473 OFFCURVE",
"49 538 CURVE SMOOTH",
"49 573 OFFCURVE",
"62 600 OFFCURVE",
"89 619 CURVE SMOOTH",
"111 634 OFFCURVE",
"138 642 OFFCURVE",
"170 642 CURVE SMOOTH",
"233 642 OFFCURVE",
"294 619 OFFCURVE",
"351 574 CURVE"
);
}
);
width = 678;
}
);
note = C;
unicode = 0043;
},
{
glyphname = Ccedilla;
lastChange = "2021-07-01 20:46:56 +0000";
layers = (
{
background = {
paths = (
{
closed = 1;
nodes = (
"770 513 OFFCURVE",
"807 563 OFFCURVE",
"807 610 CURVE SMOOTH",
"807 658 OFFCURVE",
"762 682 OFFCURVE",
"671 682 CURVE SMOOTH",
"572 682 OFFCURVE",
"473 651 OFFCURVE",
"374 589 CURVE",
"320 636 OFFCURVE",
"256 660 OFFCURVE",
"182 660 CURVE SMOOTH",
"139 660 OFFCURVE",
"103 651 OFFCURVE",
"72 634 CURVE SMOOTH",
"33 612 OFFCURVE",
"13 578 OFFCURVE",
"13 536 CURVE SMOOTH",
"13 499 OFFCURVE",
"27 465 OFFCURVE",
"56 433 CURVE SMOOTH",
"83 404 OFFCURVE",
"116 382 OFFCURVE",
"157 368 CURVE",
"109 285 OFFCURVE",
"83 203 OFFCURVE",
"83 124 CURVE SMOOTH",
"83 66 OFFCURVE",
"97 20 OFFCURVE",
"127 -15 CURVE SMOOTH",
"161 -55 OFFCURVE",
"211 -75 OFFCURVE",
"277 -75 CURVE SMOOTH",
"336 -75 OFFCURVE",
"395 -61 OFFCURVE",
"454 -34 CURVE SMOOTH",
"513 -7 OFFCURVE",
"560 29 OFFCURVE",
"597 76 CURVE SMOOTH",
"635 123 OFFCURVE",
"652 171 OFFCURVE",
"652 217 CURVE SMOOTH",
"652 245 OFFCURVE",
"644 268 OFFCURVE",
"629 287 CURVE SMOOTH",
"612 307 OFFCURVE",
"588 317 OFFCURVE",
"556 317 CURVE SMOOTH",
"509 317 OFFCURVE",
"455 295 OFFCURVE",
"394 249 CURVE SMOOTH",
"336 205 OFFCURVE",
"296 160 OFFCURVE",
"275 113 CURVE",
"274 112 OFFCURVE",
"274 110 OFFCURVE",
"274 108 CURVE SMOOTH",
"274 101 OFFCURVE",
"276 98 OFFCURVE",
"281 98 CURVE SMOOTH",
"284 98 OFFCURVE",
"286 100 OFFCURVE",
"288 103 CURVE SMOOTH",
"314 144 OFFCURVE",
"355 186 OFFCURVE",
"412 228 CURVE SMOOTH",
"475 274 OFFCURVE",
"527 297 OFFCURVE",
"570 297 CURVE SMOOTH",
"608 297 OFFCURVE",
"627 279 OFFCURVE",
"627 242 CURVE SMOOTH",
"627 201 OFFCURVE",
"605 155 OFFCURVE",
"561 102 CURVE SMOOTH",
"474 -2 OFFCURVE",
"387 -54 OFFCURVE",
"298 -54 CURVE SMOOTH",
"249 -54 OFFCURVE",
"213 -37 OFFCURVE",
"189 -2 CURVE SMOOTH",
"171 24 OFFCURVE",
"161 60 OFFCURVE",
"161 103 CURVE SMOOTH",
"161 178 OFFCURVE",
"189 261 OFFCURVE",
"244 349 CURVE",
"263 346 OFFCURVE",
"284 345 OFFCURVE",
"305 345 CURVE SMOOTH",
"462 345 OFFCURVE",
"592 383 OFFCURVE",
"696 459 CURVE SMOOTH"
);
},
{
closed = 1;
nodes = (
"765 581 OFFCURVE",
"737 539 OFFCURVE",
"680 498 CURVE SMOOTH",
"596 437 OFFCURVE",
"506 397 OFFCURVE",
"410 379 CURVE SMOOTH",
"375 373 OFFCURVE",
"341 370 OFFCURVE",
"307 370 CURVE SMOOTH",
"292 370 OFFCURVE",
"276 371 OFFCURVE",
"260 373 CURVE",
"299 430 OFFCURVE",
"346 482 OFFCURVE",
"399 528 CURVE",
"414 510 OFFCURVE",
"424 496 OFFCURVE",
"431 487 CURVE SMOOTH",
"433 483 OFFCURVE",
"437 481 OFFCURVE",
"442 481 CURVE SMOOTH",
"443 481 OFFCURVE",
"444 481 OFFCURVE",
"445 481 CURVE SMOOTH",
"450 482 OFFCURVE",
"452 485 OFFCURVE",
"449 490 CURVE SMOOTH",
"440 509 OFFCURVE",
"429 526 OFFCURVE",
"417 543 CURVE",
"515 622 OFFCURVE",
"608 662 OFFCURVE",
"697 662 CURVE SMOOTH",
"742 662 OFFCURVE",
"765 648 OFFCURVE",
"765 621 CURVE SMOOTH"
);
},
{
closed = 1;
nodes = (
"278 524 OFFCURVE",
"219 464 OFFCURVE",
"173 394 CURVE",
"90 425 OFFCURVE",
"49 473 OFFCURVE",
"49 538 CURVE SMOOTH",
"49 573 OFFCURVE",
"62 600 OFFCURVE",
"89 619 CURVE SMOOTH",
"111 634 OFFCURVE",
"138 642 OFFCURVE",
"170 642 CURVE SMOOTH",
"233 642 OFFCURVE",
"294 619 OFFCURVE",
"351 574 CURVE"
);
},
{
closed = 1;
nodes = (
"399 -158 OFFCURVE",
"385 -138 OFFCURVE",
"356 -124 CURVE SMOOTH",
"333 -113 OFFCURVE",
"308 -107 OFFCURVE",
"280 -107 CURVE SMOOTH",
"267 -107 OFFCURVE",
"254 -108 OFFCURVE",
"241 -110 CURVE",
"241 -109 OFFCURVE",
"256 -97 OFFCURVE",
"285 -75 CURVE",
"283 -70 OFFCURVE",
"280 -67 OFFCURVE",
"277 -67 CURVE SMOOTH",
"276 -67 OFFCURVE",
"263 -76 OFFCURVE",
"240 -94 CURVE SMOOTH",
"217 -111 OFFCURVE",
"203 -122 OFFCURVE",
"200 -125 CURVE SMOOTH",
"197 -128 OFFCURVE",
"196 -131 OFFCURVE",
"196 -134 CURVE SMOOTH",
"196 -144 OFFCURVE",
"202 -149 OFFCURVE",
"215 -149 CURVE SMOOTH",
"216 -149 OFFCURVE",
"224 -145 OFFCURVE",
"241 -137 CURVE SMOOTH",
"257 -129 OFFCURVE",
"272 -125 OFFCURVE",
"287 -125 CURVE SMOOTH",
"306 -125 OFFCURVE",
"323 -130 OFFCURVE",
"337 -139 CURVE SMOOTH",
"354 -150 OFFCURVE",
"362 -164 OFFCURVE",
"362 -182 CURVE SMOOTH",
"362 -195 OFFCURVE",
"358 -208 OFFCURVE",
"348 -223 CURVE SMOOTH",
"332 -247 OFFCURVE",
"300 -259 OFFCURVE",
"252 -259 CURVE SMOOTH",
"211 -259 OFFCURVE",
"182 -251 OFFCURVE",
"166 -234 CURVE SMOOTH",
"159 -227 OFFCURVE",
"154 -223 OFFCURVE",
"151 -223 CURVE SMOOTH",
"147 -223 OFFCURVE",
"145 -225 OFFCURVE",
"145 -230 CURVE SMOOTH",
"145 -245 OFFCURVE",
"163 -257 OFFCURVE",
"199 -266 CURVE SMOOTH",
"225 -272 OFFCURVE",
"249 -276 OFFCURVE",
"271 -276 CURVE SMOOTH",
"305 -276 OFFCURVE",
"330 -270 OFFCURVE",
"347 -259 CURVE SMOOTH",
"382 -236 OFFCURVE",
"399 -210 OFFCURVE",
"399 -183 CURVE SMOOTH"
);
}
);
};
hints = (
{
horizontal = 1;
place = "{-76, 22}";
type = Stem;
},
{
horizontal = 1;
place = "{318, -20}";
target = down;
type = TopGhost;
},
{
horizontal = 1;
place = "{346, 26}";
type = Stem;
},
{
horizontal = 1;
place = "{642, 18}";
type = Stem;
},
{
horizontal = 1;
place = "{682, -20}";
target = down;
type = TopGhost;
},
{
place = "{14, 36}";
type = Stem;
},
{
place = "{84, 80}";
type = Stem;
},
{
place = "{628, 26}";
type = Stem;
},
{
place = "{766, 42}";
type = Stem;
},
{
horizontal = 1;
place = "{-276, 18}";
type = Stem;
},
{
horizontal = 1;
place = "{-126, 18}";
type = Stem;
},
{
horizontal = 1;
place = "{-68, -20}";
target = down;
type = TopGhost;
},
{
place = "{362, 38}";
type = Stem;
}
);
layerId = "3191725B-F824-48C7-90A0-BAE99CBF9356";
paths = (
{
closed = 1;
nodes = (
"770 513 OFFCURVE",
"807 563 OFFCURVE",
"807 610 CURVE SMOOTH",
"807 658 OFFCURVE",
"762 682 OFFCURVE",
"671 682 CURVE SMOOTH",
"572 682 OFFCURVE",
"473 651 OFFCURVE",
"374 589 CURVE",
"320 636 OFFCURVE",
"256 660 OFFCURVE",
"182 660 CURVE SMOOTH",
"139 660 OFFCURVE",
"103 651 OFFCURVE",
"72 634 CURVE SMOOTH",
"33 612 OFFCURVE",
"13 578 OFFCURVE",
"13 536 CURVE SMOOTH",
"13 499 OFFCURVE",
"27 465 OFFCURVE",
"56 433 CURVE SMOOTH",
"83 404 OFFCURVE",
"116 382 OFFCURVE",
"157 368 CURVE",
"109 285 OFFCURVE",
"83 203 OFFCURVE",
"83 124 CURVE SMOOTH",
"83 66 OFFCURVE",
"97 20 OFFCURVE",
"127 -15 CURVE SMOOTH",
"161 -55 OFFCURVE",
"211 -75 OFFCURVE",
"277 -75 CURVE SMOOTH",
"336 -75 OFFCURVE",
"395 -61 OFFCURVE",
"454 -34 CURVE SMOOTH",
"513 -7 OFFCURVE",
"560 29 OFFCURVE",
"597 76 CURVE SMOOTH",
"635 123 OFFCURVE",
"652 171 OFFCURVE",
"652 217 CURVE SMOOTH",
"652 245 OFFCURVE",
"644 268 OFFCURVE",
"629 287 CURVE SMOOTH",
"612 307 OFFCURVE",
"588 317 OFFCURVE",
"556 317 CURVE SMOOTH",
"509 317 OFFCURVE",
"455 295 OFFCURVE",
"394 249 CURVE SMOOTH",
"336 205 OFFCURVE",
"296 160 OFFCURVE",
"275 113 CURVE",
"274 112 OFFCURVE",
"274 110 OFFCURVE",
"274 108 CURVE SMOOTH",
"274 101 OFFCURVE",
"276 98 OFFCURVE",
"281 98 CURVE SMOOTH",
"284 98 OFFCURVE",
"286 100 OFFCURVE",
"288 103 CURVE SMOOTH",
"314 144 OFFCURVE",
"355 186 OFFCURVE",
"412 228 CURVE SMOOTH",
"475 274 OFFCURVE",
"527 297 OFFCURVE",
"570 297 CURVE SMOOTH",
"608 297 OFFCURVE",
"627 279 OFFCURVE",
"627 242 CURVE SMOOTH",
"627 201 OFFCURVE",
"605 155 OFFCURVE",
"561 102 CURVE SMOOTH",
"474 -2 OFFCURVE",
"387 -54 OFFCURVE",
"298 -54 CURVE SMOOTH",
"249 -54 OFFCURVE",
"213 -37 OFFCURVE",
"189 -2 CURVE SMOOTH",
"171 24 OFFCURVE",
"161 60 OFFCURVE",
"161 103 CURVE SMOOTH",
"161 178 OFFCURVE",
"189 261 OFFCURVE",
"244 349 CURVE",
"263 346 OFFCURVE",
"284 345 OFFCURVE",
"305 345 CURVE SMOOTH",
"462 345 OFFCURVE",
"592 383 OFFCURVE",
"696 459 CURVE SMOOTH"
);
},
{
closed = 1;
nodes = (
"765 581 OFFCURVE",
"737 539 OFFCURVE",
"680 498 CURVE SMOOTH",
"596 437 OFFCURVE",
"506 397 OFFCURVE",
"410 379 CURVE SMOOTH",
"375 373 OFFCURVE",
"341 370 OFFCURVE",
"307 370 CURVE SMOOTH",
"292 370 OFFCURVE",
"276 371 OFFCURVE",
"260 373 CURVE",
"299 430 OFFCURVE",
"346 482 OFFCURVE",
"399 528 CURVE",
"414 510 OFFCURVE",
"424 496 OFFCURVE",
"431 487 CURVE SMOOTH",
"433 483 OFFCURVE",
"437 481 OFFCURVE",
"442 481 CURVE SMOOTH",
"443 481 OFFCURVE",
"444 481 OFFCURVE",
"445 481 CURVE SMOOTH",
"450 482 OFFCURVE",
"452 485 OFFCURVE",
"449 490 CURVE SMOOTH",
"440 509 OFFCURVE",
"429 526 OFFCURVE",
"417 543 CURVE",
"515 622 OFFCURVE",
"608 662 OFFCURVE",
"697 662 CURVE SMOOTH",
"742 662 OFFCURVE",
"765 648 OFFCURVE",
"765 621 CURVE SMOOTH"
);
},
{
closed = 1;
nodes = (
"278 524 OFFCURVE",
"219 464 OFFCURVE",
"173 394 CURVE",
"90 425 OFFCURVE",
"49 473 OFFCURVE",
"49 538 CURVE SMOOTH",
"49 573 OFFCURVE",
"62 600 OFFCURVE",
"89 619 CURVE SMOOTH",
"111 634 OFFCURVE",
"138 642 OFFCURVE",
"170 642 CURVE SMOOTH",
"233 642 OFFCURVE",
"294 619 OFFCURVE",
"351 574 CURVE"
);
},
{
closed = 1;
nodes = (
"399 -158 OFFCURVE",
"385 -138 OFFCURVE",
"356 -124 CURVE SMOOTH",
"333 -113 OFFCURVE",
"308 -107 OFFCURVE",
"280 -107 CURVE SMOOTH",
"267 -107 OFFCURVE",
"254 -108 OFFCURVE",
"241 -110 CURVE",
"241 -109 OFFCURVE",
"256 -97 OFFCURVE",
"285 -75 CURVE",
"283 -70 OFFCURVE",
"280 -67 OFFCURVE",
"277 -67 CURVE SMOOTH",
"276 -67 OFFCURVE",
"263 -76 OFFCURVE",
"240 -94 CURVE SMOOTH",
"217 -111 OFFCURVE",
"203 -122 OFFCURVE",
"200 -125 CURVE SMOOTH",
"197 -128 OFFCURVE",
"196 -131 OFFCURVE",
"196 -134 CURVE SMOOTH",
"196 -144 OFFCURVE",
"202 -149 OFFCURVE",
"215 -149 CURVE SMOOTH",
"216 -149 OFFCURVE",
"224 -145 OFFCURVE",
"241 -137 CURVE SMOOTH",
"257 -129 OFFCURVE",
"272 -125 OFFCURVE",
"287 -125 CURVE SMOOTH",
"306 -125 OFFCURVE",
"323 -130 OFFCURVE",
"337 -139 CURVE SMOOTH",
"354 -150 OFFCURVE",
"362 -164 OFFCURVE",
"362 -182 CURVE SMOOTH",
"362 -195 OFFCURVE",
"358 -208 OFFCURVE",
"348 -223 CURVE SMOOTH",
"332 -247 OFFCURVE",
"300 -259 OFFCURVE",
"252 -259 CURVE SMOOTH",
"211 -259 OFFCURVE",
"182 -251 OFFCURVE",
"166 -234 CURVE SMOOTH",
"159 -227 OFFCURVE",
"154 -223 OFFCURVE",
"151 -223 CURVE SMOOTH",
"147 -223 OFFCURVE",
"145 -225 OFFCURVE",
"145 -230 CURVE SMOOTH",
"145 -245 OFFCURVE",
"163 -257 OFFCURVE",
"199 -266 CURVE SMOOTH",
"225 -272 OFFCURVE",
"249 -276 OFFCURVE",
"271 -276 CURVE SMOOTH",
"305 -276 OFFCURVE",
"330 -270 OFFCURVE",
"347 -259 CURVE SMOOTH",
"382 -236 OFFCURVE",
"399 -210 OFFCURVE",
"399 -183 CURVE SMOOTH"
);
}
);
width = 678;
}
);
note = Ccedilla;
unicode = 00C7;
},
{
glyphname = D;
lastChange = "2021-07-01 20:46:56 +0000";
layers = (
{
background = {
paths = (
{
closed = 1;
nodes = (
"800 386 OFFCURVE",
"800 400 OFFCURVE",
"800 413 CURVE SMOOTH",
"800 482 OFFCURVE",
"782 541 OFFCURVE",
"745 590 CURVE SMOOTH",
"712 635 OFFCURVE",
"665 668 OFFCURVE",
"606 689 CURVE",
"640 722 OFFCURVE",
"676 738 OFFCURVE",
"713 738 CURVE SMOOTH",
"726 738 OFFCURVE",
"738 736 OFFCURVE",
"749 731 CURVE SMOOTH",
"752 730 OFFCURVE",
"754 731 OFFCURVE",
"756 735 CURVE SMOOTH",
"757 738 OFFCURVE",
"756 741 OFFCURVE",
"751 743 CURVE SMOOTH",
"734 750 OFFCURVE",
"717 754 OFFCURVE",
"698 754 CURVE SMOOTH",
"653 754 OFFCURVE",
"610 736 OFFCURVE",
"569 700 CURVE",
"535 709 OFFCURVE",
"499 713 OFFCURVE",
"462 713 CURVE SMOOTH",
"338 713 OFFCURVE",
"229 674 OFFCURVE",
"135 597 CURVE SMOOTH",
"51 528 OFFCURVE",
"9 461 OFFCURVE",
"9 396 CURVE SMOOTH",
"9 367 OFFCURVE",
"18 344 OFFCURVE",
"36 327 CURVE SMOOTH",
"53 310 OFFCURVE",
"76 301 OFFCURVE",
"104 301 CURVE SMOOTH",
"139 301 OFFCURVE",
"176 315 OFFCURVE",
"215 341 CURVE SMOOTH",
"264 375 OFFCURVE",
"299 421 OFFCURVE",
"319 481 CURVE SMOOTH",
"321 486 OFFCURVE",
"319 488 OFFCURVE",
"316 489 CURVE",
"313 489 OFFCURVE",
"310 486 OFFCURVE",
"308 481 CURVE SMOOTH",
"290 434 OFFCURVE",
"257 395 OFFCURVE",
"210 363 CURVE SMOOTH",
"163 331 OFFCURVE",
"126 315 OFFCURVE",
"97 315 CURVE SMOOTH",
"66 315 OFFCURVE",
"50 332 OFFCURVE",
"50 365 CURVE SMOOTH",
"50 394 OFFCURVE",
"62 427 OFFCURVE",
"86 465 CURVE SMOOTH",
"113 508 OFFCURVE",
"149 548 OFFCURVE",
"195 586 CURVE SMOOTH",
"282 658 OFFCURVE",
"371 694 OFFCURVE",
"464 694 CURVE SMOOTH",
"494 694 OFFCURVE",
"522 690 OFFCURVE",
"549 681 CURVE",
"521 650 OFFCURVE",
"480 579 OFFCURVE",
"427 469 CURVE SMOOTH",
"405 423 OFFCURVE",
"383 370 OFFCURVE",
"355 313 CURVE SMOOTH",
"293 189 OFFCURVE",
"244 110 OFFCURVE",
"215 73 CURVE SMOOTH",
"174 20 OFFCURVE",
"126 -13 OFFCURVE",
"71 -28 CURVE SMOOTH",
"64 -30 OFFCURVE",
"56 -31 OFFCURVE",
"48 -31 CURVE SMOOTH",
"17 -31 OFFCURVE",
"-2 -21 OFFCURVE",
"-9 -2 CURVE",
"0 -10 OFFCURVE",
"10 -14 OFFCURVE",
"22 -14 CURVE SMOOTH",
"35 -14 OFFCURVE",
"47 -9 OFFCURVE",
"58 1 CURVE SMOOTH",
"71 12 OFFCURVE",
"78 26 OFFCURVE",
"78 42 CURVE SMOOTH",
"78 52 OFFCURVE",
"74 62 OFFCURVE",
"67 70 CURVE SMOOTH",
"59 79 OFFCURVE",
"48 84 OFFCURVE",
"34 84 CURVE SMOOTH",
"15 84 OFFCURVE",
"-2 76 OFFCURVE",
"-16 61 CURVE SMOOTH",
"-28 47 OFFCURVE",
"-35 30 OFFCURVE",
"-35 12 CURVE SMOOTH",
"-35 -35 OFFCURVE",
"-6 -58 OFFCURVE",
"51 -58 CURVE SMOOTH",
"121 -58 OFFCURVE",
"193 -24 OFFCURVE",
"267 47 CURVE",
"262 36 OFFCURVE",
"260 26 OFFCURVE",
"260 16 CURVE SMOOTH",
"260 -27 OFFCURVE",
"294 -49 OFFCURVE",
"361 -49 CURVE SMOOTH",
"370 -49 OFFCURVE",
"379 -48 OFFCURVE",
"389 -47 CURVE SMOOTH",
"498 -37 OFFCURVE",
"591 8 OFFCURVE",
"668 90 CURVE SMOOTH",
"743 169 OFFCURVE",
"787 263 OFFCURVE",
"798 371 CURVE SMOOTH"
);
},
{
closed = 1;
nodes = (
"712 256 OFFCURVE",
"678 171 OFFCURVE",
"622 102 CURVE SMOOTH",
"559 25 OFFCURVE",
"480 -19 OFFCURVE",
"385 -29 CURVE SMOOTH",
"377 -30 OFFCURVE",
"370 -30 OFFCURVE",
"363 -30 CURVE SMOOTH",
"323 -30 OFFCURVE",
"302 -15 OFFCURVE",
"302 14 CURVE SMOOTH",
"302 41 OFFCURVE",
"324 73 OFFCURVE",
"368 112 CURVE SMOOTH",
"394 135 OFFCURVE",
"430 153 OFFCURVE",
"475 166 CURVE SMOOTH",
"510 176 OFFCURVE",
"541 181 OFFCURVE",
"569 181 CURVE SMOOTH",
"575 181 OFFCURVE",
"582 181 OFFCURVE",
"588 180 CURVE SMOOTH",
"596 179 OFFCURVE",
"600 181 OFFCURVE",
"600 186 CURVE SMOOTH",
"600 189 OFFCURVE",
"598 191 OFFCURVE",
"593 191 CURVE SMOOTH",
"552 194 OFFCURVE",
"510 190 OFFCURVE",
"467 181 CURVE SMOOTH",
"416 171 OFFCURVE",
"375 155 OFFCURVE",
"343 132 CURVE SMOOTH",
"341 131 LINE",
"362 160 OFFCURVE",
"380 186 OFFCURVE",
"393 212 CURVE SMOOTH",
"420 266 OFFCURVE",
"439 309 OFFCURVE",
"450 340 CURVE SMOOTH",
"467 387 OFFCURVE",
"482 435 OFFCURVE",
"499 482 CURVE SMOOTH",
"533 576 OFFCURVE",
"563 637 OFFCURVE",
"586 667 CURVE",
"681 621 OFFCURVE",
"729 536 OFFCURVE",
"729 413 CURVE SMOOTH",
"729 394 OFFCURVE",
"728 375 OFFCURVE",
"725 355 CURVE SMOOTH"
);
}
);
};
hints = (
{
horizontal = 1;
place = "{-50, 20}";
type = Stem;
},
{
horizontal = 1;
place = "{-14, 98}";
type = Stem;
},
{
horizontal = 1;
place = "{180, 12}";
type = Stem;
},
{
horizontal = 1;
place = "{302, 14}";
type = Stem;
},
{
horizontal = 1;
place = "{694, 20}";
type = Stem;
},
{
horizontal = 1;
place = "{738, 16}";
type = Stem;
},
{
place = "{10, 42}";
type = Stem;
},
{
place = "{260, 42}";
type = Stem;
},
{
place = "{730, 72}";
type = Stem;
}
);
layerId = "3191725B-F824-48C7-90A0-BAE99CBF9356";
paths = (
{
closed = 1;
nodes = (
"800 386 OFFCURVE",
"800 400 OFFCURVE",
"800 413 CURVE SMOOTH",
"800 482 OFFCURVE",
"782 541 OFFCURVE",
"745 590 CURVE SMOOTH",
"712 635 OFFCURVE",
"665 668 OFFCURVE",
"606 689 CURVE",
"640 722 OFFCURVE",
"676 738 OFFCURVE",
"713 738 CURVE SMOOTH",
"726 738 OFFCURVE",
"738 736 OFFCURVE",
"749 731 CURVE SMOOTH",
"752 730 OFFCURVE",
"754 731 OFFCURVE",
"756 735 CURVE SMOOTH",
"757 738 OFFCURVE",
"756 741 OFFCURVE",
"751 743 CURVE SMOOTH",
"734 750 OFFCURVE",
"717 754 OFFCURVE",
"698 754 CURVE SMOOTH",
"653 754 OFFCURVE",
"610 736 OFFCURVE",
"569 700 CURVE",
"535 709 OFFCURVE",
"499 713 OFFCURVE",
"462 713 CURVE SMOOTH",
"338 713 OFFCURVE",
"229 674 OFFCURVE",
"135 597 CURVE SMOOTH",
"51 528 OFFCURVE",
"9 461 OFFCURVE",
"9 396 CURVE SMOOTH",
"9 367 OFFCURVE",
"18 344 OFFCURVE",
"36 327 CURVE SMOOTH",
"53 310 OFFCURVE",
"76 301 OFFCURVE",
"104 301 CURVE SMOOTH",
"139 301 OFFCURVE",
"176 315 OFFCURVE",
"215 341 CURVE SMOOTH",
"264 375 OFFCURVE",
"299 421 OFFCURVE",
"319 481 CURVE SMOOTH",
"321 486 OFFCURVE",
"319 488 OFFCURVE",
"316 489 CURVE",
"313 489 OFFCURVE",
"310 486 OFFCURVE",
"308 481 CURVE SMOOTH",
"290 434 OFFCURVE",
"257 395 OFFCURVE",
"210 363 CURVE SMOOTH",
"163 331 OFFCURVE",
"126 315 OFFCURVE",
"97 315 CURVE SMOOTH",
"66 315 OFFCURVE",
"50 332 OFFCURVE",
"50 365 CURVE SMOOTH",
"50 394 OFFCURVE",
"62 427 OFFCURVE",
"86 465 CURVE SMOOTH",
"113 508 OFFCURVE",
"149 548 OFFCURVE",
"195 586 CURVE SMOOTH",
"282 658 OFFCURVE",
"371 694 OFFCURVE",
"464 694 CURVE SMOOTH",
"494 694 OFFCURVE",
"522 690 OFFCURVE",
"549 681 CURVE",
"521 650 OFFCURVE",
"480 579 OFFCURVE",
"427 469 CURVE SMOOTH",
"405 423 OFFCURVE",
"383 370 OFFCURVE",
"355 313 CURVE SMOOTH",
"293 189 OFFCURVE",
"244 110 OFFCURVE",
"215 73 CURVE SMOOTH",
"174 20 OFFCURVE",
"126 -13 OFFCURVE",
"71 -28 CURVE SMOOTH",
"64 -30 OFFCURVE",
"56 -31 OFFCURVE",
"48 -31 CURVE SMOOTH",
"17 -31 OFFCURVE",
"-2 -21 OFFCURVE",
"-9 -2 CURVE",
"0 -10 OFFCURVE",
"10 -14 OFFCURVE",
"22 -14 CURVE SMOOTH",
"35 -14 OFFCURVE",
"47 -9 OFFCURVE",
"58 1 CURVE SMOOTH",
"71 12 OFFCURVE",
"78 26 OFFCURVE",
"78 42 CURVE SMOOTH",
"78 52 OFFCURVE",
"74 62 OFFCURVE",
"67 70 CURVE SMOOTH",
"59 79 OFFCURVE",
"48 84 OFFCURVE",
"34 84 CURVE SMOOTH",
"15 84 OFFCURVE",
"-2 76 OFFCURVE",
"-16 61 CURVE SMOOTH",
"-28 47 OFFCURVE",
"-35 30 OFFCURVE",
"-35 12 CURVE SMOOTH",
"-35 -35 OFFCURVE",
"-6 -58 OFFCURVE",
"51 -58 CURVE SMOOTH",
"121 -58 OFFCURVE",
"193 -24 OFFCURVE",
"267 47 CURVE",
"262 36 OFFCURVE",
"260 26 OFFCURVE",
"260 16 CURVE SMOOTH",
"260 -27 OFFCURVE",
"294 -49 OFFCURVE",
"361 -49 CURVE SMOOTH",
"370 -49 OFFCURVE",
"379 -48 OFFCURVE",
"389 -47 CURVE SMOOTH",
"498 -37 OFFCURVE",
"591 8 OFFCURVE",
"668 90 CURVE SMOOTH",
"743 169 OFFCURVE",
"787 263 OFFCURVE",
"798 371 CURVE SMOOTH"
);
},
{
closed = 1;
nodes = (
"712 256 OFFCURVE",
"678 171 OFFCURVE",
"622 102 CURVE SMOOTH",
"559 25 OFFCURVE",
"480 -19 OFFCURVE",
"385 -29 CURVE SMOOTH",
"377 -30 OFFCURVE",
"370 -30 OFFCURVE",
"363 -30 CURVE SMOOTH",
"323 -30 OFFCURVE",
"302 -15 OFFCURVE",
"302 14 CURVE SMOOTH",
"302 41 OFFCURVE",
"324 73 OFFCURVE",
"368 112 CURVE SMOOTH",
"394 135 OFFCURVE",
"430 153 OFFCURVE",
"475 166 CURVE SMOOTH",
"510 176 OFFCURVE",
"541 181 OFFCURVE",
"569 181 CURVE SMOOTH",
"575 181 OFFCURVE",
"582 181 OFFCURVE",
"588 180 CURVE SMOOTH",
"596 179 OFFCURVE",
"600 181 OFFCURVE",
"600 186 CURVE SMOOTH",
"600 189 OFFCURVE",
"598 191 OFFCURVE",
"593 191 CURVE SMOOTH",
"552 194 OFFCURVE",
"510 190 OFFCURVE",
"467 181 CURVE SMOOTH",
"416 171 OFFCURVE",
"375 155 OFFCURVE",
"343 132 CURVE SMOOTH",
"341 131 LINE",
"362 160 OFFCURVE",
"380 186 OFFCURVE",
"393 212 CURVE SMOOTH",
"420 266 OFFCURVE",
"439 309 OFFCURVE",
"450 340 CURVE SMOOTH",
"467 387 OFFCURVE",
"482 435 OFFCURVE",
"499 482 CURVE SMOOTH",
"533 576 OFFCURVE",
"563 637 OFFCURVE",
"586 667 CURVE",
"681 621 OFFCURVE",
"729 536 OFFCURVE",
"729 413 CURVE SMOOTH",
"729 394 OFFCURVE",
"728 375 OFFCURVE",
"725 355 CURVE SMOOTH"
);
}
);
width = 765;
}
);
note = D;
unicode = 0044;
},
{
glyphname = E;
lastChange = "2021-07-01 20:46:56 +0000";
layers = (
{
background = {
paths = (
{
closed = 1;
nodes = (
"668 526 OFFCURVE",
"695 564 OFFCURVE",
"695 603 CURVE SMOOTH",
"695 627 OFFCURVE",
"684 647 OFFCURVE",
"661 662 CURVE SMOOTH",
"639 677 OFFCURVE",
"610 685 OFFCURVE",
"573 685 CURVE SMOOTH",
"557 685 OFFCURVE",
"540 684 OFFCURVE",
"523 681 CURVE SMOOTH",
"439 667 OFFCURVE",
"375 637 OFFCURVE",
"330 592 CURVE SMOOTH",
"292 554 OFFCURVE",
"273 511 OFFCURVE",
"273 464 CURVE SMOOTH",
"273 451 OFFCURVE",
"274 439 OFFCURVE",
"277 427 CURVE",
"249 428 OFFCURVE",
"222 432 OFFCURVE",
"197 438 CURVE SMOOTH",
"153 448 OFFCURVE",
"119 467 OFFCURVE",
"94 495 CURVE SMOOTH",
"72 520 OFFCURVE",
"61 547 OFFCURVE",
"61 578 CURVE SMOOTH",
"61 611 OFFCURVE",
"73 638 OFFCURVE",
"98 659 CURVE SMOOTH",
"123 680 OFFCURVE",
"156 690 OFFCURVE",
"197 690 CURVE SMOOTH",
"244 690 OFFCURVE",
"292 678 OFFCURVE",
"340 655 CURVE SMOOTH",
"345 653 OFFCURVE",
"349 654 OFFCURVE",
"349 661 CURVE SMOOTH",
"349 663 OFFCURVE",
"348 666 OFFCURVE",
"346 667 CURVE",
"294 692 OFFCURVE",
"241 703 OFFCURVE",
"191 703 CURVE SMOOTH",
"137 703 OFFCURVE",
"94 691 OFFCURVE",
"60 668 CURVE SMOOTH",
"26 644 OFFCURVE",
"8 614 OFFCURVE",
"8 577 CURVE SMOOTH",
"8 544 OFFCURVE",
"22 515 OFFCURVE",
"50 488 CURVE SMOOTH",
"81 458 OFFCURVE",
"124 437 OFFCURVE",
"179 424 CURVE SMOOTH",
"210 417 OFFCURVE",
"244 412 OFFCURVE",
"282 411 CURVE",
"287 399 OFFCURVE",
"293 388 OFFCURVE",
"301 377 CURVE",
"211 368 OFFCURVE",
"139 337 OFFCURVE",
"85 285 CURVE SMOOTH",
"36 238 OFFCURVE",
"11 184 OFFCURVE",
"11 125 CURVE SMOOTH",
"11 72 OFFCURVE",
"31 28 OFFCURVE",
"72 -6 CURVE SMOOTH",
"117 -44 OFFCURVE",
"180 -63 OFFCURVE",
"261 -63 CURVE SMOOTH",
"345 -63 OFFCURVE",
"420 -36 OFFCURVE",
"487 17 CURVE SMOOTH",
"548 66 OFFCURVE",
"579 115 OFFCURVE",
"579 165 CURVE SMOOTH",
"579 218 OFFCURVE",
"540 244 OFFCURVE",
"463 244 CURVE SMOOTH",
"451 244 OFFCURVE",
"439 243 OFFCURVE",
"426 242 CURVE SMOOTH",
"372 237 OFFCURVE",
"318 213 OFFCURVE",
"263 172 CURVE SMOOTH",
"218 139 OFFCURVE",
"190 110 OFFCURVE",
"179 85 CURVE",
"178 81 OFFCURVE",
"179 78 OFFCURVE",
"183 76 CURVE SMOOTH",
"187 74 OFFCURVE",
"190 75 OFFCURVE",
"191 79 CURVE",
"200 99 OFFCURVE",
"230 127 OFFCURVE",
"279 161 CURVE SMOOTH",
"335 200 OFFCURVE",
"380 219 OFFCURVE",
"415 219 CURVE SMOOTH",
"490 219 OFFCURVE",
"527 195 OFFCURVE",
"527 147 CURVE SMOOTH",
"527 104 OFFCURVE",
"500 62 OFFCURVE",
"447 19 CURVE SMOOTH",
"390 -27 OFFCURVE",
"328 -50 OFFCURVE",
"261 -50 CURVE SMOOTH",
"212 -50 OFFCURVE",
"173 -34 OFFCURVE",
"146 -1 CURVE SMOOTH",
"121 28 OFFCURVE",
"109 66 OFFCURVE",
"109 112 CURVE SMOOTH",
"109 170 OFFCURVE",
"127 223 OFFCURVE",
"162 271 CURVE SMOOTH",
"201 323 OFFCURVE",
"251 354 OFFCURVE",
"313 364 CURVE",
"336 341 OFFCURVE",
"365 329 OFFCURVE",
"399 329 CURVE SMOOTH",
"425 329 OFFCURVE",
"438 337 OFFCURVE",
"438 352 CURVE SMOOTH",
"438 368 OFFCURVE",
"426 377 OFFCURVE",
"402 379 CURVE SMOOTH",
"379 380 OFFCURVE",
"356 381 OFFCURVE",
"334 380 CURVE",
"330 389 OFFCURVE",
"327 399 OFFCURVE",
"326 411 CURVE",
"450 415 OFFCURVE",
"546 441 OFFCURVE",
"614 488 CURVE SMOOTH"
);
},
{
closed = 1;
nodes = (
"517 460 OFFCURVE",
"430 433 OFFCURVE",
"326 428 CURVE",
"330 481 OFFCURVE",
"357 531 OFFCURVE",
"408 576 CURVE SMOOTH",
"470 631 OFFCURVE",
"534 658 OFFCURVE",
"599 658 CURVE SMOOTH",
"648 658 OFFCURVE",
"672 643 OFFCURVE",
"672 613 CURVE SMOOTH",
"672 584 OFFCURVE",
"644 549 OFFCURVE",
"587 509 CURVE SMOOTH"
);
}
);
};
hints = (
{
horizontal = 1;
place = "{-64, 14}";
type = Stem;
},
{
horizontal = 1;
place = "{220, 26}";
type = Stem;
},
{
horizontal = 1;
place = "{330, 50}";
type = Stem;
},
{
horizontal = 1;
place = "{658, 28}";
type = Stem;
},
{
horizontal = 1;
place = "{690, 14}";
type = Stem;
},
{
place = "{8, 54}";
type = Stem;
},
{
place = "{528, 52}";
type = Stem;
},
{
place = "{672, 24}";
type = Stem;
}
);
layerId = "3191725B-F824-48C7-90A0-BAE99CBF9356";
paths = (
{
closed = 1;
nodes = (
"668 526 OFFCURVE",
"695 564 OFFCURVE",
"695 603 CURVE SMOOTH",
"695 627 OFFCURVE",
"684 647 OFFCURVE",
"661 662 CURVE SMOOTH",
"639 677 OFFCURVE",
"610 685 OFFCURVE",
"573 685 CURVE SMOOTH",
"557 685 OFFCURVE",
"540 684 OFFCURVE",
"523 681 CURVE SMOOTH",
"439 667 OFFCURVE",
"375 637 OFFCURVE",
"330 592 CURVE SMOOTH",
"292 554 OFFCURVE",
"273 511 OFFCURVE",
"273 464 CURVE SMOOTH",
"273 451 OFFCURVE",
"274 439 OFFCURVE",
"277 427 CURVE",
"249 428 OFFCURVE",
"222 432 OFFCURVE",
"197 438 CURVE SMOOTH",
"153 448 OFFCURVE",
"119 467 OFFCURVE",
"94 495 CURVE SMOOTH",
"72 520 OFFCURVE",
"61 547 OFFCURVE",
"61 578 CURVE SMOOTH",
"61 611 OFFCURVE",
"73 638 OFFCURVE",
"98 659 CURVE SMOOTH",
"123 680 OFFCURVE",
"156 690 OFFCURVE",
"197 690 CURVE SMOOTH",
"244 690 OFFCURVE",
"292 678 OFFCURVE",
"340 655 CURVE SMOOTH",
"345 653 OFFCURVE",
"349 654 OFFCURVE",
"349 661 CURVE SMOOTH",
"349 663 OFFCURVE",
"348 666 OFFCURVE",
"346 667 CURVE",
"294 692 OFFCURVE",
"241 703 OFFCURVE",
"191 703 CURVE SMOOTH",
"137 703 OFFCURVE",
"94 691 OFFCURVE",
"60 668 CURVE SMOOTH",
"26 644 OFFCURVE",
"8 614 OFFCURVE",
"8 577 CURVE SMOOTH",
"8 544 OFFCURVE",
"22 515 OFFCURVE",
"50 488 CURVE SMOOTH",
"81 458 OFFCURVE",
"124 437 OFFCURVE",
"179 424 CURVE SMOOTH",
"210 417 OFFCURVE",
"244 412 OFFCURVE",
"282 411 CURVE",
"287 399 OFFCURVE",
"293 388 OFFCURVE",
"301 377 CURVE",
"211 368 OFFCURVE",
"139 337 OFFCURVE",
"85 285 CURVE SMOOTH",
"36 238 OFFCURVE",
"11 184 OFFCURVE",
"11 125 CURVE SMOOTH",
"11 72 OFFCURVE",
"31 28 OFFCURVE",
"72 -6 CURVE SMOOTH",
"117 -44 OFFCURVE",
"180 -63 OFFCURVE",
"261 -63 CURVE SMOOTH",
"345 -63 OFFCURVE",
"420 -36 OFFCURVE",
"487 17 CURVE SMOOTH",
"548 66 OFFCURVE",
"579 115 OFFCURVE",
"579 165 CURVE SMOOTH",
"579 218 OFFCURVE",
"540 244 OFFCURVE",
"463 244 CURVE SMOOTH",
"451 244 OFFCURVE",
"439 243 OFFCURVE",
"426 242 CURVE SMOOTH",
"372 237 OFFCURVE",
"318 213 OFFCURVE",
"263 172 CURVE SMOOTH",
"218 139 OFFCURVE",
"190 110 OFFCURVE",
"179 85 CURVE",
"178 81 OFFCURVE",
"179 78 OFFCURVE",
"183 76 CURVE SMOOTH",
"187 74 OFFCURVE",
"190 75 OFFCURVE",
"191 79 CURVE",
"200 99 OFFCURVE",
"230 127 OFFCURVE",
"279 161 CURVE SMOOTH",
"335 200 OFFCURVE",
"380 219 OFFCURVE",
"415 219 CURVE SMOOTH",
"490 219 OFFCURVE",
"527 195 OFFCURVE",
"527 147 CURVE SMOOTH",
"527 104 OFFCURVE",
"500 62 OFFCURVE",
"447 19 CURVE SMOOTH",
"390 -27 OFFCURVE",
"328 -50 OFFCURVE",
"261 -50 CURVE SMOOTH",
"212 -50 OFFCURVE",
"173 -34 OFFCURVE",
"146 -1 CURVE SMOOTH",
"121 28 OFFCURVE",
"109 66 OFFCURVE",
"109 112 CURVE SMOOTH",
"109 170 OFFCURVE",
"127 223 OFFCURVE",
"162 271 CURVE SMOOTH",
"201 323 OFFCURVE",
"251 354 OFFCURVE",
"313 364 CURVE",
"336 341 OFFCURVE",
"365 329 OFFCURVE",
"399 329 CURVE SMOOTH",
"425 329 OFFCURVE",
"438 337 OFFCURVE",
"438 352 CURVE SMOOTH",
"438 368 OFFCURVE",
"426 377 OFFCURVE",
"402 379 CURVE SMOOTH",
"379 380 OFFCURVE",
"356 381 OFFCURVE",
"334 380 CURVE",
"330 389 OFFCURVE",
"327 399 OFFCURVE",
"326 411 CURVE",
"450 415 OFFCURVE",
"546 441 OFFCURVE",
"614 488 CURVE SMOOTH"
);
},
{
closed = 1;
nodes = (
"517 460 OFFCURVE",
"430 433 OFFCURVE",
"326 428 CURVE",
"330 481 OFFCURVE",
"357 531 OFFCURVE",
"408 576 CURVE SMOOTH",
"470 631 OFFCURVE",
"534 658 OFFCURVE",
"599 658 CURVE SMOOTH",
"648 658 OFFCURVE",
"672 643 OFFCURVE",
"672 613 CURVE SMOOTH",
"672 584 OFFCURVE",
"644 549 OFFCURVE",
"587 509 CURVE SMOOTH"
);
}
);
width = 586;
}
);
note = E;
unicode = 0045;
},
{
glyphname = Eacute;
lastChange = "2021-07-01 20:46:56 +0000";
layers = (
{
background = {
paths = (
{
closed = 1;
nodes = (
"668 526 OFFCURVE",
"695 564 OFFCURVE",
"695 603 CURVE SMOOTH",
"695 627 OFFCURVE",
"684 647 OFFCURVE",
"661 662 CURVE SMOOTH",
"639 677 OFFCURVE",
"610 685 OFFCURVE",
"573 685 CURVE SMOOTH",
"557 685 OFFCURVE",
"540 684 OFFCURVE",
"523 681 CURVE SMOOTH",
"439 667 OFFCURVE",
"375 637 OFFCURVE",
"330 592 CURVE SMOOTH",
"292 554 OFFCURVE",
"273 511 OFFCURVE",
"273 464 CURVE SMOOTH",
"273 451 OFFCURVE",
"274 439 OFFCURVE",
"277 427 CURVE",
"249 428 OFFCURVE",
"222 432 OFFCURVE",
"197 438 CURVE SMOOTH",
"153 448 OFFCURVE",
"119 467 OFFCURVE",
"94 495 CURVE SMOOTH",
"72 520 OFFCURVE",
"61 547 OFFCURVE",
"61 578 CURVE SMOOTH",
"61 611 OFFCURVE",
"73 638 OFFCURVE",
"98 659 CURVE SMOOTH",
"123 680 OFFCURVE",
"156 690 OFFCURVE",
"197 690 CURVE SMOOTH",
"244 690 OFFCURVE",
"292 678 OFFCURVE",
"340 655 CURVE SMOOTH",
"345 653 OFFCURVE",
"349 654 OFFCURVE",
"349 661 CURVE SMOOTH",
"349 663 OFFCURVE",
"348 666 OFFCURVE",
"346 667 CURVE",
"294 692 OFFCURVE",
"241 703 OFFCURVE",
"191 703 CURVE SMOOTH",
"137 703 OFFCURVE",
"94 691 OFFCURVE",
"60 668 CURVE SMOOTH",
"26 644 OFFCURVE",
"8 614 OFFCURVE",
"8 577 CURVE SMOOTH",
"8 544 OFFCURVE",
"22 515 OFFCURVE",
"50 488 CURVE SMOOTH",
"81 458 OFFCURVE",
"124 437 OFFCURVE",
"179 424 CURVE SMOOTH",
"210 417 OFFCURVE",
"244 412 OFFCURVE",
"282 411 CURVE",
"287 399 OFFCURVE",
"293 388 OFFCURVE",
"301 377 CURVE",
"211 368 OFFCURVE",
"139 337 OFFCURVE",
"85 285 CURVE SMOOTH",
"36 238 OFFCURVE",
"11 184 OFFCURVE",
"11 125 CURVE SMOOTH",
"11 72 OFFCURVE",
"31 28 OFFCURVE",
"72 -6 CURVE SMOOTH",
"117 -44 OFFCURVE",
"180 -63 OFFCURVE",
"261 -63 CURVE SMOOTH",
"345 -63 OFFCURVE",
"420 -36 OFFCURVE",
"487 17 CURVE SMOOTH",
"548 66 OFFCURVE",
"579 115 OFFCURVE",
"579 165 CURVE SMOOTH",
"579 218 OFFCURVE",
"540 244 OFFCURVE",
"463 244 CURVE SMOOTH",
"451 244 OFFCURVE",
"439 243 OFFCURVE",
"426 242 CURVE SMOOTH",
"372 237 OFFCURVE",
"318 213 OFFCURVE",
"263 172 CURVE SMOOTH",
"218 139 OFFCURVE",
"190 110 OFFCURVE",
"179 85 CURVE",
"178 81 OFFCURVE",
"179 78 OFFCURVE",
"183 76 CURVE SMOOTH",
"187 74 OFFCURVE",
"190 75 OFFCURVE",
"191 79 CURVE",
"200 99 OFFCURVE",
"230 127 OFFCURVE",
"279 161 CURVE SMOOTH",
"335 200 OFFCURVE",
"380 219 OFFCURVE",
"415 219 CURVE SMOOTH",
"490 219 OFFCURVE",
"527 195 OFFCURVE",
"527 147 CURVE SMOOTH",
"527 104 OFFCURVE",
"500 62 OFFCURVE",
"447 19 CURVE SMOOTH",
"390 -27 OFFCURVE",
"328 -50 OFFCURVE",
"261 -50 CURVE SMOOTH",
"212 -50 OFFCURVE",
"173 -34 OFFCURVE",
"146 -1 CURVE SMOOTH",
"121 28 OFFCURVE",
"109 66 OFFCURVE",
"109 112 CURVE SMOOTH",
"109 170 OFFCURVE",
"127 223 OFFCURVE",
"162 271 CURVE SMOOTH",
"201 323 OFFCURVE",
"251 354 OFFCURVE",
"313 364 CURVE",
"336 341 OFFCURVE",
"365 329 OFFCURVE",
"399 329 CURVE SMOOTH",
"425 329 OFFCURVE",
"438 337 OFFCURVE",
"438 352 CURVE SMOOTH",
"438 368 OFFCURVE",
"426 377 OFFCURVE",
"402 379 CURVE SMOOTH",
"379 380 OFFCURVE",
"356 381 OFFCURVE",
"334 380 CURVE",
"330 389 OFFCURVE",
"327 399 OFFCURVE",
"326 411 CURVE",
"450 415 OFFCURVE",
"546 441 OFFCURVE",
"614 488 CURVE SMOOTH"
);
},
{
closed = 1;
nodes = (
"517 460 OFFCURVE",
"430 433 OFFCURVE",
"326 428 CURVE",
"330 481 OFFCURVE",
"357 531 OFFCURVE",
"408 576 CURVE SMOOTH",
"470 631 OFFCURVE",
"534 658 OFFCURVE",
"599 658 CURVE SMOOTH",
"648 658 OFFCURVE",
"672 643 OFFCURVE",
"672 613 CURVE SMOOTH",
"672 584 OFFCURVE",
"644 549 OFFCURVE",
"587 509 CURVE SMOOTH"
);
},
{
closed = 1;
nodes = (
"756 834 OFFCURVE",
"757 838 OFFCURVE",
"757 841 CURVE SMOOTH",
"757 848 OFFCURVE",
"753 853 OFFCURVE",
"745 857 CURVE SMOOTH",
"740 860 OFFCURVE",
"734 861 OFFCURVE",
"728 861 CURVE SMOOTH",
"715 861 OFFCURVE",
"702 856 OFFCURVE",
"687 845 CURVE SMOOTH",
"564 754 LINE",
"561 748 OFFCURVE",
"562 744 OFFCURVE",
"567 741 CURVE SMOOTH",
"571 739 OFFCURVE",
"602 752 OFFCURVE",
"661 779 CURVE SMOOTH",
"719 806 OFFCURVE",
"750 823 OFFCURVE",
"754 830 CURVE SMOOTH"
);
}
);
};
hints = (
{
horizontal = 1;
place = "{-64, 14}";
type = Stem;
},
{
horizontal = 1;
place = "{220, 26}";
type = Stem;
},
{
horizontal = 1;
place = "{330, 50}";
type = Stem;
},
{
horizontal = 1;
place = "{658, 28}";
type = Stem;
},
{
horizontal = 1;
place = "{690, 14}";
type = Stem;
},
{
place = "{8, 54}";
type = Stem;
},
{
place = "{528, 52}";
type = Stem;
},
{
place = "{672, 24}";
type = Stem;
}
);
layerId = "3191725B-F824-48C7-90A0-BAE99CBF9356";
paths = (
{
closed = 1;
nodes = (
"668 526 OFFCURVE",
"695 564 OFFCURVE",
"695 603 CURVE SMOOTH",
"695 627 OFFCURVE",
"684 647 OFFCURVE",
"661 662 CURVE SMOOTH",
"639 677 OFFCURVE",
"610 685 OFFCURVE",
"573 685 CURVE SMOOTH",
"557 685 OFFCURVE",
"540 684 OFFCURVE",
"523 681 CURVE SMOOTH",
"439 667 OFFCURVE",
"375 637 OFFCURVE",
"330 592 CURVE SMOOTH",
"292 554 OFFCURVE",
"273 511 OFFCURVE",
"273 464 CURVE SMOOTH",
"273 451 OFFCURVE",
"274 439 OFFCURVE",
"277 427 CURVE",
"249 428 OFFCURVE",
"222 432 OFFCURVE",
"197 438 CURVE SMOOTH",
"153 448 OFFCURVE",
"119 467 OFFCURVE",
"94 495 CURVE SMOOTH",
"72 520 OFFCURVE",
"61 547 OFFCURVE",
"61 578 CURVE SMOOTH",
"61 611 OFFCURVE",
"73 638 OFFCURVE",
"98 659 CURVE SMOOTH",
"123 680 OFFCURVE",
"156 690 OFFCURVE",
"197 690 CURVE SMOOTH",
"244 690 OFFCURVE",
"292 678 OFFCURVE",
"340 655 CURVE SMOOTH",
"345 653 OFFCURVE",
"349 654 OFFCURVE",
"349 661 CURVE SMOOTH",
"349 663 OFFCURVE",
"348 666 OFFCURVE",
"346 667 CURVE",
"294 692 OFFCURVE",
"241 703 OFFCURVE",
"191 703 CURVE SMOOTH",
"137 703 OFFCURVE",
"94 691 OFFCURVE",
"60 668 CURVE SMOOTH",
"26 644 OFFCURVE",
"8 614 OFFCURVE",
"8 577 CURVE SMOOTH",
"8 544 OFFCURVE",
"22 515 OFFCURVE",
"50 488 CURVE SMOOTH",
"81 458 OFFCURVE",
"124 437 OFFCURVE",
"179 424 CURVE SMOOTH",
"210 417 OFFCURVE",
"244 412 OFFCURVE",
"282 411 CURVE",
"287 399 OFFCURVE",
"293 388 OFFCURVE",
"301 377 CURVE",
"211 368 OFFCURVE",
"139 337 OFFCURVE",
"85 285 CURVE SMOOTH",
"36 238 OFFCURVE",
"11 184 OFFCURVE",
"11 125 CURVE SMOOTH",
"11 72 OFFCURVE",
"31 28 OFFCURVE",
"72 -6 CURVE SMOOTH",
"117 -44 OFFCURVE",
"180 -63 OFFCURVE",
"261 -63 CURVE SMOOTH",
"345 -63 OFFCURVE",
"420 -36 OFFCURVE",
"487 17 CURVE SMOOTH",
"548 66 OFFCURVE",
"579 115 OFFCURVE",
"579 165 CURVE SMOOTH",
"579 218 OFFCURVE",
"540 244 OFFCURVE",
"463 244 CURVE SMOOTH",
"451 244 OFFCURVE",
"439 243 OFFCURVE",
"426 242 CURVE SMOOTH",
"372 237 OFFCURVE",
"318 213 OFFCURVE",
"263 172 CURVE SMOOTH",
"218 139 OFFCURVE",
"190 110 OFFCURVE",
"179 85 CURVE",
"178 81 OFFCURVE",
"179 78 OFFCURVE",
"183 76 CURVE SMOOTH",
"187 74 OFFCURVE",
"190 75 OFFCURVE",
"191 79 CURVE",
"200 99 OFFCURVE",
"230 127 OFFCURVE",
"279 161 CURVE SMOOTH",
"335 200 OFFCURVE",
"380 219 OFFCURVE",
"415 219 CURVE SMOOTH",
"490 219 OFFCURVE",
"527 195 OFFCURVE",
"527 147 CURVE SMOOTH",
"527 104 OFFCURVE",
"500 62 OFFCURVE",
"447 19 CURVE SMOOTH",
"390 -27 OFFCURVE",
"328 -50 OFFCURVE",
"261 -50 CURVE SMOOTH",
"212 -50 OFFCURVE",
"173 -34 OFFCURVE",
"146 -1 CURVE SMOOTH",
"121 28 OFFCURVE",
"109 66 OFFCURVE",
"109 112 CURVE SMOOTH",
"109 170 OFFCURVE",
"127 223 OFFCURVE",
"162 271 CURVE SMOOTH",
"201 323 OFFCURVE",
"251 354 OFFCURVE",
"313 364 CURVE",
"336 341 OFFCURVE",
"365 329 OFFCURVE",
"399 329 CURVE SMOOTH",
"425 329 OFFCURVE",
"438 337 OFFCURVE",
"438 352 CURVE SMOOTH",
"438 368 OFFCURVE",
"426 377 OFFCURVE",
"402 379 CURVE SMOOTH",
"379 380 OFFCURVE",
"356 381 OFFCURVE",
"334 380 CURVE",
"330 389 OFFCURVE",
"327 399 OFFCURVE",
"326 411 CURVE",
"450 415 OFFCURVE",
"546 441 OFFCURVE",
"614 488 CURVE SMOOTH"
);
},
{
closed = 1;
nodes = (
"517 460 OFFCURVE",
"430 433 OFFCURVE",
"326 428 CURVE",
"330 481 OFFCURVE",
"357 531 OFFCURVE",
"408 576 CURVE SMOOTH",
"470 631 OFFCURVE",
"534 658 OFFCURVE",
"599 658 CURVE SMOOTH",
"648 658 OFFCURVE",
"672 643 OFFCURVE",
"672 613 CURVE SMOOTH",
"672 584 OFFCURVE",
"644 549 OFFCURVE",
"587 509 CURVE SMOOTH"
);
},
{
closed = 1;
nodes = (
"756 834 OFFCURVE",
"757 838 OFFCURVE",
"757 841 CURVE SMOOTH",
"757 848 OFFCURVE",
"753 853 OFFCURVE",
"745 857 CURVE SMOOTH",
"740 860 OFFCURVE",
"734 861 OFFCURVE",
"728 861 CURVE SMOOTH",
"715 861 OFFCURVE",
"702 856 OFFCURVE",
"687 845 CURVE SMOOTH",
"564 754 LINE",
"561 748 OFFCURVE",
"562 744 OFFCURVE",
"567 741 CURVE SMOOTH",
"571 739 OFFCURVE",
"602 752 OFFCURVE",
"661 779 CURVE SMOOTH",
"719 806 OFFCURVE",
"750 823 OFFCURVE",
"754 830 CURVE SMOOTH"
);
}
);
width = 586;
}
);
note = Eacute;
unicode = 00C9;
},
{
glyphname = Ecircumflex;
lastChange = "2021-07-01 20:46:56 +0000";
layers = (
{
background = {
paths = (
{
closed = 1;
nodes = (
"668 526 OFFCURVE",
"695 564 OFFCURVE",
"695 603 CURVE SMOOTH",
"695 627 OFFCURVE",
"684 647 OFFCURVE",
"661 662 CURVE SMOOTH",
"639 677 OFFCURVE",
"610 685 OFFCURVE",
"573 685 CURVE SMOOTH",
"557 685 OFFCURVE",
"540 684 OFFCURVE",
"523 681 CURVE SMOOTH",
"439 667 OFFCURVE",
"375 637 OFFCURVE",
"330 592 CURVE SMOOTH",
"292 554 OFFCURVE",
"273 511 OFFCURVE",
"273 464 CURVE SMOOTH",
"273 451 OFFCURVE",
"274 439 OFFCURVE",
"277 427 CURVE",
"249 428 OFFCURVE",
"222 432 OFFCURVE",
"197 438 CURVE SMOOTH",
"153 448 OFFCURVE",
"119 467 OFFCURVE",
"94 495 CURVE SMOOTH",
"72 520 OFFCURVE",
"61 547 OFFCURVE",
"61 578 CURVE SMOOTH",
"61 611 OFFCURVE",
"73 638 OFFCURVE",
"98 659 CURVE SMOOTH",
"123 680 OFFCURVE",
"156 690 OFFCURVE",
"197 690 CURVE SMOOTH",
"244 690 OFFCURVE",
"292 678 OFFCURVE",
"340 655 CURVE SMOOTH",
"345 653 OFFCURVE",
"349 654 OFFCURVE",
"349 661 CURVE SMOOTH",
"349 663 OFFCURVE",
"348 666 OFFCURVE",
"346 667 CURVE",
"294 692 OFFCURVE",
"241 703 OFFCURVE",
"191 703 CURVE SMOOTH",
"137 703 OFFCURVE",
"94 691 OFFCURVE",
"60 668 CURVE SMOOTH",
"26 644 OFFCURVE",
"8 614 OFFCURVE",
"8 577 CURVE SMOOTH",
"8 544 OFFCURVE",
"22 515 OFFCURVE",
"50 488 CURVE SMOOTH",
"81 458 OFFCURVE",
"124 437 OFFCURVE",
"179 424 CURVE SMOOTH",
"210 417 OFFCURVE",
"244 412 OFFCURVE",
"282 411 CURVE",
"287 399 OFFCURVE",
"293 388 OFFCURVE",
"301 377 CURVE",
"211 368 OFFCURVE",
"139 337 OFFCURVE",
"85 285 CURVE SMOOTH",
"36 238 OFFCURVE",
"11 184 OFFCURVE",
"11 125 CURVE SMOOTH",
"11 72 OFFCURVE",
"31 28 OFFCURVE",
"72 -6 CURVE SMOOTH",
"117 -44 OFFCURVE",
"180 -63 OFFCURVE",
"261 -63 CURVE SMOOTH",
"345 -63 OFFCURVE",
"420 -36 OFFCURVE",
"487 17 CURVE SMOOTH",
"548 66 OFFCURVE",
"579 115 OFFCURVE",
"579 165 CURVE SMOOTH",
"579 218 OFFCURVE",
"540 244 OFFCURVE",
"463 244 CURVE SMOOTH",
"451 244 OFFCURVE",
"439 243 OFFCURVE",
"426 242 CURVE SMOOTH",
"372 237 OFFCURVE",
"318 213 OFFCURVE",
"263 172 CURVE SMOOTH",
"218 139 OFFCURVE",
"190 110 OFFCURVE",
"179 85 CURVE",
"178 81 OFFCURVE",
"179 78 OFFCURVE",
"183 76 CURVE SMOOTH",
"187 74 OFFCURVE",
"190 75 OFFCURVE",
"191 79 CURVE",
"200 99 OFFCURVE",
"230 127 OFFCURVE",
"279 161 CURVE SMOOTH",
"335 200 OFFCURVE",
"380 219 OFFCURVE",
"415 219 CURVE SMOOTH",
"490 219 OFFCURVE",
"527 195 OFFCURVE",
"527 147 CURVE SMOOTH",
"527 104 OFFCURVE",
"500 62 OFFCURVE",
"447 19 CURVE SMOOTH",
"390 -27 OFFCURVE",
"328 -50 OFFCURVE",
"261 -50 CURVE SMOOTH",
"212 -50 OFFCURVE",
"173 -34 OFFCURVE",
"146 -1 CURVE SMOOTH",
"121 28 OFFCURVE",
"109 66 OFFCURVE",
"109 112 CURVE SMOOTH",
"109 170 OFFCURVE",
"127 223 OFFCURVE",
"162 271 CURVE SMOOTH",
"201 323 OFFCURVE",
"251 354 OFFCURVE",
"313 364 CURVE",
"336 341 OFFCURVE",
"365 329 OFFCURVE",
"399 329 CURVE SMOOTH",
"425 329 OFFCURVE",
"438 337 OFFCURVE",
"438 352 CURVE SMOOTH",
"438 368 OFFCURVE",
"426 377 OFFCURVE",
"402 379 CURVE SMOOTH",
"379 380 OFFCURVE",
"356 381 OFFCURVE",
"334 380 CURVE",
"330 389 OFFCURVE",
"327 399 OFFCURVE",
"326 411 CURVE",
"450 415 OFFCURVE",
"546 441 OFFCURVE",
"614 488 CURVE SMOOTH"
);
},
{
closed = 1;
nodes = (
"517 460 OFFCURVE",
"430 433 OFFCURVE",
"326 428 CURVE",
"330 481 OFFCURVE",
"357 531 OFFCURVE",
"408 576 CURVE SMOOTH",
"470 631 OFFCURVE",
"534 658 OFFCURVE",
"599 658 CURVE SMOOTH",
"648 658 OFFCURVE",
"672 643 OFFCURVE",
"672 613 CURVE SMOOTH",
"672 584 OFFCURVE",
"644 549 OFFCURVE",
"587 509 CURVE SMOOTH"
);
},
{
closed = 1;
nodes = (
"665 854 LINE SMOOTH",
"665 856 OFFCURVE",
"660 857 OFFCURVE",
"652 857 CURVE SMOOTH",
"645 857 OFFCURVE",
"633 856 OFFCURVE",
"618 854 CURVE",
"435 724 LINE SMOOTH",
"434 723 OFFCURVE",
"434 722 OFFCURVE",
"434 721 CURVE SMOOTH",
"434 718 OFFCURVE",
"438 718 OFFCURVE",
"446 718 CURVE SMOOTH",
"455 718 OFFCURVE",
"461 720 OFFCURVE",
"466 724 CURVE",
"628 811 LINE",
"684 724 LINE SMOOTH",
"686 721 OFFCURVE",
"689 719 OFFCURVE",
"694 718 CURVE SMOOTH",
"698 717 OFFCURVE",
"701 717 OFFCURVE",
"703 717 CURVE SMOOTH",
"704 717 OFFCURVE",
"705 717 OFFCURVE",
"706 717 CURVE SMOOTH",
"709 718 OFFCURVE",
"710 721 OFFCURVE",
"709 724 CURVE SMOOTH"
);
}
);
};
hints = (
{
horizontal = 1;
place = "{-64, 14}";
type = Stem;
},
{
horizontal = 1;
place = "{220, 26}";
type = Stem;
},
{
horizontal = 1;
place = "{330, 50}";
type = Stem;
},
{
horizontal = 1;
place = "{658, 28}";
type = Stem;
},
{
horizontal = 1;
place = "{690, 14}";
type = Stem;
},
{
place = "{8, 54}";
type = Stem;
},
{
place = "{528, 52}";
type = Stem;
},
{
place = "{672, 24}";
type = Stem;
},
{
horizontal = 1;
place = "{718, 20}";
type = Stem;
}
);
layerId = "3191725B-F824-48C7-90A0-BAE99CBF9356";
paths = (
{
closed = 1;
nodes = (
"668 526 OFFCURVE",
"695 564 OFFCURVE",
"695 603 CURVE SMOOTH",
"695 627 OFFCURVE",
"684 647 OFFCURVE",
"661 662 CURVE SMOOTH",
"639 677 OFFCURVE",
"610 685 OFFCURVE",
"573 685 CURVE SMOOTH",
"557 685 OFFCURVE",
"540 684 OFFCURVE",
"523 681 CURVE SMOOTH",
"439 667 OFFCURVE",
"375 637 OFFCURVE",
"330 592 CURVE SMOOTH",
"292 554 OFFCURVE",
"273 511 OFFCURVE",
"273 464 CURVE SMOOTH",
"273 451 OFFCURVE",
"274 439 OFFCURVE",
"277 427 CURVE",
"249 428 OFFCURVE",
"222 432 OFFCURVE",
"197 438 CURVE SMOOTH",
"153 448 OFFCURVE",
"119 467 OFFCURVE",
"94 495 CURVE SMOOTH",
"72 520 OFFCURVE",
"61 547 OFFCURVE",
"61 578 CURVE SMOOTH",
"61 611 OFFCURVE",
"73 638 OFFCURVE",
"98 659 CURVE SMOOTH",
"123 680 OFFCURVE",
"156 690 OFFCURVE",
"197 690 CURVE SMOOTH",
"244 690 OFFCURVE",
"292 678 OFFCURVE",
"340 655 CURVE SMOOTH",
"345 653 OFFCURVE",
"349 654 OFFCURVE",
"349 661 CURVE SMOOTH",
"349 663 OFFCURVE",
"348 666 OFFCURVE",
"346 667 CURVE",
"294 692 OFFCURVE",
"241 703 OFFCURVE",
"191 703 CURVE SMOOTH",
"137 703 OFFCURVE",
"94 691 OFFCURVE",
"60 668 CURVE SMOOTH",
"26 644 OFFCURVE",
"8 614 OFFCURVE",
"8 577 CURVE SMOOTH",
"8 544 OFFCURVE",
"22 515 OFFCURVE",
"50 488 CURVE SMOOTH",
"81 458 OFFCURVE",
"124 437 OFFCURVE",
"179 424 CURVE SMOOTH",
"210 417 OFFCURVE",
"244 412 OFFCURVE",
"282 411 CURVE",
"287 399 OFFCURVE",
"293 388 OFFCURVE",
"301 377 CURVE",
"211 368 OFFCURVE",
"139 337 OFFCURVE",
"85 285 CURVE SMOOTH",
"36 238 OFFCURVE",
"11 184 OFFCURVE",
"11 125 CURVE SMOOTH",
"11 72 OFFCURVE",
"31 28 OFFCURVE",
"72 -6 CURVE SMOOTH",
"117 -44 OFFCURVE",
"180 -63 OFFCURVE",
"261 -63 CURVE SMOOTH",
"345 -63 OFFCURVE",
"420 -36 OFFCURVE",
"487 17 CURVE SMOOTH",
"548 66 OFFCURVE",
"579 115 OFFCURVE",
"579 165 CURVE SMOOTH",
"579 218 OFFCURVE",
"540 244 OFFCURVE",
"463 244 CURVE SMOOTH",
"451 244 OFFCURVE",
"439 243 OFFCURVE",
"426 242 CURVE SMOOTH",
"372 237 OFFCURVE",
"318 213 OFFCURVE",
"263 172 CURVE SMOOTH",
"218 139 OFFCURVE",
"190 110 OFFCURVE",
"179 85 CURVE",
"178 81 OFFCURVE",
"179 78 OFFCURVE",
"183 76 CURVE SMOOTH",
"187 74 OFFCURVE",
"190 75 OFFCURVE",
"191 79 CURVE",
"200 99 OFFCURVE",
"230 127 OFFCURVE",
"279 161 CURVE SMOOTH",
"335 200 OFFCURVE",
"380 219 OFFCURVE",
"415 219 CURVE SMOOTH",
"490 219 OFFCURVE",
"527 195 OFFCURVE",
"527 147 CURVE SMOOTH",
"527 104 OFFCURVE",
"500 62 OFFCURVE",
"447 19 CURVE SMOOTH",
"390 -27 OFFCURVE",
"328 -50 OFFCURVE",
"261 -50 CURVE SMOOTH",
"212 -50 OFFCURVE",
"173 -34 OFFCURVE",
"146 -1 CURVE SMOOTH",
"121 28 OFFCURVE",
"109 66 OFFCURVE",
"109 112 CURVE SMOOTH",
"109 170 OFFCURVE",
"127 223 OFFCURVE",
"162 271 CURVE SMOOTH",
"201 323 OFFCURVE",
"251 354 OFFCURVE",
"313 364 CURVE",
"336 341 OFFCURVE",
"365 329 OFFCURVE",
"399 329 CURVE SMOOTH",
"425 329 OFFCURVE",
"438 337 OFFCURVE",
"438 352 CURVE SMOOTH",
"438 368 OFFCURVE",
"426 377 OFFCURVE",
"402 379 CURVE SMOOTH",
"379 380 OFFCURVE",
"356 381 OFFCURVE",
"334 380 CURVE",
"330 389 OFFCURVE",
"327 399 OFFCURVE",
"326 411 CURVE",
"450 415 OFFCURVE",
"546 441 OFFCURVE",
"614 488 CURVE SMOOTH"
);
},
{
closed = 1;
nodes = (
"517 460 OFFCURVE",
"430 433 OFFCURVE",
"326 428 CURVE",
"330 481 OFFCURVE",
"357 531 OFFCURVE",
"408 576 CURVE SMOOTH",
"470 631 OFFCURVE",
"534 658 OFFCURVE",
"599 658 CURVE SMOOTH",
"648 658 OFFCURVE",
"672 643 OFFCURVE",
"672 613 CURVE SMOOTH",
"672 584 OFFCURVE",
"644 549 OFFCURVE",
"587 509 CURVE SMOOTH"
);
},
{
closed = 1;
nodes = (
"665 854 LINE SMOOTH",
"665 856 OFFCURVE",
"660 857 OFFCURVE",
"652 857 CURVE SMOOTH",
"645 857 OFFCURVE",
"633 856 OFFCURVE",
"618 854 CURVE",
"435 724 LINE SMOOTH",
"434 723 OFFCURVE",
"434 722 OFFCURVE",
"434 721 CURVE SMOOTH",
"434 718 OFFCURVE",
"438 718 OFFCURVE",
"446 718 CURVE SMOOTH",
"455 718 OFFCURVE",
"461 720 OFFCURVE",
"466 724 CURVE",
"628 811 LINE",
"684 724 LINE SMOOTH",
"686 721 OFFCURVE",
"689 719 OFFCURVE",
"694 718 CURVE SMOOTH",
"698 717 OFFCURVE",
"701 717 OFFCURVE",
"703 717 CURVE SMOOTH",
"704 717 OFFCURVE",
"705 717 OFFCURVE",
"706 717 CURVE SMOOTH",
"709 718 OFFCURVE",
"710 721 OFFCURVE",
"709 724 CURVE SMOOTH"
);
}
);
width = 586;
}
);
note = Ecircumflex;
unicode = 00CA;
},
{
glyphname = Edieresis;
lastChange = "2021-07-01 20:46:56 +0000";
layers = (
{
background = {
paths = (
{
closed = 1;
nodes = (
"668 526 OFFCURVE",
"695 564 OFFCURVE",
"695 603 CURVE SMOOTH",
"695 627 OFFCURVE",
"684 647 OFFCURVE",
"661 662 CURVE SMOOTH",
"639 677 OFFCURVE",
"610 685 OFFCURVE",
"573 685 CURVE SMOOTH",
"557 685 OFFCURVE",
"540 684 OFFCURVE",
"523 681 CURVE SMOOTH",
"439 667 OFFCURVE",
"375 637 OFFCURVE",
"330 592 CURVE SMOOTH",
"292 554 OFFCURVE",
"273 511 OFFCURVE",
"273 464 CURVE SMOOTH",
"273 451 OFFCURVE",
"274 439 OFFCURVE",
"277 427 CURVE",
"249 428 OFFCURVE",
"222 432 OFFCURVE",
"197 438 CURVE SMOOTH",
"153 448 OFFCURVE",
"119 467 OFFCURVE",
"94 495 CURVE SMOOTH",
"72 520 OFFCURVE",
"61 547 OFFCURVE",
"61 578 CURVE SMOOTH",
"61 611 OFFCURVE",
"73 638 OFFCURVE",
"98 659 CURVE SMOOTH",
"123 680 OFFCURVE",
"156 690 OFFCURVE",
"197 690 CURVE SMOOTH",
"244 690 OFFCURVE",
"292 678 OFFCURVE",
"340 655 CURVE SMOOTH",
"345 653 OFFCURVE",
"349 654 OFFCURVE",
"349 661 CURVE SMOOTH",
"349 663 OFFCURVE",
"348 666 OFFCURVE",
"346 667 CURVE",
"294 692 OFFCURVE",
"241 703 OFFCURVE",
"191 703 CURVE SMOOTH",
"137 703 OFFCURVE",
"94 691 OFFCURVE",
"60 668 CURVE SMOOTH",
"26 644 OFFCURVE",
"8 614 OFFCURVE",
"8 577 CURVE SMOOTH",
"8 544 OFFCURVE",
"22 515 OFFCURVE",
"50 488 CURVE SMOOTH",
"81 458 OFFCURVE",
"124 437 OFFCURVE",
"179 424 CURVE SMOOTH",
"210 417 OFFCURVE",
"244 412 OFFCURVE",
"282 411 CURVE",
"287 399 OFFCURVE",
"293 388 OFFCURVE",
"301 377 CURVE",
"211 368 OFFCURVE",
"139 337 OFFCURVE",
"85 285 CURVE SMOOTH",
"36 238 OFFCURVE",
"11 184 OFFCURVE",
"11 125 CURVE SMOOTH",
"11 72 OFFCURVE",
"31 28 OFFCURVE",
"72 -6 CURVE SMOOTH",
"117 -44 OFFCURVE",
"180 -63 OFFCURVE",
"261 -63 CURVE SMOOTH",
"345 -63 OFFCURVE",
"420 -36 OFFCURVE",
"487 17 CURVE SMOOTH",
"548 66 OFFCURVE",
"579 115 OFFCURVE",
"579 165 CURVE SMOOTH",
"579 218 OFFCURVE",
"540 244 OFFCURVE",
"463 244 CURVE SMOOTH",
"451 244 OFFCURVE",
"439 243 OFFCURVE",
"426 242 CURVE SMOOTH",
"372 237 OFFCURVE",
"318 213 OFFCURVE",
"263 172 CURVE SMOOTH",
"218 139 OFFCURVE",
"190 110 OFFCURVE",
"179 85 CURVE",
"178 81 OFFCURVE",
"179 78 OFFCURVE",
"183 76 CURVE SMOOTH",
"187 74 OFFCURVE",
"190 75 OFFCURVE",
"191 79 CURVE",
"200 99 OFFCURVE",
"230 127 OFFCURVE",
"279 161 CURVE SMOOTH",
"335 200 OFFCURVE",
"380 219 OFFCURVE",
"415 219 CURVE SMOOTH",
"490 219 OFFCURVE",
"527 195 OFFCURVE",
"527 147 CURVE SMOOTH",
"527 104 OFFCURVE",
"500 62 OFFCURVE",
"447 19 CURVE SMOOTH",
"390 -27 OFFCURVE",
"328 -50 OFFCURVE",
"261 -50 CURVE SMOOTH",
"212 -50 OFFCURVE",
"173 -34 OFFCURVE",
"146 -1 CURVE SMOOTH",
"121 28 OFFCURVE",
"109 66 OFFCURVE",
"109 112 CURVE SMOOTH",
"109 170 OFFCURVE",
"127 223 OFFCURVE",
"162 271 CURVE SMOOTH",
"201 323 OFFCURVE",
"251 354 OFFCURVE",
"313 364 CURVE",
"336 341 OFFCURVE",
"365 329 OFFCURVE",
"399 329 CURVE SMOOTH",
"425 329 OFFCURVE",
"438 337 OFFCURVE",
"438 352 CURVE SMOOTH",
"438 368 OFFCURVE",
"426 377 OFFCURVE",
"402 379 CURVE SMOOTH",
"379 380 OFFCURVE",
"356 381 OFFCURVE",
"334 380 CURVE",
"330 389 OFFCURVE",
"327 399 OFFCURVE",
"326 411 CURVE",
"450 415 OFFCURVE",
"546 441 OFFCURVE",
"614 488 CURVE SMOOTH"
);
},
{
closed = 1;
nodes = (
"517 460 OFFCURVE",
"430 433 OFFCURVE",
"326 428 CURVE",
"330 481 OFFCURVE",
"357 531 OFFCURVE",
"408 576 CURVE SMOOTH",
"470 631 OFFCURVE",
"534 658 OFFCURVE",
"599 658 CURVE SMOOTH",
"648 658 OFFCURVE",
"672 643 OFFCURVE",
"672 613 CURVE SMOOTH",
"672 584 OFFCURVE",
"644 549 OFFCURVE",
"587 509 CURVE SMOOTH"
);
},
{
closed = 1;
nodes = (
"689 797 OFFCURVE",
"678 808 OFFCURVE",
"655 808 CURVE SMOOTH",
"634 808 OFFCURVE",
"623 797 OFFCURVE",
"623 775 CURVE SMOOTH",
"623 753 OFFCURVE",
"634 742 OFFCURVE",
"657 742 CURVE SMOOTH",
"678 742 OFFCURVE",
"689 753 OFFCURVE",
"689 775 CURVE SMOOTH"
);
},
{
closed = 1;
nodes = (
"560 797 OFFCURVE",
"549 808 OFFCURVE",
"526 808 CURVE SMOOTH",
"505 808 OFFCURVE",
"494 797 OFFCURVE",
"494 775 CURVE SMOOTH",
"494 753 OFFCURVE",
"505 742 OFFCURVE",
"528 742 CURVE SMOOTH",
"549 742 OFFCURVE",
"560 753 OFFCURVE",
"560 775 CURVE SMOOTH"
);
}
);
};
hints = (
{
horizontal = 1;
place = "{-64, 14}";
type = Stem;
},
{
horizontal = 1;
place = "{220, 26}";
type = Stem;
},
{
horizontal = 1;
place = "{330, 50}";
type = Stem;
},
{
horizontal = 1;
place = "{658, 28}";
type = Stem;
},
{
horizontal = 1;
place = "{690, 14}";
type = Stem;
},
{
place = "{8, 54}";
type = Stem;
},
{
place = "{528, 52}";
type = Stem;
},
{
place = "{672, 24}";
type = Stem;
},
{
horizontal = 1;
place = "{742, 66}";
type = Stem;
},
{
place = "{494, 66}";
type = Stem;
},
{
place = "{624, 66}";
type = Stem;
}
);
layerId = "3191725B-F824-48C7-90A0-BAE99CBF9356";
paths = (
{
closed = 1;
nodes = (
"668 526 OFFCURVE",
"695 564 OFFCURVE",
"695 603 CURVE SMOOTH",
"695 627 OFFCURVE",
"684 647 OFFCURVE",
"661 662 CURVE SMOOTH",
"639 677 OFFCURVE",
"610 685 OFFCURVE",
"573 685 CURVE SMOOTH",
"557 685 OFFCURVE",
"540 684 OFFCURVE",
"523 681 CURVE SMOOTH",
"439 667 OFFCURVE",
"375 637 OFFCURVE",
"330 592 CURVE SMOOTH",
"292 554 OFFCURVE",
"273 511 OFFCURVE",
"273 464 CURVE SMOOTH",
"273 451 OFFCURVE",
"274 439 OFFCURVE",
"277 427 CURVE",
"249 428 OFFCURVE",
"222 432 OFFCURVE",
"197 438 CURVE SMOOTH",
"153 448 OFFCURVE",
"119 467 OFFCURVE",
"94 495 CURVE SMOOTH",
"72 520 OFFCURVE",
"61 547 OFFCURVE",
"61 578 CURVE SMOOTH",
"61 611 OFFCURVE",
"73 638 OFFCURVE",
"98 659 CURVE SMOOTH",
"123 680 OFFCURVE",
"156 690 OFFCURVE",
"197 690 CURVE SMOOTH",
"244 690 OFFCURVE",
"292 678 OFFCURVE",
"340 655 CURVE SMOOTH",
"345 653 OFFCURVE",
"349 654 OFFCURVE",
"349 661 CURVE SMOOTH",
"349 663 OFFCURVE",
"348 666 OFFCURVE",
"346 667 CURVE",
"294 692 OFFCURVE",
"241 703 OFFCURVE",
"191 703 CURVE SMOOTH",
"137 703 OFFCURVE",
"94 691 OFFCURVE",
"60 668 CURVE SMOOTH",
"26 644 OFFCURVE",
"8 614 OFFCURVE",
"8 577 CURVE SMOOTH",
"8 544 OFFCURVE",
"22 515 OFFCURVE",
"50 488 CURVE SMOOTH",
"81 458 OFFCURVE",
"124 437 OFFCURVE",
"179 424 CURVE SMOOTH",
"210 417 OFFCURVE",
"244 412 OFFCURVE",
"282 411 CURVE",
"287 399 OFFCURVE",
"293 388 OFFCURVE",
"301 377 CURVE",
"211 368 OFFCURVE",
"139 337 OFFCURVE",
"85 285 CURVE SMOOTH",
"36 238 OFFCURVE",
"11 184 OFFCURVE",
"11 125 CURVE SMOOTH",
"11 72 OFFCURVE",
"31 28 OFFCURVE",
"72 -6 CURVE SMOOTH",
"117 -44 OFFCURVE",
"180 -63 OFFCURVE",
"261 -63 CURVE SMOOTH",
"345 -63 OFFCURVE",
"420 -36 OFFCURVE",
"487 17 CURVE SMOOTH",
"548 66 OFFCURVE",
"579 115 OFFCURVE",
"579 165 CURVE SMOOTH",
"579 218 OFFCURVE",
"540 244 OFFCURVE",
"463 244 CURVE SMOOTH",
"451 244 OFFCURVE",
"439 243 OFFCURVE",
"426 242 CURVE SMOOTH",
"372 237 OFFCURVE",
"318 213 OFFCURVE",
"263 172 CURVE SMOOTH",
"218 139 OFFCURVE",
"190 110 OFFCURVE",
"179 85 CURVE",
"178 81 OFFCURVE",
"179 78 OFFCURVE",
"183 76 CURVE SMOOTH",
"187 74 OFFCURVE",
"190 75 OFFCURVE",
"191 79 CURVE",
"200 99 OFFCURVE",
"230 127 OFFCURVE",
"279 161 CURVE SMOOTH",
"335 200 OFFCURVE",
"380 219 OFFCURVE",
"415 219 CURVE SMOOTH",
"490 219 OFFCURVE",
"527 195 OFFCURVE",
"527 147 CURVE SMOOTH",
"527 104 OFFCURVE",
"500 62 OFFCURVE",
"447 19 CURVE SMOOTH",
"390 -27 OFFCURVE",
"328 -50 OFFCURVE",
"261 -50 CURVE SMOOTH",
"212 -50 OFFCURVE",
"173 -34 OFFCURVE",
"146 -1 CURVE SMOOTH",
"121 28 OFFCURVE",
"109 66 OFFCURVE",
"109 112 CURVE SMOOTH",
"109 170 OFFCURVE",
"127 223 OFFCURVE",
"162 271 CURVE SMOOTH",
"201 323 OFFCURVE",
"251 354 OFFCURVE",
"313 364 CURVE",
"336 341 OFFCURVE",
"365 329 OFFCURVE",
"399 329 CURVE SMOOTH",
"425 329 OFFCURVE",
"438 337 OFFCURVE",
"438 352 CURVE SMOOTH",
"438 368 OFFCURVE",
"426 377 OFFCURVE",
"402 379 CURVE SMOOTH",
"379 380 OFFCURVE",
"356 381 OFFCURVE",
"334 380 CURVE",
"330 389 OFFCURVE",
"327 399 OFFCURVE",
"326 411 CURVE",
"450 415 OFFCURVE",
"546 441 OFFCURVE",
"614 488 CURVE SMOOTH"
);
},
{
closed = 1;
nodes = (
"517 460 OFFCURVE",
"430 433 OFFCURVE",
"326 428 CURVE",
"330 481 OFFCURVE",
"357 531 OFFCURVE",
"408 576 CURVE SMOOTH",
"470 631 OFFCURVE",
"534 658 OFFCURVE",
"599 658 CURVE SMOOTH",
"648 658 OFFCURVE",
"672 643 OFFCURVE",
"672 613 CURVE SMOOTH",
"672 584 OFFCURVE",
"644 549 OFFCURVE",
"587 509 CURVE SMOOTH"
);
},
{
closed = 1;
nodes = (
"689 797 OFFCURVE",
"678 808 OFFCURVE",
"655 808 CURVE SMOOTH",
"634 808 OFFCURVE",
"623 797 OFFCURVE",
"623 775 CURVE SMOOTH",
"623 753 OFFCURVE",
"634 742 OFFCURVE",
"657 742 CURVE SMOOTH",
"678 742 OFFCURVE",
"689 753 OFFCURVE",
"689 775 CURVE SMOOTH"
);
},
{
closed = 1;
nodes = (
"560 797 OFFCURVE",
"549 808 OFFCURVE",
"526 808 CURVE SMOOTH",
"505 808 OFFCURVE",
"494 797 OFFCURVE",
"494 775 CURVE SMOOTH",
"494 753 OFFCURVE",
"505 742 OFFCURVE",
"528 742 CURVE SMOOTH",
"549 742 OFFCURVE",
"560 753 OFFCURVE",
"560 775 CURVE SMOOTH"
);
}
);
width = 586;
}
);
note = Edieresis;
unicode = 00CB;
},
{
glyphname = Egrave;
lastChange = "2021-07-01 20:46:56 +0000";
layers = (
{
background = {
paths = (
{
closed = 1;
nodes = (
"668 526 OFFCURVE",
"695 564 OFFCURVE",
"695 603 CURVE SMOOTH",
"695 627 OFFCURVE",
"684 647 OFFCURVE",
"661 662 CURVE SMOOTH",
"639 677 OFFCURVE",
"610 685 OFFCURVE",
"573 685 CURVE SMOOTH",
"557 685 OFFCURVE",
"540 684 OFFCURVE",
"523 681 CURVE SMOOTH",
"439 667 OFFCURVE",
"375 637 OFFCURVE",
"330 592 CURVE SMOOTH",
"292 554 OFFCURVE",
"273 511 OFFCURVE",
"273 464 CURVE SMOOTH",
"273 451 OFFCURVE",
"274 439 OFFCURVE",
"277 427 CURVE",
"249 428 OFFCURVE",
"222 432 OFFCURVE",
"197 438 CURVE SMOOTH",
"153 448 OFFCURVE",
"119 467 OFFCURVE",
"94 495 CURVE SMOOTH",
"72 520 OFFCURVE",
"61 547 OFFCURVE",
"61 578 CURVE SMOOTH",
"61 611 OFFCURVE",
"73 638 OFFCURVE",
"98 659 CURVE SMOOTH",
"123 680 OFFCURVE",
"156 690 OFFCURVE",
"197 690 CURVE SMOOTH",
"244 690 OFFCURVE",
"292 678 OFFCURVE",
"340 655 CURVE SMOOTH",
"345 653 OFFCURVE",
"349 654 OFFCURVE",
"349 661 CURVE SMOOTH",
"349 663 OFFCURVE",
"348 666 OFFCURVE",
"346 667 CURVE",
"294 692 OFFCURVE",
"241 703 OFFCURVE",
"191 703 CURVE SMOOTH",
"137 703 OFFCURVE",
"94 691 OFFCURVE",
"60 668 CURVE SMOOTH",
"26 644 OFFCURVE",
"8 614 OFFCURVE",
"8 577 CURVE SMOOTH",
"8 544 OFFCURVE",
"22 515 OFFCURVE",
"50 488 CURVE SMOOTH",
"81 458 OFFCURVE",
"124 437 OFFCURVE",
"179 424 CURVE SMOOTH",
"210 417 OFFCURVE",
"244 412 OFFCURVE",
"282 411 CURVE",
"287 399 OFFCURVE",
"293 388 OFFCURVE",
"301 377 CURVE",
"211 368 OFFCURVE",
"139 337 OFFCURVE",
"85 285 CURVE SMOOTH",
"36 238 OFFCURVE",
"11 184 OFFCURVE",
"11 125 CURVE SMOOTH",
"11 72 OFFCURVE",
"31 28 OFFCURVE",
"72 -6 CURVE SMOOTH",
"117 -44 OFFCURVE",
"180 -63 OFFCURVE",
"261 -63 CURVE SMOOTH",
"345 -63 OFFCURVE",
"420 -36 OFFCURVE",
"487 17 CURVE SMOOTH",
"548 66 OFFCURVE",
"579 115 OFFCURVE",
"579 165 CURVE SMOOTH",
"579 218 OFFCURVE",
"540 244 OFFCURVE",
"463 244 CURVE SMOOTH",
"451 244 OFFCURVE",
"439 243 OFFCURVE",
"426 242 CURVE SMOOTH",
"372 237 OFFCURVE",
"318 213 OFFCURVE",
"263 172 CURVE SMOOTH",
"218 139 OFFCURVE",
"190 110 OFFCURVE",
"179 85 CURVE",
"178 81 OFFCURVE",
"179 78 OFFCURVE",
"183 76 CURVE SMOOTH",
"187 74 OFFCURVE",
"190 75 OFFCURVE",
"191 79 CURVE",
"200 99 OFFCURVE",
"230 127 OFFCURVE",
"279 161 CURVE SMOOTH",
"335 200 OFFCURVE",
"380 219 OFFCURVE",
"415 219 CURVE SMOOTH",
"490 219 OFFCURVE",
"527 195 OFFCURVE",
"527 147 CURVE SMOOTH",
"527 104 OFFCURVE",
"500 62 OFFCURVE",
"447 19 CURVE SMOOTH",
"390 -27 OFFCURVE",
"328 -50 OFFCURVE",
"261 -50 CURVE SMOOTH",
"212 -50 OFFCURVE",
"173 -34 OFFCURVE",
"146 -1 CURVE SMOOTH",
"121 28 OFFCURVE",
"109 66 OFFCURVE",
"109 112 CURVE SMOOTH",
"109 170 OFFCURVE",
"127 223 OFFCURVE",
"162 271 CURVE SMOOTH",
"201 323 OFFCURVE",
"251 354 OFFCURVE",
"313 364 CURVE",
"336 341 OFFCURVE",
"365 329 OFFCURVE",
"399 329 CURVE SMOOTH",
"425 329 OFFCURVE",
"438 337 OFFCURVE",
"438 352 CURVE SMOOTH",
"438 368 OFFCURVE",
"426 377 OFFCURVE",
"402 379 CURVE SMOOTH",
"379 380 OFFCURVE",
"356 381 OFFCURVE",
"334 380 CURVE",
"330 389 OFFCURVE",
"327 399 OFFCURVE",
"326 411 CURVE",
"450 415 OFFCURVE",
"546 441 OFFCURVE",
"614 488 CURVE SMOOTH"
);
},
{
closed = 1;
nodes = (
"517 460 OFFCURVE",
"430 433 OFFCURVE",
"326 428 CURVE",
"330 481 OFFCURVE",
"357 531 OFFCURVE",
"408 576 CURVE SMOOTH",
"470 631 OFFCURVE",
"534 658 OFFCURVE",
"599 658 CURVE SMOOTH",
"648 658 OFFCURVE",
"672 643 OFFCURVE",
"672 613 CURVE SMOOTH",
"672 584 OFFCURVE",
"644 549 OFFCURVE",
"587 509 CURVE SMOOTH"
);
},
{
closed = 1;
nodes = (
"640 722 OFFCURVE",
"615 744 OFFCURVE",
"564 784 CURVE SMOOTH",
"513 824 OFFCURVE",
"484 844 OFFCURVE",
"475 844 CURVE SMOOTH",
"462 844 OFFCURVE",
"456 837 OFFCURVE",
"456 823 CURVE SMOOTH",
"456 805 OFFCURVE",
"468 790 OFFCURVE",
"493 777 CURVE SMOOTH",
"517 765 OFFCURVE",
"541 753 OFFCURVE",
"565 740 CURVE SMOOTH",
"604 719 OFFCURVE",
"626 709 OFFCURVE",
"630 709 CURVE SMOOTH",
"637 709 OFFCURVE",
"640 712 OFFCURVE",
"640 718 CURVE SMOOTH"
);
}
);
};
hints = (
{
horizontal = 1;
place = "{-64, 14}";
type = Stem;
},
{
horizontal = 1;
place = "{220, 26}";
type = Stem;
},
{
horizontal = 1;
place = "{330, 50}";
type = Stem;
},
{
horizontal = 1;
place = "{658, 28}";
type = Stem;
},
{
horizontal = 1;
place = "{690, 14}";
type = Stem;
},
{
place = "{8, 54}";
type = Stem;
},
{
place = "{528, 52}";
type = Stem;
},
{
place = "{672, 24}";
type = Stem;
}
);
layerId = "3191725B-F824-48C7-90A0-BAE99CBF9356";
paths = (
{
closed = 1;
nodes = (
"668 526 OFFCURVE",
"695 564 OFFCURVE",
"695 603 CURVE SMOOTH",
"695 627 OFFCURVE",
"684 647 OFFCURVE",
"661 662 CURVE SMOOTH",
"639 677 OFFCURVE",
"610 685 OFFCURVE",
"573 685 CURVE SMOOTH",
"557 685 OFFCURVE",
"540 684 OFFCURVE",
"523 681 CURVE SMOOTH",
"439 667 OFFCURVE",
"375 637 OFFCURVE",
"330 592 CURVE SMOOTH",
"292 554 OFFCURVE",
"273 511 OFFCURVE",
"273 464 CURVE SMOOTH",
"273 451 OFFCURVE",
"274 439 OFFCURVE",
"277 427 CURVE",
"249 428 OFFCURVE",
"222 432 OFFCURVE",
"197 438 CURVE SMOOTH",
"153 448 OFFCURVE",
"119 467 OFFCURVE",
"94 495 CURVE SMOOTH",
"72 520 OFFCURVE",
"61 547 OFFCURVE",
"61 578 CURVE SMOOTH",
"61 611 OFFCURVE",
"73 638 OFFCURVE",
"98 659 CURVE SMOOTH",
"123 680 OFFCURVE",
"156 690 OFFCURVE",
"197 690 CURVE SMOOTH",
"244 690 OFFCURVE",
"292 678 OFFCURVE",
"340 655 CURVE SMOOTH",
"345 653 OFFCURVE",
"349 654 OFFCURVE",
"349 661 CURVE SMOOTH",
"349 663 OFFCURVE",
"348 666 OFFCURVE",
"346 667 CURVE",
"294 692 OFFCURVE",
"241 703 OFFCURVE",
"191 703 CURVE SMOOTH",
"137 703 OFFCURVE",
"94 691 OFFCURVE",
"60 668 CURVE SMOOTH",
"26 644 OFFCURVE",
"8 614 OFFCURVE",
"8 577 CURVE SMOOTH",
"8 544 OFFCURVE",
"22 515 OFFCURVE",
"50 488 CURVE SMOOTH",
"81 458 OFFCURVE",
"124 437 OFFCURVE",
"179 424 CURVE SMOOTH",
"210 417 OFFCURVE",
"244 412 OFFCURVE",
"282 411 CURVE",
"287 399 OFFCURVE",
"293 388 OFFCURVE",
"301 377 CURVE",
"211 368 OFFCURVE",
"139 337 OFFCURVE",
"85 285 CURVE SMOOTH",
"36 238 OFFCURVE",
"11 184 OFFCURVE",
"11 125 CURVE SMOOTH",
"11 72 OFFCURVE",
"31 28 OFFCURVE",
"72 -6 CURVE SMOOTH",
"117 -44 OFFCURVE",
"180 -63 OFFCURVE",
"261 -63 CURVE SMOOTH",
"345 -63 OFFCURVE",
"420 -36 OFFCURVE",
"487 17 CURVE SMOOTH",
"548 66 OFFCURVE",
"579 115 OFFCURVE",
"579 165 CURVE SMOOTH",
"579 218 OFFCURVE",
"540 244 OFFCURVE",
"463 244 CURVE SMOOTH",
"451 244 OFFCURVE",
"439 243 OFFCURVE",
"426 242 CURVE SMOOTH",
"372 237 OFFCURVE",
"318 213 OFFCURVE",
"263 172 CURVE SMOOTH",
"218 139 OFFCURVE",
"190 110 OFFCURVE",
"179 85 CURVE",
"178 81 OFFCURVE",
"179 78 OFFCURVE",
"183 76 CURVE SMOOTH",
"187 74 OFFCURVE",
"190 75 OFFCURVE",
"191 79 CURVE",
"200 99 OFFCURVE",
"230 127 OFFCURVE",
"279 161 CURVE SMOOTH",
"335 200 OFFCURVE",
"380 219 OFFCURVE",
"415 219 CURVE SMOOTH",
"490 219 OFFCURVE",
"527 195 OFFCURVE",
"527 147 CURVE SMOOTH",
"527 104 OFFCURVE",
"500 62 OFFCURVE",
"447 19 CURVE SMOOTH",
"390 -27 OFFCURVE",
"328 -50 OFFCURVE",
"261 -50 CURVE SMOOTH",
"212 -50 OFFCURVE",
"173 -34 OFFCURVE",
"146 -1 CURVE SMOOTH",
"121 28 OFFCURVE",
"109 66 OFFCURVE",
"109 112 CURVE SMOOTH",
"109 170 OFFCURVE",
"127 223 OFFCURVE",
"162 271 CURVE SMOOTH",
"201 323 OFFCURVE",
"251 354 OFFCURVE",
"313 364 CURVE",
"336 341 OFFCURVE",
"365 329 OFFCURVE",
"399 329 CURVE SMOOTH",
"425 329 OFFCURVE",
"438 337 OFFCURVE",
"438 352 CURVE SMOOTH",
"438 368 OFFCURVE",
"426 377 OFFCURVE",
"402 379 CURVE SMOOTH",
"379 380 OFFCURVE",
"356 381 OFFCURVE",
"334 380 CURVE",
"330 389 OFFCURVE",
"327 399 OFFCURVE",
"326 411 CURVE",
"450 415 OFFCURVE",
"546 441 OFFCURVE",
"614 488 CURVE SMOOTH"
);
},
{
closed = 1;
nodes = (
"517 460 OFFCURVE",
"430 433 OFFCURVE",
"326 428 CURVE",
"330 481 OFFCURVE",
"357 531 OFFCURVE",
"408 576 CURVE SMOOTH",
"470 631 OFFCURVE",
"534 658 OFFCURVE",
"599 658 CURVE SMOOTH",
"648 658 OFFCURVE",
"672 643 OFFCURVE",
"672 613 CURVE SMOOTH",
"672 584 OFFCURVE",
"644 549 OFFCURVE",
"587 509 CURVE SMOOTH"
);
},
{
closed = 1;
nodes = (
"640 722 OFFCURVE",
"615 744 OFFCURVE",
"564 784 CURVE SMOOTH",
"513 824 OFFCURVE",
"484 844 OFFCURVE",
"475 844 CURVE SMOOTH",
"462 844 OFFCURVE",
"456 837 OFFCURVE",
"456 823 CURVE SMOOTH",
"456 805 OFFCURVE",
"468 790 OFFCURVE",
"493 777 CURVE SMOOTH",
"517 765 OFFCURVE",
"541 753 OFFCURVE",
"565 740 CURVE SMOOTH",
"604 719 OFFCURVE",
"626 709 OFFCURVE",
"630 709 CURVE SMOOTH",
"637 709 OFFCURVE",
"640 712 OFFCURVE",
"640 718 CURVE SMOOTH"
);
}
);
width = 586;
}
);
note = Egrave;
unicode = 00C8;
},
{
glyphname = F;
lastChange = "2021-07-01 20:46:56 +0000";
layers = (
{
background = {
paths = (
{
closed = 1;
nodes = (
"896 675 OFFCURVE",
"897 678 OFFCURVE",
"897 681 CURVE SMOOTH",
"897 685 OFFCURVE",
"895 687 OFFCURVE",
"891 687 CURVE SMOOTH",
"886 687 OFFCURVE",
"883 684 OFFCURVE",
"881 677 CURVE SMOOTH",
"877 660 OFFCURVE",
"859 648 OFFCURVE",
"826 639 CURVE SMOOTH",
"804 633 OFFCURVE",
"781 629 OFFCURVE",
"759 629 CURVE SMOOTH",
"720 629 OFFCURVE",
"644 642 OFFCURVE",
"533 664 CURVE SMOOTH",
"442 683 OFFCURVE",
"371 692 OFFCURVE",
"321 692 CURVE SMOOTH",
"250 692 OFFCURVE",
"187 677 OFFCURVE",
"131 649 CURVE SMOOTH",
"96 631 OFFCURVE",
"68 608 OFFCURVE",
"49 578 CURVE SMOOTH",
"30 549 OFFCURVE",
"20 518 OFFCURVE",
"20 486 CURVE SMOOTH",
"20 449 OFFCURVE",
"32 418 OFFCURVE",
"56 394 CURVE SMOOTH",
"85 364 OFFCURVE",
"129 348 OFFCURVE",
"185 348 CURVE SMOOTH",
"247 348 OFFCURVE",
"303 368 OFFCURVE",
"355 405 CURVE SMOOTH",
"404 441 OFFCURVE",
"441 489 OFFCURVE",
"467 549 CURVE SMOOTH",
"469 554 OFFCURVE",
"468 557 OFFCURVE",
"461 557 CURVE SMOOTH",
"456 557 OFFCURVE",
"451 555 OFFCURVE",
"448 550 CURVE SMOOTH",
"419 497 OFFCURVE",
"381 456 OFFCURVE",
"335 424 CURVE SMOOTH",
"281 386 OFFCURVE",
"229 366 OFFCURVE",
"180 366 CURVE SMOOTH",
"104 366 OFFCURVE",
"66 397 OFFCURVE",
"66 451 CURVE SMOOTH",
"66 475 OFFCURVE",
"74 500 OFFCURVE",
"91 527 CURVE SMOOTH",
"108 553 OFFCURVE",
"130 574 OFFCURVE",
"156 592 CURVE SMOOTH",
"203 623 OFFCURVE",
"263 639 OFFCURVE",
"338 639 CURVE SMOOTH",
"381 639 OFFCURVE",
"443 633 OFFCURVE",
"522 620 CURVE SMOOTH",
"636 602 OFFCURVE",
"704 595 OFFCURVE",
"726 595 CURVE SMOOTH",
"755 595 OFFCURVE",
"783 599 OFFCURVE",
"809 607 CURVE SMOOTH",
"852 620 OFFCURVE",
"880 641 OFFCURVE",
"894 672 CURVE"
);
},
{
closed = 1;
nodes = (
"705 572 OFFCURVE",
"708 574 OFFCURVE",
"708 577 CURVE SMOOTH",
"708 580 OFFCURVE",
"705 581 OFFCURVE",
"701 582 CURVE SMOOTH",
"689 584 OFFCURVE",
"677 585 OFFCURVE",
"666 585 CURVE SMOOTH",
"584 585 OFFCURVE",
"508 525 OFFCURVE",
"445 403 CURVE SMOOTH",
"397 310 LINE",
"306 304 OFFCURVE",
"239 294 OFFCURVE",
"196 279 CURVE SMOOTH",
"137 259 OFFCURVE",
"108 228 OFFCURVE",
"108 186 CURVE SMOOTH",
"108 168 OFFCURVE",
"113 151 OFFCURVE",
"124 134 CURVE SMOOTH",
"135 118 OFFCURVE",
"147 106 OFFCURVE",
"162 98 CURVE",
"165 97 OFFCURVE",
"168 98 OFFCURVE",
"170 101 CURVE SMOOTH",
"172 105 OFFCURVE",
"171 108 OFFCURVE",
"168 110 CURVE SMOOTH",
"147 121 OFFCURVE",
"137 138 OFFCURVE",
"137 163 CURVE SMOOTH",
"137 202 OFFCURVE",
"169 233 OFFCURVE",
"233 255 CURVE SMOOTH",
"275 269 OFFCURVE",
"326 280 OFFCURVE",
"385 288 CURVE",
"350 221 OFFCURVE",
"316 164 OFFCURVE",
"284 116 CURVE SMOOTH",
"257 75 OFFCURVE",
"231 45 OFFCURVE",
"206 26 CURVE SMOOTH",
"175 2 OFFCURVE",
"139 -12 OFFCURVE",
"99 -12 CURVE SMOOTH",
"87 -12 OFFCURVE",
"77 -10 OFFCURVE",
"67 -6 CURVE SMOOTH",
"51 0 OFFCURVE",
"42 10 OFFCURVE",
"40 24 CURVE",
"49 15 OFFCURVE",
"60 10 OFFCURVE",
"72 10 CURVE SMOOTH",
"86 10 OFFCURVE",
"98 15 OFFCURVE",
"109 25 CURVE SMOOTH",
"120 35 OFFCURVE",
"126 49 OFFCURVE",
"126 64 CURVE SMOOTH",
"126 75 OFFCURVE",
"123 85 OFFCURVE",
"115 94 CURVE SMOOTH",
"106 103 OFFCURVE",
"95 108 OFFCURVE",
"82 108 CURVE SMOOTH",
"63 108 OFFCURVE",
"46 100 OFFCURVE",
"33 85 CURVE SMOOTH",
"21 72 OFFCURVE",
"15 56 OFFCURVE",
"15 39 CURVE SMOOTH",
"15 13 OFFCURVE",
"25 -6 OFFCURVE",
"46 -20 CURVE SMOOTH",
"69 -36 OFFCURVE",
"97 -44 OFFCURVE",
"131 -44 CURVE SMOOTH",
"180 -44 OFFCURVE",
"225 -30 OFFCURVE",
"266 -1 CURVE SMOOTH",
"343 54 OFFCURVE",
"410 153 OFFCURVE",
"468 297 CURVE",
"507 300 OFFCURVE",
"530 302 OFFCURVE",
"536 303 CURVE",
"527 280 OFFCURVE",
"522 252 OFFCURVE",
"523 221 CURVE",
"524 217 OFFCURVE",
"526 215 OFFCURVE",
"530 214 CURVE SMOOTH",
"534 214 OFFCURVE",
"536 216 OFFCURVE",
"536 220 CURVE SMOOTH",
"537 250 OFFCURVE",
"543 278 OFFCURVE",
"556 305 CURVE",
"570 307 OFFCURVE",
"581 309 OFFCURVE",
"590 311 CURVE SMOOTH",
"636 325 OFFCURVE",
"659 344 OFFCURVE",
"659 368 CURVE SMOOTH",
"659 383 OFFCURVE",
"651 390 OFFCURVE",
"634 390 CURVE SMOOTH",
"625 390 OFFCURVE",
"616 387 OFFCURVE",
"607 382 CURVE SMOOTH",
"575 365 OFFCURVE",
"553 345 OFFCURVE",
"542 322 CURVE",
"525 320 OFFCURVE",
"503 318 OFFCURVE",
"476 316 CURVE",
"493 360 OFFCURVE",
"506 393 OFFCURVE",
"515 414 CURVE SMOOTH",
"558 521 OFFCURVE",
"613 574 OFFCURVE",
"680 574 CURVE SMOOTH",
"687 574 OFFCURVE",
"695 572 OFFCURVE",
"702 572 CURVE SMOOTH"
);
}
);
};
hints = (
{
horizontal = 1;
place = "{-44, 20}";
type = Stem;
},
{
horizontal = 1;
place = "{10, 98}";
type = Stem;
},
{
horizontal = 1;
place = "{304, 20}";
type = Stem;
},
{
horizontal = 1;
place = "{350, 18}";
type = Stem;
},
{
horizontal = 1;
place = "{574, 12}";
type = Stem;
},
{
horizontal = 1;
place = "{640, 54}";
type = Stem;
},
{
place = "{20, 46}";
type = Stem;
},
{
place = "{108, 30}";
type = Stem;
},
{
place = "{524, 14}";
type = Stem;
}
);
layerId = "3191725B-F824-48C7-90A0-BAE99CBF9356";
paths = (
{
closed = 1;
nodes = (
"896 675 OFFCURVE",
"897 678 OFFCURVE",
"897 681 CURVE SMOOTH",
"897 685 OFFCURVE",
"895 687 OFFCURVE",
"891 687 CURVE SMOOTH",
"886 687 OFFCURVE",
"883 684 OFFCURVE",
"881 677 CURVE SMOOTH",
"877 660 OFFCURVE",
"859 648 OFFCURVE",
"826 639 CURVE SMOOTH",
"804 633 OFFCURVE",
"781 629 OFFCURVE",
"759 629 CURVE SMOOTH",
"720 629 OFFCURVE",
"644 642 OFFCURVE",
"533 664 CURVE SMOOTH",
"442 683 OFFCURVE",
"371 692 OFFCURVE",
"321 692 CURVE SMOOTH",
"250 692 OFFCURVE",
"187 677 OFFCURVE",
"131 649 CURVE SMOOTH",
"96 631 OFFCURVE",
"68 608 OFFCURVE",
"49 578 CURVE SMOOTH",
"30 549 OFFCURVE",
"20 518 OFFCURVE",
"20 486 CURVE SMOOTH",
"20 449 OFFCURVE",
"32 418 OFFCURVE",
"56 394 CURVE SMOOTH",
"85 364 OFFCURVE",
"129 348 OFFCURVE",
"185 348 CURVE SMOOTH",
"247 348 OFFCURVE",
"303 368 OFFCURVE",
"355 405 CURVE SMOOTH",
"404 441 OFFCURVE",
"441 489 OFFCURVE",
"467 549 CURVE SMOOTH",
"469 554 OFFCURVE",
"468 557 OFFCURVE",
"461 557 CURVE SMOOTH",
"456 557 OFFCURVE",
"451 555 OFFCURVE",
"448 550 CURVE SMOOTH",
"419 497 OFFCURVE",
"381 456 OFFCURVE",
"335 424 CURVE SMOOTH",
"281 386 OFFCURVE",
"229 366 OFFCURVE",
"180 366 CURVE SMOOTH",
"104 366 OFFCURVE",
"66 397 OFFCURVE",
"66 451 CURVE SMOOTH",
"66 475 OFFCURVE",
"74 500 OFFCURVE",
"91 527 CURVE SMOOTH",
"108 553 OFFCURVE",
"130 574 OFFCURVE",
"156 592 CURVE SMOOTH",
"203 623 OFFCURVE",
"263 639 OFFCURVE",
"338 639 CURVE SMOOTH",
"381 639 OFFCURVE",
"443 633 OFFCURVE",
"522 620 CURVE SMOOTH",
"636 602 OFFCURVE",
"704 595 OFFCURVE",
"726 595 CURVE SMOOTH",
"755 595 OFFCURVE",
"783 599 OFFCURVE",
"809 607 CURVE SMOOTH",
"852 620 OFFCURVE",
"880 641 OFFCURVE",
"894 672 CURVE"
);
},
{
closed = 1;
nodes = (
"705 572 OFFCURVE",
"708 574 OFFCURVE",
"708 577 CURVE SMOOTH",
"708 580 OFFCURVE",
"705 581 OFFCURVE",
"701 582 CURVE SMOOTH",
"689 584 OFFCURVE",
"677 585 OFFCURVE",
"666 585 CURVE SMOOTH",
"584 585 OFFCURVE",
"508 525 OFFCURVE",
"445 403 CURVE SMOOTH",
"397 310 LINE",
"306 304 OFFCURVE",
"239 294 OFFCURVE",
"196 279 CURVE SMOOTH",
"137 259 OFFCURVE",
"108 228 OFFCURVE",
"108 186 CURVE SMOOTH",
"108 168 OFFCURVE",
"113 151 OFFCURVE",
"124 134 CURVE SMOOTH",
"135 118 OFFCURVE",
"147 106 OFFCURVE",
"162 98 CURVE",
"165 97 OFFCURVE",
"168 98 OFFCURVE",
"170 101 CURVE SMOOTH",
"172 105 OFFCURVE",
"171 108 OFFCURVE",
"168 110 CURVE SMOOTH",
"147 121 OFFCURVE",
"137 138 OFFCURVE",
"137 163 CURVE SMOOTH",
"137 202 OFFCURVE",
"169 233 OFFCURVE",
"233 255 CURVE SMOOTH",
"275 269 OFFCURVE",
"326 280 OFFCURVE",
"385 288 CURVE",
"350 221 OFFCURVE",
"316 164 OFFCURVE",
"284 116 CURVE SMOOTH",
"257 75 OFFCURVE",
"231 45 OFFCURVE",
"206 26 CURVE SMOOTH",
"175 2 OFFCURVE",
"139 -12 OFFCURVE",
"99 -12 CURVE SMOOTH",
"87 -12 OFFCURVE",
"77 -10 OFFCURVE",
"67 -6 CURVE SMOOTH",
"51 0 OFFCURVE",
"42 10 OFFCURVE",
"40 24 CURVE",
"49 15 OFFCURVE",
"60 10 OFFCURVE",
"72 10 CURVE SMOOTH",
"86 10 OFFCURVE",
"98 15 OFFCURVE",
"109 25 CURVE SMOOTH",
"120 35 OFFCURVE",
"126 49 OFFCURVE",
"126 64 CURVE SMOOTH",
"126 75 OFFCURVE",
"123 85 OFFCURVE",
"115 94 CURVE SMOOTH",
"106 103 OFFCURVE",
"95 108 OFFCURVE",
"82 108 CURVE SMOOTH",
"63 108 OFFCURVE",
"46 100 OFFCURVE",
"33 85 CURVE SMOOTH",
"21 72 OFFCURVE",
"15 56 OFFCURVE",
"15 39 CURVE SMOOTH",
"15 13 OFFCURVE",
"25 -6 OFFCURVE",
"46 -20 CURVE SMOOTH",
"69 -36 OFFCURVE",
"97 -44 OFFCURVE",
"131 -44 CURVE SMOOTH",
"180 -44 OFFCURVE",
"225 -30 OFFCURVE",
"266 -1 CURVE SMOOTH",
"343 54 OFFCURVE",
"410 153 OFFCURVE",
"468 297 CURVE",
"507 300 OFFCURVE",
"530 302 OFFCURVE",
"536 303 CURVE",
"527 280 OFFCURVE",
"522 252 OFFCURVE",
"523 221 CURVE",
"524 217 OFFCURVE",
"526 215 OFFCURVE",
"530 214 CURVE SMOOTH",
"534 214 OFFCURVE",
"536 216 OFFCURVE",
"536 220 CURVE SMOOTH",
"537 250 OFFCURVE",
"543 278 OFFCURVE",
"556 305 CURVE",
"570 307 OFFCURVE",
"581 309 OFFCURVE",
"590 311 CURVE SMOOTH",
"636 325 OFFCURVE",
"659 344 OFFCURVE",
"659 368 CURVE SMOOTH",
"659 383 OFFCURVE",
"651 390 OFFCURVE",
"634 390 CURVE SMOOTH",
"625 390 OFFCURVE",
"616 387 OFFCURVE",
"607 382 CURVE SMOOTH",
"575 365 OFFCURVE",
"553 345 OFFCURVE",
"542 322 CURVE",
"525 320 OFFCURVE",
"503 318 OFFCURVE",
"476 316 CURVE",
"493 360 OFFCURVE",
"506 393 OFFCURVE",
"515 414 CURVE SMOOTH",
"558 521 OFFCURVE",
"613 574 OFFCURVE",
"680 574 CURVE SMOOTH",
"687 574 OFFCURVE",
"695 572 OFFCURVE",
"702 572 CURVE SMOOTH"
);
}
);
width = 571;
}
);
note = F;
unicode = 0046;
},
{
glyphname = G;
lastChange = "2021-07-01 20:46:56 +0000";
layers = (
{
background = {
paths = (
{
closed = 1;
nodes = (
"721 550 OFFCURVE",
"757 597 OFFCURVE",
"757 641 CURVE SMOOTH",
"757 684 OFFCURVE",
"716 705 OFFCURVE",
"634 705 CURVE SMOOTH",
"543 705 OFFCURVE",
"449 677 OFFCURVE",
"352 621 CURVE",
"301 666 OFFCURVE",
"242 688 OFFCURVE",
"173 688 CURVE SMOOTH",
"134 688 OFFCURVE",
"100 680 OFFCURVE",
"70 662 CURVE SMOOTH",
"31 639 OFFCURVE",
"12 607 OFFCURVE",
"12 565 CURVE SMOOTH",
"12 536 OFFCURVE",
"24 507 OFFCURVE",
"48 480 CURVE SMOOTH",
"71 455 OFFCURVE",
"100 435 OFFCURVE",
"135 420 CURVE",
"86 343 OFFCURVE",
"61 265 OFFCURVE",
"61 186 CURVE SMOOTH",
"61 129 OFFCURVE",
"76 84 OFFCURVE",
"105 51 CURVE SMOOTH",
"138 14 OFFCURVE",
"189 -5 OFFCURVE",
"256 -5 CURVE SMOOTH",
"339 -5 OFFCURVE",
"423 56 OFFCURVE",
"506 177 CURVE",
"455 59 OFFCURVE",
"398 -46 OFFCURVE",
"335 -138 CURVE SMOOTH",
"267 -237 OFFCURVE",
"198 -286 OFFCURVE",
"128 -286 CURVE SMOOTH",
"93 -286 OFFCURVE",
"74 -275 OFFCURVE",
"71 -253 CURVE",
"80 -263 OFFCURVE",
"91 -268 OFFCURVE",
"105 -268 CURVE SMOOTH",
"118 -268 OFFCURVE",
"130 -263 OFFCURVE",
"141 -253 CURVE SMOOTH",
"153 -243 OFFCURVE",
"159 -229 OFFCURVE",
"159 -214 CURVE SMOOTH",
"159 -203 OFFCURVE",
"156 -193 OFFCURVE",
"148 -184 CURVE SMOOTH",
"139 -175 OFFCURVE",
"128 -170 OFFCURVE",
"115 -170 CURVE SMOOTH",
"75 -170 OFFCURVE",
"55 -194 OFFCURVE",
"55 -243 CURVE SMOOTH",
"55 -270 OFFCURVE",
"67 -291 OFFCURVE",
"90 -305 CURVE SMOOTH",
"110 -318 OFFCURVE",
"133 -324 OFFCURVE",
"160 -324 CURVE SMOOTH",
"209 -324 OFFCURVE",
"259 -304 OFFCURVE",
"312 -264 CURVE SMOOTH",
"376 -216 OFFCURVE",
"427 -149 OFFCURVE",
"458 -57 CURVE SMOOTH",
"485 24 OFFCURVE",
"507 107 OFFCURVE",
"532 189 CURVE SMOOTH",
"539 210 OFFCURVE",
"544 220 OFFCURVE",
"547 221 CURVE",
"561 234 OFFCURVE",
"572 245 OFFCURVE",
"579 254 CURVE SMOOTH",
"606 287 OFFCURVE",
"619 315 OFFCURVE",
"619 339 CURVE SMOOTH",
"619 361 OFFCURVE",
"610 372 OFFCURVE",
"591 372 CURVE SMOOTH",
"572 372 OFFCURVE",
"556 359 OFFCURVE",
"543 334 CURVE SMOOTH",
"535 317 OFFCURVE",
"529 299 OFFCURVE",
"527 278 CURVE",
"526 276 OFFCURVE",
"525 262 OFFCURVE",
"523 235 CURVE",
"519 228 LINE",
"477 169 OFFCURVE",
"440 124 OFFCURVE",
"408 94 CURVE SMOOTH",
"357 47 OFFCURVE",
"306 24 OFFCURVE",
"256 24 CURVE SMOOTH",
"221 24 OFFCURVE",
"193 36 OFFCURVE",
"170 59 CURVE SMOOTH",
"147 82 OFFCURVE",
"136 115 OFFCURVE",
"136 158 CURVE SMOOTH",
"136 229 OFFCURVE",
"164 309 OFFCURVE",
"221 398 CURVE",
"241 395 OFFCURVE",
"262 394 OFFCURVE",
"285 394 CURVE SMOOTH",
"430 394 OFFCURVE",
"551 429 OFFCURVE",
"650 499 CURVE SMOOTH"
);
},
{
closed = 1;
nodes = (
"698 686 OFFCURVE",
"719 674 OFFCURVE",
"719 649 CURVE SMOOTH",
"719 632 OFFCURVE",
"710 612 OFFCURVE",
"691 588 CURVE SMOOTH",
"674 567 OFFCURVE",
"656 549 OFFCURVE",
"636 535 CURVE SMOOTH",
"557 478 OFFCURVE",
"472 442 OFFCURVE",
"383 425 CURVE SMOOTH",
"351 419 OFFCURVE",
"319 416 OFFCURVE",
"288 416 CURVE SMOOTH",
"271 416 OFFCURVE",
"254 417 OFFCURVE",
"236 420 CURVE",
"275 477 OFFCURVE",
"320 527 OFFCURVE",
"371 570 CURVE",
"387 550 OFFCURVE",
"398 535 OFFCURVE",
"405 524 CURVE SMOOTH",
"407 521 OFFCURVE",
"411 519 OFFCURVE",
"415 519 CURVE SMOOTH",
"416 519 OFFCURVE",
"417 519 OFFCURVE",
"418 519 CURVE SMOOTH",
"423 520 OFFCURVE",
"425 522 OFFCURVE",
"423 527 CURVE SMOOTH",
"414 547 OFFCURVE",
"402 566 OFFCURVE",
"388 583 CURVE",
"477 652 OFFCURVE",
"566 686 OFFCURVE",
"657 686 CURVE SMOOTH"
);
},
{
closed = 1;
nodes = (
"257 562 OFFCURVE",
"197 507 OFFCURVE",
"151 444 CURVE",
"87 472 OFFCURVE",
"54 513 OFFCURVE",
"54 568 CURVE SMOOTH",
"54 603 OFFCURVE",
"68 629 OFFCURVE",
"94 646 CURVE SMOOTH",
"115 660 OFFCURVE",
"140 667 OFFCURVE",
"170 667 CURVE SMOOTH",
"226 667 OFFCURVE",
"279 647 OFFCURVE",
"330 608 CURVE"
);
}
);
};
hints = (
{
horizontal = 1;
place = "{-324, 38}";
type = Stem;
},
{
horizontal = 1;
place = "{-268, 98}";
type = Stem;
},
{
horizontal = 1;
place = "{-6, 30}";
type = Stem;
},
{
horizontal = 1;
place = "{394, 22}";
type = Stem;
},
{
horizontal = 1;
place = "{668, 21}";
target = up;
type = BottomGhost;
},
{
place = "{12, 44}";
type = Stem;
},
{
place = "{62, 76}";
type = Stem;
},
{
place = "{720, 38}";
type = Stem;
}
);
layerId = "3191725B-F824-48C7-90A0-BAE99CBF9356";
paths = (
{
closed = 1;
nodes = (
"721 550 OFFCURVE",
"757 597 OFFCURVE",
"757 641 CURVE SMOOTH",
"757 684 OFFCURVE",
"716 705 OFFCURVE",
"634 705 CURVE SMOOTH",
"543 705 OFFCURVE",
"449 677 OFFCURVE",
"352 621 CURVE",
"301 666 OFFCURVE",
"242 688 OFFCURVE",
"173 688 CURVE SMOOTH",
"134 688 OFFCURVE",
"100 680 OFFCURVE",
"70 662 CURVE SMOOTH",
"31 639 OFFCURVE",
"12 607 OFFCURVE",
"12 565 CURVE SMOOTH",
"12 536 OFFCURVE",
"24 507 OFFCURVE",
"48 480 CURVE SMOOTH",
"71 455 OFFCURVE",
"100 435 OFFCURVE",
"135 420 CURVE",
"86 343 OFFCURVE",
"61 265 OFFCURVE",
"61 186 CURVE SMOOTH",
"61 129 OFFCURVE",
"76 84 OFFCURVE",
"105 51 CURVE SMOOTH",
"138 14 OFFCURVE",
"189 -5 OFFCURVE",
"256 -5 CURVE SMOOTH",
"339 -5 OFFCURVE",
"423 56 OFFCURVE",
"506 177 CURVE",
"455 59 OFFCURVE",
"398 -46 OFFCURVE",
"335 -138 CURVE SMOOTH",
"267 -237 OFFCURVE",
"198 -286 OFFCURVE",
"128 -286 CURVE SMOOTH",
"93 -286 OFFCURVE",
"74 -275 OFFCURVE",
"71 -253 CURVE",
"80 -263 OFFCURVE",
"91 -268 OFFCURVE",
"105 -268 CURVE SMOOTH",
"118 -268 OFFCURVE",
"130 -263 OFFCURVE",
"141 -253 CURVE SMOOTH",
"153 -243 OFFCURVE",
"159 -229 OFFCURVE",
"159 -214 CURVE SMOOTH",
"159 -203 OFFCURVE",
"156 -193 OFFCURVE",
"148 -184 CURVE SMOOTH",
"139 -175 OFFCURVE",
"128 -170 OFFCURVE",
"115 -170 CURVE SMOOTH",
"75 -170 OFFCURVE",
"55 -194 OFFCURVE",
"55 -243 CURVE SMOOTH",
"55 -270 OFFCURVE",
"67 -291 OFFCURVE",
"90 -305 CURVE SMOOTH",
"110 -318 OFFCURVE",
"133 -324 OFFCURVE",
"160 -324 CURVE SMOOTH",
"209 -324 OFFCURVE",
"259 -304 OFFCURVE",
"312 -264 CURVE SMOOTH",
"376 -216 OFFCURVE",
"427 -149 OFFCURVE",
"458 -57 CURVE SMOOTH",
"485 24 OFFCURVE",
"507 107 OFFCURVE",
"532 189 CURVE SMOOTH",
"539 210 OFFCURVE",
"544 220 OFFCURVE",
"547 221 CURVE",
"561 234 OFFCURVE",
"572 245 OFFCURVE",
"579 254 CURVE SMOOTH",
"606 287 OFFCURVE",
"619 315 OFFCURVE",
"619 339 CURVE SMOOTH",
"619 361 OFFCURVE",
"610 372 OFFCURVE",
"591 372 CURVE SMOOTH",
"572 372 OFFCURVE",
"556 359 OFFCURVE",
"543 334 CURVE SMOOTH",
"535 317 OFFCURVE",
"529 299 OFFCURVE",
"527 278 CURVE",
"526 276 OFFCURVE",
"525 262 OFFCURVE",
"523 235 CURVE",
"519 228 LINE",
"477 169 OFFCURVE",
"440 124 OFFCURVE",
"408 94 CURVE SMOOTH",
"357 47 OFFCURVE",
"306 24 OFFCURVE",
"256 24 CURVE SMOOTH",
"221 24 OFFCURVE",
"193 36 OFFCURVE",
"170 59 CURVE SMOOTH",
"147 82 OFFCURVE",
"136 115 OFFCURVE",
"136 158 CURVE SMOOTH",
"136 229 OFFCURVE",
"164 309 OFFCURVE",
"221 398 CURVE",
"241 395 OFFCURVE",
"262 394 OFFCURVE",
"285 394 CURVE SMOOTH",
"430 394 OFFCURVE",
"551 429 OFFCURVE",
"650 499 CURVE SMOOTH"
);
},
{
closed = 1;
nodes = (
"698 686 OFFCURVE",
"719 674 OFFCURVE",
"719 649 CURVE SMOOTH",
"719 632 OFFCURVE",
"710 612 OFFCURVE",
"691 588 CURVE SMOOTH",
"674 567 OFFCURVE",
"656 549 OFFCURVE",
"636 535 CURVE SMOOTH",
"557 478 OFFCURVE",
"472 442 OFFCURVE",
"383 425 CURVE SMOOTH",
"351 419 OFFCURVE",
"319 416 OFFCURVE",
"288 416 CURVE SMOOTH",
"271 416 OFFCURVE",
"254 417 OFFCURVE",
"236 420 CURVE",
"275 477 OFFCURVE",
"320 527 OFFCURVE",
"371 570 CURVE",
"387 550 OFFCURVE",
"398 535 OFFCURVE",
"405 524 CURVE SMOOTH",
"407 521 OFFCURVE",
"411 519 OFFCURVE",
"415 519 CURVE SMOOTH",
"416 519 OFFCURVE",
"417 519 OFFCURVE",
"418 519 CURVE SMOOTH",
"423 520 OFFCURVE",
"425 522 OFFCURVE",
"423 527 CURVE SMOOTH",
"414 547 OFFCURVE",
"402 566 OFFCURVE",
"388 583 CURVE",
"477 652 OFFCURVE",
"566 686 OFFCURVE",
"657 686 CURVE SMOOTH"
);
},
{
closed = 1;
nodes = (
"257 562 OFFCURVE",
"197 507 OFFCURVE",
"151 444 CURVE",
"87 472 OFFCURVE",
"54 513 OFFCURVE",
"54 568 CURVE SMOOTH",
"54 603 OFFCURVE",
"68 629 OFFCURVE",
"94 646 CURVE SMOOTH",
"115 660 OFFCURVE",
"140 667 OFFCURVE",
"170 667 CURVE SMOOTH",
"226 667 OFFCURVE",
"279 647 OFFCURVE",
"330 608 CURVE"
);
}
);
width = 603;
}
);
note = G;
unicode = 0047;
},
{
glyphname = H;
lastChange = "2021-07-01 20:46:56 +0000";
layers = (
{
background = {
paths = (
{
closed = 1;
nodes = (
"1045 720 OFFCURVE",
"1047 723 OFFCURVE",
"1047 727 CURVE SMOOTH",
"1047 731 OFFCURVE",
"1045 732 OFFCURVE",
"1040 732 CURVE SMOOTH",
"1038 732 OFFCURVE",
"1037 732 OFFCURVE",
"1035 732 CURVE SMOOTH",
"974 724 OFFCURVE",
"910 675 OFFCURVE",
"844 582 CURVE SMOOTH",
"799 518 OFFCURVE",
"759 446 OFFCURVE",
"726 366 CURVE SMOOTH",
"688 274 OFFCURVE",
"669 195 OFFCURVE",
"668 128 CURVE",
"643 177 OFFCURVE",
"615 224 OFFCURVE",
"582 269 CURVE SMOOTH",
"561 298 OFFCURVE",
"538 323 OFFCURVE",
"513 344 CURVE",
"530 383 OFFCURVE",
"551 437 OFFCURVE",
"576 505 CURVE SMOOTH",
"596 560 OFFCURVE",
"613 599 OFFCURVE",
"628 620 CURVE SMOOTH",
"648 649 OFFCURVE",
"674 670 OFFCURVE",
"707 682 CURVE",
"735 664 OFFCURVE",
"755 657 OFFCURVE",
"770 657 CURVE SMOOTH",
"783 657 OFFCURVE",
"794 660 OFFCURVE",
"803 665 CURVE SMOOTH",
"812 670 OFFCURVE",
"817 677 OFFCURVE",
"817 685 CURVE SMOOTH",
"817 702 OFFCURVE",
"800 710 OFFCURVE",
"766 710 CURVE SMOOTH",
"749 710 OFFCURVE",
"728 707 OFFCURVE",
"705 701 CURVE",
"652 710 OFFCURVE",
"597 714 OFFCURVE",
"538 714 CURVE SMOOTH",
"356 714 OFFCURVE",
"234 679 OFFCURVE",
"173 608 CURVE SMOOTH",
"152 584 OFFCURVE",
"142 560 OFFCURVE",
"142 536 CURVE SMOOTH",
"142 509 OFFCURVE",
"155 487 OFFCURVE",
"180 472 CURVE SMOOTH",
"201 459 OFFCURVE",
"227 452 OFFCURVE",
"256 452 CURVE SMOOTH",
"293 452 OFFCURVE",
"331 461 OFFCURVE",
"372 480 CURVE SMOOTH",
"412 499 OFFCURVE",
"443 521 OFFCURVE",
"464 548 CURVE SMOOTH",
"465 549 OFFCURVE",
"465 551 OFFCURVE",
"465 552 CURVE SMOOTH",
"465 555 OFFCURVE",
"464 557 OFFCURVE",
"461 558 CURVE SMOOTH",
"458 559 OFFCURVE",
"455 559 OFFCURVE",
"452 556 CURVE SMOOTH",
"397 503 OFFCURVE",
"337 476 OFFCURVE",
"272 476 CURVE SMOOTH",
"262 476 OFFCURVE",
"253 477 OFFCURVE",
"244 479 CURVE SMOOTH",
"217 484 OFFCURVE",
"203 498 OFFCURVE",
"203 522 CURVE SMOOTH",
"203 541 OFFCURVE",
"212 563 OFFCURVE",
"231 587 CURVE SMOOTH",
"250 610 OFFCURVE",
"276 632 OFFCURVE",
"310 652 CURVE SMOOTH",
"361 682 OFFCURVE",
"448 697 OFFCURVE",
"570 697 CURVE SMOOTH",
"611 697 OFFCURVE",
"648 695 OFFCURVE",
"681 690 CURVE",
"642 676 OFFCURVE",
"607 651 OFFCURVE",
"576 614 CURVE SMOOTH",
"551 585 OFFCURVE",
"525 544 OFFCURVE",
"497 489 CURVE SMOOTH",
"446 390 LINE",
"417 403 OFFCURVE",
"391 410 OFFCURVE",
"366 410 CURVE SMOOTH",
"341 410 OFFCURVE",
"320 403 OFFCURVE",
"305 388 CURVE SMOOTH",
"290 374 OFFCURVE",
"282 354 OFFCURVE",
"282 328 CURVE SMOOTH",
"282 289 OFFCURVE",
"300 242 OFFCURVE",
"337 189 CURVE",
"317 156 LINE SMOOTH",
"254 53 OFFCURVE",
"183 -8 OFFCURVE",
"106 -28 CURVE SMOOTH",
"99 -30 OFFCURVE",
"92 -31 OFFCURVE",
"84 -31 CURVE SMOOTH",
"48 -31 OFFCURVE",
"29 -19 OFFCURVE",
"26 5 CURVE",
"33 -9 OFFCURVE",
"44 -14 OFFCURVE",
"60 -14 CURVE SMOOTH",
"89 -14 OFFCURVE",
"106 1 OFFCURVE",
"106 35 CURVE SMOOTH",
"106 46 OFFCURVE",
"103 56 OFFCURVE",
"95 65 CURVE SMOOTH",
"87 75 OFFCURVE",
"76 81 OFFCURVE",
"63 81 CURVE SMOOTH",
"46 81 OFFCURVE",
"31 73 OFFCURVE",
"19 58 CURVE SMOOTH",
"7 43 OFFCURVE",
"1 27 OFFCURVE",
"1 8 CURVE SMOOTH",
"2 -36 OFFCURVE",
"31 -58 OFFCURVE",
"86 -58 CURVE SMOOTH",
"163 -58 OFFCURVE",
"234 -26 OFFCURVE",
"299 34 CURVE SMOOTH",
"332 64 OFFCURVE",
"361 95 OFFCURVE",
"387 128 CURVE",
"425 91 OFFCURVE",
"467 62 OFFCURVE",
"513 42 CURVE SMOOTH",
"516 41 OFFCURVE",
"518 41 OFFCURVE",
"521 44 CURVE SMOOTH",
"523 47 OFFCURVE",
"522 50 OFFCURVE",
"519 51 CURVE",
"475 75 OFFCURVE",
"436 106 OFFCURVE",
"401 145 CURVE",
"436 192 OFFCURVE",
"467 246 OFFCURVE",
"496 307 CURVE",
"517 290 OFFCURVE",
"537 271 OFFCURVE",
"557 248 CURVE SMOOTH",
"583 219 OFFCURVE",
"609 182 OFFCURVE",
"635 139 CURVE SMOOTH",
"657 102 OFFCURVE",
"670 76 OFFCURVE",
"676 59 CURVE SMOOTH",
"692 9 OFFCURVE",
"722 -16 OFFCURVE",
"763 -16 CURVE SMOOTH",
"768 -16 OFFCURVE",
"772 -16 OFFCURVE",
"777 -15 CURVE SMOOTH",
"810 -11 OFFCURVE",
"843 17 OFFCURVE",
"876 70 CURVE SMOOTH",
"884 83 OFFCURVE",
"906 126 OFFCURVE",
"943 201 CURVE SMOOTH",
"946 207 OFFCURVE",
"948 212 OFFCURVE",
"948 217 CURVE SMOOTH",
"948 221 OFFCURVE",
"946 224 OFFCURVE",
"944 224 CURVE SMOOTH",
"944 224 OFFCURVE",
"943 224 OFFCURVE",
"943 224 CURVE SMOOTH",
"940 223 OFFCURVE",
"936 219 OFFCURVE",
"933 212 CURVE SMOOTH",
"898 140 OFFCURVE",
"868 88 OFFCURVE",
"843 56 CURVE SMOOTH",
"817 23 OFFCURVE",
"796 6 OFFCURVE",
"777 6 CURVE SMOOTH",
"749 6 OFFCURVE",
"736 35 OFFCURVE",
"736 91 CURVE SMOOTH",
"736 154 OFFCURVE",
"752 234 OFFCURVE",
"784 333 CURVE SMOOTH",
"816 434 OFFCURVE",
"855 521 OFFCURVE",
"899 592 CURVE SMOOTH",
"949 673 OFFCURVE",
"996 715 OFFCURVE",
"1041 720 CURVE SMOOTH"
);
},
{
closed = 1;
nodes = (
"398 298 OFFCURVE",
"374 253 OFFCURVE",
"351 214 CURVE",
"332 248 OFFCURVE",
"322 277 OFFCURVE",
"322 302 CURVE SMOOTH",
"322 340 OFFCURVE",
"341 359 OFFCURVE",
"378 359 CURVE SMOOTH",
"392 359 OFFCURVE",
"408 356 OFFCURVE",
"425 349 CURVE"
);
}
);
};
hints = (
{
horizontal = 1;
place = "{-58, 26}";
type = Stem;
},
{
horizontal = 1;
place = "{-14, 96}";
type = Stem;
},
{
horizontal = 1;
place = "{360, 52}";
type = Stem;
},
{
horizontal = 1;
place = "{452, 24}";
type = Stem;
},
{
horizontal = 1;
place = "{682, 20}";
type = Stem;
},
{
place = "{2, 106}";
type = Stem;
},
{
place = "{142, 62}";
type = Stem;
},
{
place = "{282, 40}";
type = Stem;
}
);
layerId = "3191725B-F824-48C7-90A0-BAE99CBF9356";
paths = (
{
closed = 1;
nodes = (
"1045 720 OFFCURVE",
"1047 723 OFFCURVE",
"1047 727 CURVE SMOOTH",
"1047 731 OFFCURVE",
"1045 732 OFFCURVE",
"1040 732 CURVE SMOOTH",
"1038 732 OFFCURVE",
"1037 732 OFFCURVE",
"1035 732 CURVE SMOOTH",
"974 724 OFFCURVE",
"910 675 OFFCURVE",
"844 582 CURVE SMOOTH",
"799 518 OFFCURVE",
"759 446 OFFCURVE",
"726 366 CURVE SMOOTH",
"688 274 OFFCURVE",
"669 195 OFFCURVE",
"668 128 CURVE",
"643 177 OFFCURVE",
"615 224 OFFCURVE",
"582 269 CURVE SMOOTH",
"561 298 OFFCURVE",
"538 323 OFFCURVE",
"513 344 CURVE",
"530 383 OFFCURVE",
"551 437 OFFCURVE",
"576 505 CURVE SMOOTH",
"596 560 OFFCURVE",
"613 599 OFFCURVE",
"628 620 CURVE SMOOTH",
"648 649 OFFCURVE",
"674 670 OFFCURVE",
"707 682 CURVE",
"735 664 OFFCURVE",
"755 657 OFFCURVE",
"770 657 CURVE SMOOTH",
"783 657 OFFCURVE",
"794 660 OFFCURVE",
"803 665 CURVE SMOOTH",
"812 670 OFFCURVE",
"817 677 OFFCURVE",
"817 685 CURVE SMOOTH",
"817 702 OFFCURVE",
"800 710 OFFCURVE",
"766 710 CURVE SMOOTH",
"749 710 OFFCURVE",
"728 707 OFFCURVE",
"705 701 CURVE",
"652 710 OFFCURVE",
"597 714 OFFCURVE",
"538 714 CURVE SMOOTH",
"356 714 OFFCURVE",
"234 679 OFFCURVE",
"173 608 CURVE SMOOTH",
"152 584 OFFCURVE",
"142 560 OFFCURVE",
"142 536 CURVE SMOOTH",
"142 509 OFFCURVE",
"155 487 OFFCURVE",
"180 472 CURVE SMOOTH",
"201 459 OFFCURVE",
"227 452 OFFCURVE",
"256 452 CURVE SMOOTH",
"293 452 OFFCURVE",
"331 461 OFFCURVE",
"372 480 CURVE SMOOTH",
"412 499 OFFCURVE",
"443 521 OFFCURVE",
"464 548 CURVE SMOOTH",
"465 549 OFFCURVE",
"465 551 OFFCURVE",
"465 552 CURVE SMOOTH",
"465 555 OFFCURVE",
"464 557 OFFCURVE",
"461 558 CURVE SMOOTH",
"458 559 OFFCURVE",
"455 559 OFFCURVE",
"452 556 CURVE SMOOTH",
"397 503 OFFCURVE",
"337 476 OFFCURVE",
"272 476 CURVE SMOOTH",
"262 476 OFFCURVE",
"253 477 OFFCURVE",
"244 479 CURVE SMOOTH",
"217 484 OFFCURVE",
"203 498 OFFCURVE",
"203 522 CURVE SMOOTH",
"203 541 OFFCURVE",
"212 563 OFFCURVE",
"231 587 CURVE SMOOTH",
"250 610 OFFCURVE",
"276 632 OFFCURVE",
"310 652 CURVE SMOOTH",
"361 682 OFFCURVE",
"448 697 OFFCURVE",
"570 697 CURVE SMOOTH",
"611 697 OFFCURVE",
"648 695 OFFCURVE",
"681 690 CURVE",
"642 676 OFFCURVE",
"607 651 OFFCURVE",
"576 614 CURVE SMOOTH",
"551 585 OFFCURVE",
"525 544 OFFCURVE",
"497 489 CURVE SMOOTH",
"446 390 LINE",
"417 403 OFFCURVE",
"391 410 OFFCURVE",
"366 410 CURVE SMOOTH",
"341 410 OFFCURVE",
"320 403 OFFCURVE",
"305 388 CURVE SMOOTH",
"290 374 OFFCURVE",
"282 354 OFFCURVE",
"282 328 CURVE SMOOTH",
"282 289 OFFCURVE",
"300 242 OFFCURVE",
"337 189 CURVE",
"317 156 LINE SMOOTH",
"254 53 OFFCURVE",
"183 -8 OFFCURVE",
"106 -28 CURVE SMOOTH",
"99 -30 OFFCURVE",
"92 -31 OFFCURVE",
"84 -31 CURVE SMOOTH",
"48 -31 OFFCURVE",
"29 -19 OFFCURVE",
"26 5 CURVE",
"33 -9 OFFCURVE",
"44 -14 OFFCURVE",
"60 -14 CURVE SMOOTH",
"89 -14 OFFCURVE",
"106 1 OFFCURVE",
"106 35 CURVE SMOOTH",
"106 46 OFFCURVE",
"103 56 OFFCURVE",
"95 65 CURVE SMOOTH",
"87 75 OFFCURVE",
"76 81 OFFCURVE",
"63 81 CURVE SMOOTH",
"46 81 OFFCURVE",
"31 73 OFFCURVE",
"19 58 CURVE SMOOTH",
"7 43 OFFCURVE",
"1 27 OFFCURVE",
"1 8 CURVE SMOOTH",
"2 -36 OFFCURVE",
"31 -58 OFFCURVE",
"86 -58 CURVE SMOOTH",
"163 -58 OFFCURVE",
"234 -26 OFFCURVE",
"299 34 CURVE SMOOTH",
"332 64 OFFCURVE",
"361 95 OFFCURVE",
"387 128 CURVE",
"425 91 OFFCURVE",
"467 62 OFFCURVE",
"513 42 CURVE SMOOTH",
"516 41 OFFCURVE",
"518 41 OFFCURVE",
"521 44 CURVE SMOOTH",
"523 47 OFFCURVE",
"522 50 OFFCURVE",
"519 51 CURVE",
"475 75 OFFCURVE",
"436 106 OFFCURVE",
"401 145 CURVE",
"436 192 OFFCURVE",
"467 246 OFFCURVE",
"496 307 CURVE",
"517 290 OFFCURVE",
"537 271 OFFCURVE",
"557 248 CURVE SMOOTH",
"583 219 OFFCURVE",
"609 182 OFFCURVE",
"635 139 CURVE SMOOTH",
"657 102 OFFCURVE",
"670 76 OFFCURVE",
"676 59 CURVE SMOOTH",
"692 9 OFFCURVE",
"722 -16 OFFCURVE",
"763 -16 CURVE SMOOTH",
"768 -16 OFFCURVE",
"772 -16 OFFCURVE",
"777 -15 CURVE SMOOTH",
"810 -11 OFFCURVE",
"843 17 OFFCURVE",
"876 70 CURVE SMOOTH",
"884 83 OFFCURVE",
"906 126 OFFCURVE",
"943 201 CURVE SMOOTH",
"946 207 OFFCURVE",
"948 212 OFFCURVE",
"948 217 CURVE SMOOTH",
"948 221 OFFCURVE",
"946 224 OFFCURVE",
"944 224 CURVE SMOOTH",
"944 224 OFFCURVE",
"943 224 OFFCURVE",
"943 224 CURVE SMOOTH",
"940 223 OFFCURVE",
"936 219 OFFCURVE",
"933 212 CURVE SMOOTH",
"898 140 OFFCURVE",
"868 88 OFFCURVE",
"843 56 CURVE SMOOTH",
"817 23 OFFCURVE",
"796 6 OFFCURVE",
"777 6 CURVE SMOOTH",
"749 6 OFFCURVE",
"736 35 OFFCURVE",
"736 91 CURVE SMOOTH",
"736 154 OFFCURVE",
"752 234 OFFCURVE",
"784 333 CURVE SMOOTH",
"816 434 OFFCURVE",
"855 521 OFFCURVE",
"899 592 CURVE SMOOTH",
"949 673 OFFCURVE",
"996 715 OFFCURVE",
"1041 720 CURVE SMOOTH"
);
},
{
closed = 1;
nodes = (
"398 298 OFFCURVE",
"374 253 OFFCURVE",
"351 214 CURVE",
"332 248 OFFCURVE",
"322 277 OFFCURVE",
"322 302 CURVE SMOOTH",
"322 340 OFFCURVE",
"341 359 OFFCURVE",
"378 359 CURVE SMOOTH",
"392 359 OFFCURVE",
"408 356 OFFCURVE",
"425 349 CURVE"
);
}
);
width = 854;
}
);
note = H;
unicode = 0048;
},
{
glyphname = I;
lastChange = "2021-07-01 20:46:56 +0000";
layers = (
{
background = {
paths = (
{
closed = 1;
nodes = (
"698 728 OFFCURVE",
"675 719 OFFCURVE",
"651 705 CURVE",
"529 672 OFFCURVE",
"423 636 OFFCURVE",
"333 595 CURVE SMOOTH",
"260 562 OFFCURVE",
"204 521 OFFCURVE",
"162 472 CURVE SMOOTH",
"124 428 OFFCURVE",
"105 386 OFFCURVE",
"105 346 CURVE SMOOTH",
"105 320 OFFCURVE",
"114 299 OFFCURVE",
"131 283 CURVE SMOOTH",
"148 268 OFFCURVE",
"173 260 OFFCURVE",
"206 260 CURVE SMOOTH",
"215 260 OFFCURVE",
"223 261 OFFCURVE",
"232 262 CURVE SMOOTH",
"263 266 OFFCURVE",
"293 273 OFFCURVE",
"321 285 CURVE SMOOTH",
"325 287 OFFCURVE",
"328 291 OFFCURVE",
"328 295 CURVE SMOOTH",
"328 296 OFFCURVE",
"328 296 OFFCURVE",
"328 297 CURVE SMOOTH",
"327 303 OFFCURVE",
"325 304 OFFCURVE",
"320 302 CURVE SMOOTH",
"292 288 OFFCURVE",
"267 280 OFFCURVE",
"243 280 CURVE SMOOTH",
"239 280 OFFCURVE",
"235 281 OFFCURVE",
"231 281 CURVE SMOOTH",
"188 286 OFFCURVE",
"167 306 OFFCURVE",
"167 342 CURVE SMOOTH",
"167 365 OFFCURVE",
"176 391 OFFCURVE",
"192 421 CURVE SMOOTH",
"206 447 OFFCURVE",
"221 468 OFFCURVE",
"238 485 CURVE SMOOTH",
"287 534 OFFCURVE",
"345 574 OFFCURVE",
"414 606 CURVE SMOOTH",
"465 630 OFFCURVE",
"532 654 OFFCURVE",
"615 677 CURVE",
"577 642 OFFCURVE",
"534 574 OFFCURVE",
"486 472 CURVE SMOOTH",
"422 337 OFFCURVE",
"359 219 OFFCURVE",
"298 119 CURVE SMOOTH",
"235 16 OFFCURVE",
"164 -45 OFFCURVE",
"87 -65 CURVE SMOOTH",
"80 -67 OFFCURVE",
"73 -68 OFFCURVE",
"66 -68 CURVE SMOOTH",
"29 -68 OFFCURVE",
"10 -56 OFFCURVE",
"7 -32 CURVE",
"14 -46 OFFCURVE",
"25 -52 OFFCURVE",
"41 -52 CURVE SMOOTH",
"70 -52 OFFCURVE",
"87 -36 OFFCURVE",
"87 -2 CURVE SMOOTH",
"87 9 OFFCURVE",
"84 19 OFFCURVE",
"76 28 CURVE SMOOTH",
"68 38 OFFCURVE",
"57 43 OFFCURVE",
"44 43 CURVE SMOOTH",
"27 43 OFFCURVE",
"12 36 OFFCURVE",
"0 21 CURVE SMOOTH",
"-12 6 OFFCURVE",
"-18 -10 OFFCURVE",
"-18 -29 CURVE SMOOTH",
"-17 -73 OFFCURVE",
"12 -95 OFFCURVE",
"67 -95 CURVE SMOOTH",
"73 -95 OFFCURVE",
"79 -94 OFFCURVE",
"85 -94 CURVE SMOOTH",
"204 -85 OFFCURVE",
"306 -15 OFFCURVE",
"391 117 CURVE SMOOTH",
"445 202 OFFCURVE",
"495 322 OFFCURVE",
"542 478 CURVE SMOOTH",
"575 589 OFFCURVE",
"610 658 OFFCURVE",
"647 685 CURVE",
"658 685 LINE",
"677 678 OFFCURVE",
"696 674 OFFCURVE",
"713 674 CURVE SMOOTH",
"733 674 OFFCURVE",
"750 678 OFFCURVE",
"763 687 CURVE SMOOTH",
"776 696 OFFCURVE",
"782 705 OFFCURVE",
"782 715 CURVE SMOOTH",
"782 729 OFFCURVE",
"770 736 OFFCURVE",
"747 736 CURVE SMOOTH",
"738 736 OFFCURVE",
"729 735 OFFCURVE",
"719 733 CURVE SMOOTH"
);
}
);
};
hints = (
{
horizontal = 1;
place = "{-94, 26}";
type = Stem;
},
{
horizontal = 1;
place = "{-52, 96}";
type = Stem;
},
{
place = "{-18, 106}";
type = Stem;
},
{
place = "{106, 62}";
type = Stem;
}
);
layerId = "3191725B-F824-48C7-90A0-BAE99CBF9356";
paths = (
{
closed = 1;
nodes = (
"698 728 OFFCURVE",
"675 719 OFFCURVE",
"651 705 CURVE",
"529 672 OFFCURVE",
"423 636 OFFCURVE",
"333 595 CURVE SMOOTH",
"260 562 OFFCURVE",
"204 521 OFFCURVE",
"162 472 CURVE SMOOTH",
"124 428 OFFCURVE",
"105 386 OFFCURVE",
"105 346 CURVE SMOOTH",
"105 320 OFFCURVE",
"114 299 OFFCURVE",
"131 283 CURVE SMOOTH",
"148 268 OFFCURVE",
"173 260 OFFCURVE",
"206 260 CURVE SMOOTH",
"215 260 OFFCURVE",
"223 261 OFFCURVE",
"232 262 CURVE SMOOTH",
"263 266 OFFCURVE",
"293 273 OFFCURVE",
"321 285 CURVE SMOOTH",
"325 287 OFFCURVE",
"328 291 OFFCURVE",
"328 295 CURVE SMOOTH",
"328 296 OFFCURVE",
"328 296 OFFCURVE",
"328 297 CURVE SMOOTH",
"327 303 OFFCURVE",
"325 304 OFFCURVE",
"320 302 CURVE SMOOTH",
"292 288 OFFCURVE",
"267 280 OFFCURVE",
"243 280 CURVE SMOOTH",
"239 280 OFFCURVE",
"235 281 OFFCURVE",
"231 281 CURVE SMOOTH",
"188 286 OFFCURVE",
"167 306 OFFCURVE",
"167 342 CURVE SMOOTH",
"167 365 OFFCURVE",
"176 391 OFFCURVE",
"192 421 CURVE SMOOTH",
"206 447 OFFCURVE",
"221 468 OFFCURVE",
"238 485 CURVE SMOOTH",
"287 534 OFFCURVE",
"345 574 OFFCURVE",
"414 606 CURVE SMOOTH",
"465 630 OFFCURVE",
"532 654 OFFCURVE",
"615 677 CURVE",
"577 642 OFFCURVE",
"534 574 OFFCURVE",
"486 472 CURVE SMOOTH",
"422 337 OFFCURVE",
"359 219 OFFCURVE",
"298 119 CURVE SMOOTH",
"235 16 OFFCURVE",
"164 -45 OFFCURVE",
"87 -65 CURVE SMOOTH",
"80 -67 OFFCURVE",
"73 -68 OFFCURVE",
"66 -68 CURVE SMOOTH",
"29 -68 OFFCURVE",
"10 -56 OFFCURVE",
"7 -32 CURVE",
"14 -46 OFFCURVE",
"25 -52 OFFCURVE",
"41 -52 CURVE SMOOTH",
"70 -52 OFFCURVE",
"87 -36 OFFCURVE",
"87 -2 CURVE SMOOTH",
"87 9 OFFCURVE",
"84 19 OFFCURVE",
"76 28 CURVE SMOOTH",
"68 38 OFFCURVE",
"57 43 OFFCURVE",
"44 43 CURVE SMOOTH",
"27 43 OFFCURVE",
"12 36 OFFCURVE",
"0 21 CURVE SMOOTH",
"-12 6 OFFCURVE",
"-18 -10 OFFCURVE",
"-18 -29 CURVE SMOOTH",
"-17 -73 OFFCURVE",
"12 -95 OFFCURVE",
"67 -95 CURVE SMOOTH",
"73 -95 OFFCURVE",
"79 -94 OFFCURVE",
"85 -94 CURVE SMOOTH",
"204 -85 OFFCURVE",
"306 -15 OFFCURVE",
"391 117 CURVE SMOOTH",
"445 202 OFFCURVE",
"495 322 OFFCURVE",
"542 478 CURVE SMOOTH",
"575 589 OFFCURVE",
"610 658 OFFCURVE",
"647 685 CURVE",
"658 685 LINE",
"677 678 OFFCURVE",
"696 674 OFFCURVE",
"713 674 CURVE SMOOTH",
"733 674 OFFCURVE",
"750 678 OFFCURVE",
"763 687 CURVE SMOOTH",
"776 696 OFFCURVE",
"782 705 OFFCURVE",
"782 715 CURVE SMOOTH",
"782 729 OFFCURVE",
"770 736 OFFCURVE",
"747 736 CURVE SMOOTH",
"738 736 OFFCURVE",
"729 735 OFFCURVE",
"719 733 CURVE SMOOTH"
);
}
);
width = 495;
}
);
note = I;
unicode = 0049;
},
{
glyphname = Iacute;
lastChange = "2021-07-01 20:46:56 +0000";
layers = (
{
background = {
paths = (
{
closed = 1;
nodes = (
"698 728 OFFCURVE",
"675 719 OFFCURVE",
"651 705 CURVE",
"529 672 OFFCURVE",
"423 636 OFFCURVE",
"333 595 CURVE SMOOTH",
"260 562 OFFCURVE",
"204 521 OFFCURVE",
"162 472 CURVE SMOOTH",
"124 428 OFFCURVE",
"105 386 OFFCURVE",
"105 346 CURVE SMOOTH",
"105 320 OFFCURVE",
"114 299 OFFCURVE",
"131 283 CURVE SMOOTH",
"148 268 OFFCURVE",
"173 260 OFFCURVE",
"206 260 CURVE SMOOTH",
"215 260 OFFCURVE",
"223 261 OFFCURVE",
"232 262 CURVE SMOOTH",
"263 266 OFFCURVE",
"293 273 OFFCURVE",
"321 285 CURVE SMOOTH",
"325 287 OFFCURVE",
"328 291 OFFCURVE",
"328 295 CURVE SMOOTH",
"328 296 OFFCURVE",
"328 296 OFFCURVE",
"328 297 CURVE SMOOTH",
"327 303 OFFCURVE",
"325 304 OFFCURVE",
"320 302 CURVE SMOOTH",
"292 288 OFFCURVE",
"267 280 OFFCURVE",
"243 280 CURVE SMOOTH",
"239 280 OFFCURVE",
"235 281 OFFCURVE",
"231 281 CURVE SMOOTH",
"188 286 OFFCURVE",
"167 306 OFFCURVE",
"167 342 CURVE SMOOTH",
"167 365 OFFCURVE",
"176 391 OFFCURVE",
"192 421 CURVE SMOOTH",
"206 447 OFFCURVE",
"221 468 OFFCURVE",
"238 485 CURVE SMOOTH",
"287 534 OFFCURVE",
"345 574 OFFCURVE",
"414 606 CURVE SMOOTH",
"465 630 OFFCURVE",
"532 654 OFFCURVE",
"615 677 CURVE",
"577 642 OFFCURVE",
"534 574 OFFCURVE",
"486 472 CURVE SMOOTH",
"422 337 OFFCURVE",
"359 219 OFFCURVE",
"298 119 CURVE SMOOTH",
"235 16 OFFCURVE",
"164 -45 OFFCURVE",
"87 -65 CURVE SMOOTH",
"80 -67 OFFCURVE",
"73 -68 OFFCURVE",
"66 -68 CURVE SMOOTH",
"29 -68 OFFCURVE",
"10 -56 OFFCURVE",
"7 -32 CURVE",
"14 -46 OFFCURVE",
"25 -52 OFFCURVE",
"41 -52 CURVE SMOOTH",
"70 -52 OFFCURVE",
"87 -36 OFFCURVE",
"87 -2 CURVE SMOOTH",
"87 9 OFFCURVE",
"84 19 OFFCURVE",
"76 28 CURVE SMOOTH",
"68 38 OFFCURVE",
"57 43 OFFCURVE",
"44 43 CURVE SMOOTH",
"27 43 OFFCURVE",
"12 36 OFFCURVE",
"0 21 CURVE SMOOTH",
"-12 6 OFFCURVE",
"-18 -10 OFFCURVE",
"-18 -29 CURVE SMOOTH",
"-17 -73 OFFCURVE",
"12 -95 OFFCURVE",
"67 -95 CURVE SMOOTH",
"73 -95 OFFCURVE",
"79 -94 OFFCURVE",
"85 -94 CURVE SMOOTH",
"204 -85 OFFCURVE",
"306 -15 OFFCURVE",
"391 117 CURVE SMOOTH",
"445 202 OFFCURVE",
"495 322 OFFCURVE",
"542 478 CURVE SMOOTH",
"575 589 OFFCURVE",
"610 658 OFFCURVE",
"647 685 CURVE",
"658 685 LINE",
"677 678 OFFCURVE",
"696 674 OFFCURVE",
"713 674 CURVE SMOOTH",
"733 674 OFFCURVE",
"750 678 OFFCURVE",
"763 687 CURVE SMOOTH",
"776 696 OFFCURVE",
"782 705 OFFCURVE",
"782 715 CURVE SMOOTH",
"782 729 OFFCURVE",
"770 736 OFFCURVE",
"747 736 CURVE SMOOTH",
"738 736 OFFCURVE",
"729 735 OFFCURVE",
"719 733 CURVE SMOOTH"
);
},
{
closed = 1;
nodes = (
"840 847 OFFCURVE",
"841 851 OFFCURVE",
"841 854 CURVE SMOOTH",
"841 861 OFFCURVE",
"837 866 OFFCURVE",
"829 870 CURVE SMOOTH",
"824 873 OFFCURVE",
"818 874 OFFCURVE",
"812 874 CURVE SMOOTH",
"799 874 OFFCURVE",
"786 869 OFFCURVE",
"771 858 CURVE SMOOTH",
"648 767 LINE",
"645 761 OFFCURVE",
"646 757 OFFCURVE",
"651 754 CURVE SMOOTH",
"655 752 OFFCURVE",
"686 765 OFFCURVE",
"745 792 CURVE SMOOTH",
"803 819 OFFCURVE",
"834 836 OFFCURVE",
"838 843 CURVE SMOOTH"
);
}
);
};
hints = (
{
horizontal = 1;
place = "{-94, 26}";
type = Stem;
},
{
horizontal = 1;
place = "{-52, 96}";
type = Stem;
},
{
place = "{-18, 106}";
type = Stem;
},
{
place = "{106, 62}";
type = Stem;
}
);
layerId = "3191725B-F824-48C7-90A0-BAE99CBF9356";
paths = (
{
closed = 1;
nodes = (
"698 728 OFFCURVE",
"675 719 OFFCURVE",
"651 705 CURVE",
"529 672 OFFCURVE",
"423 636 OFFCURVE",
"333 595 CURVE SMOOTH",
"260 562 OFFCURVE",
"204 521 OFFCURVE",
"162 472 CURVE SMOOTH",
"124 428 OFFCURVE",
"105 386 OFFCURVE",
"105 346 CURVE SMOOTH",
"105 320 OFFCURVE",
"114 299 OFFCURVE",
"131 283 CURVE SMOOTH",
"148 268 OFFCURVE",
"173 260 OFFCURVE",
"206 260 CURVE SMOOTH",
"215 260 OFFCURVE",
"223 261 OFFCURVE",
"232 262 CURVE SMOOTH",
"263 266 OFFCURVE",
"293 273 OFFCURVE",
"321 285 CURVE SMOOTH",
"325 287 OFFCURVE",
"328 291 OFFCURVE",
"328 295 CURVE SMOOTH",
"328 296 OFFCURVE",
"328 296 OFFCURVE",
"328 297 CURVE SMOOTH",
"327 303 OFFCURVE",
"325 304 OFFCURVE",
"320 302 CURVE SMOOTH",
"292 288 OFFCURVE",
"267 280 OFFCURVE",
"243 280 CURVE SMOOTH",
"239 280 OFFCURVE",
"235 281 OFFCURVE",
"231 281 CURVE SMOOTH",
"188 286 OFFCURVE",
"167 306 OFFCURVE",
"167 342 CURVE SMOOTH",
"167 365 OFFCURVE",
"176 391 OFFCURVE",
"192 421 CURVE SMOOTH",
"206 447 OFFCURVE",
"221 468 OFFCURVE",
"238 485 CURVE SMOOTH",
"287 534 OFFCURVE",
"345 574 OFFCURVE",
"414 606 CURVE SMOOTH",
"465 630 OFFCURVE",
"532 654 OFFCURVE",
"615 677 CURVE",
"577 642 OFFCURVE",
"534 574 OFFCURVE",
"486 472 CURVE SMOOTH",
"422 337 OFFCURVE",
"359 219 OFFCURVE",
"298 119 CURVE SMOOTH",
"235 16 OFFCURVE",
"164 -45 OFFCURVE",
"87 -65 CURVE SMOOTH",
"80 -67 OFFCURVE",
"73 -68 OFFCURVE",
"66 -68 CURVE SMOOTH",
"29 -68 OFFCURVE",
"10 -56 OFFCURVE",
"7 -32 CURVE",
"14 -46 OFFCURVE",
"25 -52 OFFCURVE",
"41 -52 CURVE SMOOTH",
"70 -52 OFFCURVE",
"87 -36 OFFCURVE",
"87 -2 CURVE SMOOTH",
"87 9 OFFCURVE",
"84 19 OFFCURVE",
"76 28 CURVE SMOOTH",
"68 38 OFFCURVE",
"57 43 OFFCURVE",
"44 43 CURVE SMOOTH",
"27 43 OFFCURVE",
"12 36 OFFCURVE",
"0 21 CURVE SMOOTH",
"-12 6 OFFCURVE",
"-18 -10 OFFCURVE",
"-18 -29 CURVE SMOOTH",
"-17 -73 OFFCURVE",
"12 -95 OFFCURVE",
"67 -95 CURVE SMOOTH",
"73 -95 OFFCURVE",
"79 -94 OFFCURVE",
"85 -94 CURVE SMOOTH",
"204 -85 OFFCURVE",
"306 -15 OFFCURVE",
"391 117 CURVE SMOOTH",
"445 202 OFFCURVE",
"495 322 OFFCURVE",
"542 478 CURVE SMOOTH",
"575 589 OFFCURVE",
"610 658 OFFCURVE",
"647 685 CURVE",
"658 685 LINE",
"677 678 OFFCURVE",
"696 674 OFFCURVE",
"713 674 CURVE SMOOTH",
"733 674 OFFCURVE",
"750 678 OFFCURVE",
"763 687 CURVE SMOOTH",
"776 696 OFFCURVE",
"782 705 OFFCURVE",
"782 715 CURVE SMOOTH",
"782 729 OFFCURVE",
"770 736 OFFCURVE",
"747 736 CURVE SMOOTH",
"738 736 OFFCURVE",
"729 735 OFFCURVE",
"719 733 CURVE SMOOTH"
);
},
{
closed = 1;
nodes = (
"840 847 OFFCURVE",
"841 851 OFFCURVE",
"841 854 CURVE SMOOTH",
"841 861 OFFCURVE",
"837 866 OFFCURVE",
"829 870 CURVE SMOOTH",
"824 873 OFFCURVE",
"818 874 OFFCURVE",
"812 874 CURVE SMOOTH",
"799 874 OFFCURVE",
"786 869 OFFCURVE",
"771 858 CURVE SMOOTH",
"648 767 LINE",
"645 761 OFFCURVE",
"646 757 OFFCURVE",
"651 754 CURVE SMOOTH",
"655 752 OFFCURVE",
"686 765 OFFCURVE",
"745 792 CURVE SMOOTH",
"803 819 OFFCURVE",
"834 836 OFFCURVE",
"838 843 CURVE SMOOTH"
);
}
);
width = 589;
}
);
note = Iacute;
unicode = 00CD;
},
{
glyphname = Icircumflex;
lastChange = "2021-07-01 20:46:56 +0000";
layers = (
{
background = {
paths = (
{
closed = 1;
nodes = (
"698 728 OFFCURVE",
"675 719 OFFCURVE",
"651 705 CURVE",
"529 672 OFFCURVE",
"423 636 OFFCURVE",
"333 595 CURVE SMOOTH",
"260 562 OFFCURVE",
"204 521 OFFCURVE",
"162 472 CURVE SMOOTH",
"124 428 OFFCURVE",
"105 386 OFFCURVE",
"105 346 CURVE SMOOTH",
"105 320 OFFCURVE",
"114 299 OFFCURVE",
"131 283 CURVE SMOOTH",
"148 268 OFFCURVE",
"173 260 OFFCURVE",
"206 260 CURVE SMOOTH",
"215 260 OFFCURVE",
"223 261 OFFCURVE",
"232 262 CURVE SMOOTH",
"263 266 OFFCURVE",
"293 273 OFFCURVE",
"321 285 CURVE SMOOTH",
"325 287 OFFCURVE",
"328 291 OFFCURVE",
"328 295 CURVE SMOOTH",
"328 296 OFFCURVE",
"328 296 OFFCURVE",
"328 297 CURVE SMOOTH",
"327 303 OFFCURVE",
"325 304 OFFCURVE",
"320 302 CURVE SMOOTH",
"292 288 OFFCURVE",
"267 280 OFFCURVE",
"243 280 CURVE SMOOTH",
"239 280 OFFCURVE",
"235 281 OFFCURVE",
"231 281 CURVE SMOOTH",
"188 286 OFFCURVE",
"167 306 OFFCURVE",
"167 342 CURVE SMOOTH",
"167 365 OFFCURVE",
"176 391 OFFCURVE",
"192 421 CURVE SMOOTH",
"206 447 OFFCURVE",
"221 468 OFFCURVE",
"238 485 CURVE SMOOTH",
"287 534 OFFCURVE",
"345 574 OFFCURVE",
"414 606 CURVE SMOOTH",
"465 630 OFFCURVE",
"532 654 OFFCURVE",
"615 677 CURVE",
"577 642 OFFCURVE",
"534 574 OFFCURVE",
"486 472 CURVE SMOOTH",
"422 337 OFFCURVE",
"359 219 OFFCURVE",
"298 119 CURVE SMOOTH",
"235 16 OFFCURVE",
"164 -45 OFFCURVE",
"87 -65 CURVE SMOOTH",
"80 -67 OFFCURVE",
"73 -68 OFFCURVE",
"66 -68 CURVE SMOOTH",
"29 -68 OFFCURVE",
"10 -56 OFFCURVE",
"7 -32 CURVE",
"14 -46 OFFCURVE",
"25 -52 OFFCURVE",
"41 -52 CURVE SMOOTH",
"70 -52 OFFCURVE",
"87 -36 OFFCURVE",
"87 -2 CURVE SMOOTH",
"87 9 OFFCURVE",
"84 19 OFFCURVE",
"76 28 CURVE SMOOTH",
"68 38 OFFCURVE",
"57 43 OFFCURVE",
"44 43 CURVE SMOOTH",
"27 43 OFFCURVE",
"12 36 OFFCURVE",
"0 21 CURVE SMOOTH",
"-12 6 OFFCURVE",
"-18 -10 OFFCURVE",
"-18 -29 CURVE SMOOTH",
"-17 -73 OFFCURVE",
"12 -95 OFFCURVE",
"67 -95 CURVE SMOOTH",
"73 -95 OFFCURVE",
"79 -94 OFFCURVE",
"85 -94 CURVE SMOOTH",
"204 -85 OFFCURVE",
"306 -15 OFFCURVE",
"391 117 CURVE SMOOTH",
"445 202 OFFCURVE",
"495 322 OFFCURVE",
"542 478 CURVE SMOOTH",
"575 589 OFFCURVE",
"610 658 OFFCURVE",
"647 685 CURVE",
"658 685 LINE",
"677 678 OFFCURVE",
"696 674 OFFCURVE",
"713 674 CURVE SMOOTH",
"733 674 OFFCURVE",
"750 678 OFFCURVE",
"763 687 CURVE SMOOTH",
"776 696 OFFCURVE",
"782 705 OFFCURVE",
"782 715 CURVE SMOOTH",
"782 729 OFFCURVE",
"770 736 OFFCURVE",
"747 736 CURVE SMOOTH",
"738 736 OFFCURVE",
"729 735 OFFCURVE",
"719 733 CURVE SMOOTH"
);
},
{
closed = 1;
nodes = (
"792 871 LINE SMOOTH",
"792 873 OFFCURVE",
"787 874 OFFCURVE",
"779 874 CURVE SMOOTH",
"772 874 OFFCURVE",
"760 873 OFFCURVE",
"745 871 CURVE",
"562 741 LINE SMOOTH",
"561 740 OFFCURVE",
"561 739 OFFCURVE",
"561 738 CURVE SMOOTH",
"561 735 OFFCURVE",
"565 735 OFFCURVE",
"573 735 CURVE SMOOTH",
"582 735 OFFCURVE",
"588 737 OFFCURVE",
"593 741 CURVE",
"755 828 LINE",
"811 741 LINE SMOOTH",
"813 738 OFFCURVE",
"816 736 OFFCURVE",
"821 735 CURVE SMOOTH",
"825 734 OFFCURVE",
"828 734 OFFCURVE",
"830 734 CURVE SMOOTH",
"831 734 OFFCURVE",
"832 734 OFFCURVE",
"833 734 CURVE SMOOTH",
"836 735 OFFCURVE",
"837 738 OFFCURVE",
"836 741 CURVE SMOOTH"
);
}
);
};
hints = (
{
horizontal = 1;
place = "{-94, 26}";
type = Stem;
},
{
horizontal = 1;
place = "{-52, 96}";
type = Stem;
},
{
place = "{-18, 106}";
type = Stem;
},
{
place = "{106, 62}";
type = Stem;
},
{
horizontal = 1;
place = "{734, 20}";
type = Stem;
}
);
layerId = "3191725B-F824-48C7-90A0-BAE99CBF9356";
paths = (
{
closed = 1;
nodes = (
"698 728 OFFCURVE",
"675 719 OFFCURVE",
"651 705 CURVE",
"529 672 OFFCURVE",
"423 636 OFFCURVE",
"333 595 CURVE SMOOTH",
"260 562 OFFCURVE",
"204 521 OFFCURVE",
"162 472 CURVE SMOOTH",
"124 428 OFFCURVE",
"105 386 OFFCURVE",
"105 346 CURVE SMOOTH",
"105 320 OFFCURVE",
"114 299 OFFCURVE",
"131 283 CURVE SMOOTH",
"148 268 OFFCURVE",
"173 260 OFFCURVE",
"206 260 CURVE SMOOTH",
"215 260 OFFCURVE",
"223 261 OFFCURVE",
"232 262 CURVE SMOOTH",
"263 266 OFFCURVE",
"293 273 OFFCURVE",
"321 285 CURVE SMOOTH",
"325 287 OFFCURVE",
"328 291 OFFCURVE",
"328 295 CURVE SMOOTH",
"328 296 OFFCURVE",
"328 296 OFFCURVE",
"328 297 CURVE SMOOTH",
"327 303 OFFCURVE",
"325 304 OFFCURVE",
"320 302 CURVE SMOOTH",
"292 288 OFFCURVE",
"267 280 OFFCURVE",
"243 280 CURVE SMOOTH",
"239 280 OFFCURVE",
"235 281 OFFCURVE",
"231 281 CURVE SMOOTH",
"188 286 OFFCURVE",
"167 306 OFFCURVE",
"167 342 CURVE SMOOTH",
"167 365 OFFCURVE",
"176 391 OFFCURVE",
"192 421 CURVE SMOOTH",
"206 447 OFFCURVE",
"221 468 OFFCURVE",
"238 485 CURVE SMOOTH",
"287 534 OFFCURVE",
"345 574 OFFCURVE",
"414 606 CURVE SMOOTH",
"465 630 OFFCURVE",
"532 654 OFFCURVE",
"615 677 CURVE",
"577 642 OFFCURVE",
"534 574 OFFCURVE",
"486 472 CURVE SMOOTH",
"422 337 OFFCURVE",
"359 219 OFFCURVE",
"298 119 CURVE SMOOTH",
"235 16 OFFCURVE",
"164 -45 OFFCURVE",
"87 -65 CURVE SMOOTH",
"80 -67 OFFCURVE",
"73 -68 OFFCURVE",
"66 -68 CURVE SMOOTH",
"29 -68 OFFCURVE",
"10 -56 OFFCURVE",
"7 -32 CURVE",
"14 -46 OFFCURVE",
"25 -52 OFFCURVE",
"41 -52 CURVE SMOOTH",
"70 -52 OFFCURVE",
"87 -36 OFFCURVE",
"87 -2 CURVE SMOOTH",
"87 9 OFFCURVE",
"84 19 OFFCURVE",
"76 28 CURVE SMOOTH",
"68 38 OFFCURVE",
"57 43 OFFCURVE",
"44 43 CURVE SMOOTH",
"27 43 OFFCURVE",
"12 36 OFFCURVE",
"0 21 CURVE SMOOTH",
"-12 6 OFFCURVE",
"-18 -10 OFFCURVE",
"-18 -29 CURVE SMOOTH",
"-17 -73 OFFCURVE",
"12 -95 OFFCURVE",
"67 -95 CURVE SMOOTH",
"73 -95 OFFCURVE",
"79 -94 OFFCURVE",
"85 -94 CURVE SMOOTH",
"204 -85 OFFCURVE",
"306 -15 OFFCURVE",
"391 117 CURVE SMOOTH",
"445 202 OFFCURVE",
"495 322 OFFCURVE",
"542 478 CURVE SMOOTH",
"575 589 OFFCURVE",
"610 658 OFFCURVE",
"647 685 CURVE",
"658 685 LINE",
"677 678 OFFCURVE",
"696 674 OFFCURVE",
"713 674 CURVE SMOOTH",
"733 674 OFFCURVE",
"750 678 OFFCURVE",
"763 687 CURVE SMOOTH",
"776 696 OFFCURVE",
"782 705 OFFCURVE",
"782 715 CURVE SMOOTH",
"782 729 OFFCURVE",
"770 736 OFFCURVE",
"747 736 CURVE SMOOTH",
"738 736 OFFCURVE",
"729 735 OFFCURVE",
"719 733 CURVE SMOOTH"
);
},
{
closed = 1;
nodes = (
"792 871 LINE SMOOTH",
"792 873 OFFCURVE",
"787 874 OFFCURVE",
"779 874 CURVE SMOOTH",
"772 874 OFFCURVE",
"760 873 OFFCURVE",
"745 871 CURVE",
"562 741 LINE SMOOTH",
"561 740 OFFCURVE",
"561 739 OFFCURVE",
"561 738 CURVE SMOOTH",
"561 735 OFFCURVE",
"565 735 OFFCURVE",
"573 735 CURVE SMOOTH",
"582 735 OFFCURVE",
"588 737 OFFCURVE",
"593 741 CURVE",
"755 828 LINE",
"811 741 LINE SMOOTH",
"813 738 OFFCURVE",
"816 736 OFFCURVE",
"821 735 CURVE SMOOTH",
"825 734 OFFCURVE",
"828 734 OFFCURVE",
"830 734 CURVE SMOOTH",
"831 734 OFFCURVE",
"832 734 OFFCURVE",
"833 734 CURVE SMOOTH",
"836 735 OFFCURVE",
"837 738 OFFCURVE",
"836 741 CURVE SMOOTH"
);
}
);
width = 589;
}
);
note = Icircumflex;
unicode = 00CE;
},
{
glyphname = Idieresis;
lastChange = "2021-07-01 20:46:56 +0000";
layers = (
{
background = {
paths = (
{
closed = 1;
nodes = (
"698 728 OFFCURVE",
"675 719 OFFCURVE",
"651 705 CURVE",
"529 672 OFFCURVE",
"423 636 OFFCURVE",
"333 595 CURVE SMOOTH",
"260 562 OFFCURVE",
"204 521 OFFCURVE",
"162 472 CURVE SMOOTH",
"124 428 OFFCURVE",
"105 386 OFFCURVE",
"105 346 CURVE SMOOTH",
"105 320 OFFCURVE",
"114 299 OFFCURVE",
"131 283 CURVE SMOOTH",
"148 268 OFFCURVE",
"173 260 OFFCURVE",
"206 260 CURVE SMOOTH",
"215 260 OFFCURVE",
"223 261 OFFCURVE",
"232 262 CURVE SMOOTH",
"263 266 OFFCURVE",
"293 273 OFFCURVE",
"321 285 CURVE SMOOTH",
"325 287 OFFCURVE",
"328 291 OFFCURVE",
"328 295 CURVE SMOOTH",
"328 296 OFFCURVE",
"328 296 OFFCURVE",
"328 297 CURVE SMOOTH",
"327 303 OFFCURVE",
"325 304 OFFCURVE",
"320 302 CURVE SMOOTH",
"292 288 OFFCURVE",
"267 280 OFFCURVE",
"243 280 CURVE SMOOTH",
"239 280 OFFCURVE",
"235 281 OFFCURVE",
"231 281 CURVE SMOOTH",
"188 286 OFFCURVE",
"167 306 OFFCURVE",
"167 342 CURVE SMOOTH",
"167 365 OFFCURVE",
"176 391 OFFCURVE",
"192 421 CURVE SMOOTH",
"206 447 OFFCURVE",
"221 468 OFFCURVE",
"238 485 CURVE SMOOTH",
"287 534 OFFCURVE",
"345 574 OFFCURVE",
"414 606 CURVE SMOOTH",
"465 630 OFFCURVE",
"532 654 OFFCURVE",
"615 677 CURVE",
"577 642 OFFCURVE",
"534 574 OFFCURVE",
"486 472 CURVE SMOOTH",
"422 337 OFFCURVE",
"359 219 OFFCURVE",
"298 119 CURVE SMOOTH",
"235 16 OFFCURVE",
"164 -45 OFFCURVE",
"87 -65 CURVE SMOOTH",
"80 -67 OFFCURVE",
"73 -68 OFFCURVE",
"66 -68 CURVE SMOOTH",
"29 -68 OFFCURVE",
"10 -56 OFFCURVE",
"7 -32 CURVE",
"14 -46 OFFCURVE",
"25 -52 OFFCURVE",
"41 -52 CURVE SMOOTH",
"70 -52 OFFCURVE",
"87 -36 OFFCURVE",
"87 -2 CURVE SMOOTH",
"87 9 OFFCURVE",
"84 19 OFFCURVE",
"76 28 CURVE SMOOTH",
"68 38 OFFCURVE",
"57 43 OFFCURVE",
"44 43 CURVE SMOOTH",
"27 43 OFFCURVE",
"12 36 OFFCURVE",
"0 21 CURVE SMOOTH",
"-12 6 OFFCURVE",
"-18 -10 OFFCURVE",
"-18 -29 CURVE SMOOTH",
"-17 -73 OFFCURVE",
"12 -95 OFFCURVE",
"67 -95 CURVE SMOOTH",
"73 -95 OFFCURVE",
"79 -94 OFFCURVE",
"85 -94 CURVE SMOOTH",
"204 -85 OFFCURVE",
"306 -15 OFFCURVE",
"391 117 CURVE SMOOTH",
"445 202 OFFCURVE",
"495 322 OFFCURVE",
"542 478 CURVE SMOOTH",
"575 589 OFFCURVE",
"610 658 OFFCURVE",
"647 685 CURVE",
"658 685 LINE",
"677 678 OFFCURVE",
"696 674 OFFCURVE",
"713 674 CURVE SMOOTH",
"733 674 OFFCURVE",
"750 678 OFFCURVE",
"763 687 CURVE SMOOTH",
"776 696 OFFCURVE",
"782 705 OFFCURVE",
"782 715 CURVE SMOOTH",
"782 729 OFFCURVE",
"770 736 OFFCURVE",
"747 736 CURVE SMOOTH",
"738 736 OFFCURVE",
"729 735 OFFCURVE",
"719 733 CURVE SMOOTH"
);
},
{
closed = 1;
nodes = (
"814 834 OFFCURVE",
"803 845 OFFCURVE",
"780 845 CURVE SMOOTH",
"759 845 OFFCURVE",
"748 834 OFFCURVE",
"748 812 CURVE SMOOTH",
"748 790 OFFCURVE",
"759 779 OFFCURVE",
"782 779 CURVE SMOOTH",
"803 779 OFFCURVE",
"814 790 OFFCURVE",
"814 812 CURVE SMOOTH"
);
},
{
closed = 1;
nodes = (
"685 834 OFFCURVE",
"674 845 OFFCURVE",
"651 845 CURVE SMOOTH",
"630 845 OFFCURVE",
"619 834 OFFCURVE",
"619 812 CURVE SMOOTH",
"619 790 OFFCURVE",
"630 779 OFFCURVE",
"653 779 CURVE SMOOTH",
"674 779 OFFCURVE",
"685 790 OFFCURVE",
"685 812 CURVE SMOOTH"
);
}
);
};
hints = (
{
horizontal = 1;
place = "{-94, 26}";
type = Stem;
},
{
horizontal = 1;
place = "{-52, 96}";
type = Stem;
},
{
place = "{-18, 106}";
type = Stem;
},
{
place = "{106, 62}";
type = Stem;
},
{
horizontal = 1;
place = "{780, 66}";
type = Stem;
},
{
place = "{620, 66}";
type = Stem;
},
{
place = "{748, 66}";
type = Stem;
}
);
layerId = "3191725B-F824-48C7-90A0-BAE99CBF9356";
paths = (
{
closed = 1;
nodes = (
"698 728 OFFCURVE",
"675 719 OFFCURVE",
"651 705 CURVE",
"529 672 OFFCURVE",
"423 636 OFFCURVE",
"333 595 CURVE SMOOTH",
"260 562 OFFCURVE",
"204 521 OFFCURVE",
"162 472 CURVE SMOOTH",
"124 428 OFFCURVE",
"105 386 OFFCURVE",
"105 346 CURVE SMOOTH",
"105 320 OFFCURVE",
"114 299 OFFCURVE",
"131 283 CURVE SMOOTH",
"148 268 OFFCURVE",
"173 260 OFFCURVE",
"206 260 CURVE SMOOTH",
"215 260 OFFCURVE",
"223 261 OFFCURVE",
"232 262 CURVE SMOOTH",
"263 266 OFFCURVE",
"293 273 OFFCURVE",
"321 285 CURVE SMOOTH",
"325 287 OFFCURVE",
"328 291 OFFCURVE",
"328 295 CURVE SMOOTH",
"328 296 OFFCURVE",
"328 296 OFFCURVE",
"328 297 CURVE SMOOTH",
"327 303 OFFCURVE",
"325 304 OFFCURVE",
"320 302 CURVE SMOOTH",
"292 288 OFFCURVE",
"267 280 OFFCURVE",
"243 280 CURVE SMOOTH",
"239 280 OFFCURVE",
"235 281 OFFCURVE",
"231 281 CURVE SMOOTH",
"188 286 OFFCURVE",
"167 306 OFFCURVE",
"167 342 CURVE SMOOTH",
"167 365 OFFCURVE",
"176 391 OFFCURVE",
"192 421 CURVE SMOOTH",
"206 447 OFFCURVE",
"221 468 OFFCURVE",
"238 485 CURVE SMOOTH",
"287 534 OFFCURVE",
"345 574 OFFCURVE",
"414 606 CURVE SMOOTH",
"465 630 OFFCURVE",
"532 654 OFFCURVE",
"615 677 CURVE",
"577 642 OFFCURVE",
"534 574 OFFCURVE",
"486 472 CURVE SMOOTH",
"422 337 OFFCURVE",
"359 219 OFFCURVE",
"298 119 CURVE SMOOTH",
"235 16 OFFCURVE",
"164 -45 OFFCURVE",
"87 -65 CURVE SMOOTH",
"80 -67 OFFCURVE",
"73 -68 OFFCURVE",
"66 -68 CURVE SMOOTH",
"29 -68 OFFCURVE",
"10 -56 OFFCURVE",
"7 -32 CURVE",
"14 -46 OFFCURVE",
"25 -52 OFFCURVE",
"41 -52 CURVE SMOOTH",
"70 -52 OFFCURVE",
"87 -36 OFFCURVE",
"87 -2 CURVE SMOOTH",
"87 9 OFFCURVE",
"84 19 OFFCURVE",
"76 28 CURVE SMOOTH",
"68 38 OFFCURVE",
"57 43 OFFCURVE",
"44 43 CURVE SMOOTH",
"27 43 OFFCURVE",
"12 36 OFFCURVE",
"0 21 CURVE SMOOTH",
"-12 6 OFFCURVE",
"-18 -10 OFFCURVE",
"-18 -29 CURVE SMOOTH",
"-17 -73 OFFCURVE",
"12 -95 OFFCURVE",
"67 -95 CURVE SMOOTH",
"73 -95 OFFCURVE",
"79 -94 OFFCURVE",
"85 -94 CURVE SMOOTH",
"204 -85 OFFCURVE",
"306 -15 OFFCURVE",
"391 117 CURVE SMOOTH",
"445 202 OFFCURVE",
"495 322 OFFCURVE",
"542 478 CURVE SMOOTH",
"575 589 OFFCURVE",
"610 658 OFFCURVE",
"647 685 CURVE",
"658 685 LINE",
"677 678 OFFCURVE",
"696 674 OFFCURVE",
"713 674 CURVE SMOOTH",
"733 674 OFFCURVE",
"750 678 OFFCURVE",
"763 687 CURVE SMOOTH",
"776 696 OFFCURVE",
"782 705 OFFCURVE",
"782 715 CURVE SMOOTH",
"782 729 OFFCURVE",
"770 736 OFFCURVE",
"747 736 CURVE SMOOTH",
"738 736 OFFCURVE",
"729 735 OFFCURVE",
"719 733 CURVE SMOOTH"
);
},
{
closed = 1;
nodes = (
"814 834 OFFCURVE",
"803 845 OFFCURVE",
"780 845 CURVE SMOOTH",
"759 845 OFFCURVE",
"748 834 OFFCURVE",
"748 812 CURVE SMOOTH",
"748 790 OFFCURVE",
"759 779 OFFCURVE",
"782 779 CURVE SMOOTH",
"803 779 OFFCURVE",
"814 790 OFFCURVE",
"814 812 CURVE SMOOTH"
);
},
{
closed = 1;
nodes = (
"685 834 OFFCURVE",
"674 845 OFFCURVE",
"651 845 CURVE SMOOTH",
"630 845 OFFCURVE",
"619 834 OFFCURVE",
"619 812 CURVE SMOOTH",
"619 790 OFFCURVE",
"630 779 OFFCURVE",
"653 779 CURVE SMOOTH",
"674 779 OFFCURVE",
"685 790 OFFCURVE",
"685 812 CURVE SMOOTH"
);
}
);
width = 589;
}
);
note = Idieresis;
unicode = 00CF;
},
